G04 #@! TF.GenerationSoftware,KiCad,Pcbnew,(5.0.2)-1*
G04 #@! TF.CreationDate,2019-04-15T07:55:58+02:00*
G04 #@! TF.ProjectId,irrigation_5Vvalve_4N25_CD74HC4052E_PCB v5.1,69727269-6761-4746-996f-6e5f35567661,rev?*
G04 #@! TF.SameCoordinates,Original*
G04 #@! TF.FileFunction,Copper,L1,Top*
G04 #@! TF.FilePolarity,Positive*
%FSLAX46Y46*%
G04 Gerber Fmt 4.6, Leading zero omitted, Abs format (unit mm)*
G04 Created by KiCad (PCBNEW (5.0.2)-1) date 15-04-2019 07:55:58*
%MOMM*%
%LPD*%
G01*
G04 APERTURE LIST*
G04 #@! TA.AperFunction,ComponentPad*
%ADD10C,3.500000*%
G04 #@! TD*
G04 #@! TA.AperFunction,ComponentPad*
%ADD11R,3.500000X3.500000*%
G04 #@! TD*
G04 #@! TA.AperFunction,ComponentPad*
%ADD12C,1.524000*%
G04 #@! TD*
G04 #@! TA.AperFunction,ComponentPad*
%ADD13O,2.000000X1.200000*%
G04 #@! TD*
G04 #@! TA.AperFunction,ComponentPad*
%ADD14C,1.700000*%
G04 #@! TD*
G04 #@! TA.AperFunction,ComponentPad*
%ADD15C,1.800000*%
G04 #@! TD*
G04 #@! TA.AperFunction,ComponentPad*
%ADD16R,1.600000X1.600000*%
G04 #@! TD*
G04 #@! TA.AperFunction,ComponentPad*
%ADD17O,1.600000X1.600000*%
G04 #@! TD*
G04 #@! TA.AperFunction,ComponentPad*
%ADD18O,1.400000X1.400000*%
G04 #@! TD*
G04 #@! TA.AperFunction,ComponentPad*
%ADD19C,1.400000*%
G04 #@! TD*
G04 #@! TA.AperFunction,ComponentPad*
%ADD20R,2.460000X2.460000*%
G04 #@! TD*
G04 #@! TA.AperFunction,ComponentPad*
%ADD21C,1.905000*%
G04 #@! TD*
G04 #@! TA.AperFunction,ComponentPad*
%ADD22O,1.905000X2.000000*%
G04 #@! TD*
G04 #@! TA.AperFunction,Conductor*
%ADD23C,0.200000*%
G04 #@! TD*
G04 APERTURE END LIST*
D10*
G04 #@! TO.P,bat_18650,2*
G04 #@! TO.N,GND*
X96520000Y-76200000D03*
D11*
G04 #@! TO.P,bat_18650,1*
G04 #@! TO.N,Net-(J4-Pad2)*
X28500000Y-76200000D03*
G04 #@! TD*
D12*
G04 #@! TO.P,SW2,1*
G04 #@! TO.N,Net-(SW2-Pad1)*
X76200000Y-25400000D03*
G04 #@! TO.P,SW2,2*
G04 #@! TO.N,Net-(SW2-Pad2)*
X73660000Y-25400000D03*
G04 #@! TO.P,SW2,NA*
G04 #@! TO.N,N/C*
X73660000Y-30480000D03*
X76200000Y-30480000D03*
X71120000Y-30480000D03*
G04 #@! TO.P,SW2,3*
X71120000Y-25400000D03*
G04 #@! TD*
D13*
G04 #@! TO.P,U5,8*
G04 #@! TO.N,GND*
X61010000Y-63500000D03*
G04 #@! TO.P,U5,9*
G04 #@! TO.N,Net-(U2-Pad14)*
X68530000Y-63500000D03*
G04 #@! TO.P,U5,7*
G04 #@! TO.N,GND*
X61010000Y-60960000D03*
G04 #@! TO.P,U5,10*
G04 #@! TO.N,Net-(U2-Pad15)*
X68530000Y-60960000D03*
G04 #@! TO.P,U5,6*
G04 #@! TO.N,GND*
X61010000Y-58420000D03*
G04 #@! TO.P,U5,11*
G04 #@! TO.N,N/C*
X68530000Y-58420000D03*
G04 #@! TO.P,U5,5*
X61010000Y-55880000D03*
G04 #@! TO.P,U5,12*
G04 #@! TO.N,Net-(SS1-PadA0)*
X68530000Y-55880000D03*
G04 #@! TO.P,U5,4*
G04 #@! TO.N,N/C*
X61010000Y-53340000D03*
G04 #@! TO.P,U5,13*
G04 #@! TO.N,Net-(U2-Pad10)*
X68530000Y-53340000D03*
G04 #@! TO.P,U5,3*
G04 #@! TO.N,N/C*
X61010000Y-50800000D03*
G04 #@! TO.P,U5,14*
G04 #@! TO.N,Net-(R1-Pad2)*
X68530000Y-50800000D03*
G04 #@! TO.P,U5,2*
G04 #@! TO.N,N/C*
X61010000Y-48260000D03*
G04 #@! TO.P,U5,15*
G04 #@! TO.N,Net-(J5-Pad3)*
X68530000Y-48260000D03*
G04 #@! TO.P,U5,1*
G04 #@! TO.N,N/C*
X61010000Y-45720000D03*
G04 #@! TO.P,U5,16*
G04 #@! TO.N,Net-(J5-Pad2)*
X68530000Y-45720000D03*
G04 #@! TD*
D14*
G04 #@! TO.P,J1,1*
G04 #@! TO.N,GND*
X81280000Y-25400000D03*
G04 #@! TO.P,J1,2*
G04 #@! TO.N,Net-(J1-Pad2)*
X81280000Y-22860000D03*
G04 #@! TD*
D15*
G04 #@! TO.P,U2,8*
G04 #@! TO.N,N/C*
X81280000Y-40640000D03*
G04 #@! TO.P,U2,7*
X83820000Y-40640000D03*
G04 #@! TO.P,U2,6*
G04 #@! TO.N,Net-(Opto1-Pad1)*
X86360000Y-40640000D03*
G04 #@! TO.P,U2,5*
G04 #@! TO.N,N/C*
X88900000Y-40640000D03*
G04 #@! TO.P,U2,4*
X91440000Y-40640000D03*
G04 #@! TO.P,U2,3*
X93980000Y-40640000D03*
G04 #@! TO.P,U2,2*
G04 #@! TO.N,GND*
X96520000Y-40640000D03*
G04 #@! TO.P,U2,1*
G04 #@! TO.N,Net-(J3-Pad2)*
X99060000Y-40640000D03*
G04 #@! TO.P,U2,16*
G04 #@! TO.N,N/C*
X99060000Y-63500000D03*
G04 #@! TO.P,U2,15*
G04 #@! TO.N,Net-(U2-Pad15)*
X96520000Y-63500000D03*
G04 #@! TO.P,U2,14*
G04 #@! TO.N,Net-(U2-Pad14)*
X93980000Y-63500000D03*
G04 #@! TO.P,U2,13*
G04 #@! TO.N,N/C*
X91440000Y-63500000D03*
G04 #@! TO.P,U2,12*
G04 #@! TO.N,Net-(R2-Pad1)*
X88900000Y-63500000D03*
G04 #@! TO.P,U2,11*
G04 #@! TO.N,Net-(SW2-Pad1)*
X86360000Y-63500000D03*
G04 #@! TO.P,U2,10*
G04 #@! TO.N,Net-(U2-Pad10)*
X83820000Y-63500000D03*
G04 #@! TO.P,U2,9*
G04 #@! TO.N,Net-(SW2-Pad2)*
X81280000Y-63500000D03*
G04 #@! TD*
D14*
G04 #@! TO.P,J3,2*
G04 #@! TO.N,Net-(J3-Pad2)*
X81280000Y-30480000D03*
G04 #@! TO.P,J3,1*
G04 #@! TO.N,Net-(J3-Pad1)*
X81280000Y-27940000D03*
G04 #@! TD*
D16*
G04 #@! TO.P,Opto1,1*
G04 #@! TO.N,Net-(Opto1-Pad1)*
X68580000Y-43180000D03*
D17*
G04 #@! TO.P,Opto1,3*
G04 #@! TO.N,Net-(J5-Pad2)*
X60960000Y-40640000D03*
G04 #@! TO.P,Opto1,2*
G04 #@! TO.N,GND*
X68580000Y-40640000D03*
G04 #@! TO.P,Opto1,4*
G04 #@! TO.N,Net-(J3-Pad2)*
X60960000Y-43180000D03*
G04 #@! TD*
D18*
G04 #@! TO.P,R1,2*
G04 #@! TO.N,Net-(R1-Pad2)*
X53340000Y-48260000D03*
D19*
G04 #@! TO.P,R1,1*
G04 #@! TO.N,Net-(J4-Pad2)*
X48260000Y-48260000D03*
G04 #@! TD*
G04 #@! TO.P,R2,1*
G04 #@! TO.N,Net-(R2-Pad1)*
X48260000Y-45720000D03*
D18*
G04 #@! TO.P,R2,2*
G04 #@! TO.N,Net-(Q1-Pad1)*
X53340000Y-45720000D03*
G04 #@! TD*
D14*
G04 #@! TO.P,SS1,A0*
G04 #@! TO.N,Net-(SS1-PadA0)*
X55880000Y-60960000D03*
G04 #@! TO.P,SS1,D0*
G04 #@! TO.N,Net-(J5-Pad2)*
X55880000Y-58420000D03*
G04 #@! TO.P,SS1,GND*
G04 #@! TO.N,GND*
X55880000Y-55880000D03*
G04 #@! TO.P,SS1,VCC*
G04 #@! TO.N,Net-(J5-Pad2)*
X55880000Y-53340000D03*
G04 #@! TO.P,SS1,-*
G04 #@! TO.N,N/C*
X26670000Y-58420000D03*
G04 #@! TO.P,SS1,+*
X26670000Y-55880000D03*
G04 #@! TD*
G04 #@! TO.P,SW1,1*
G04 #@! TO.N,Net-(SW1-Pad1)*
X81280000Y-35560000D03*
G04 #@! TO.P,SW1,2*
G04 #@! TO.N,Net-(J3-Pad2)*
X81280000Y-33020000D03*
G04 #@! TD*
G04 #@! TO.P,J4,1*
G04 #@! TO.N,GND*
X35560000Y-48260000D03*
G04 #@! TO.P,J4,2*
G04 #@! TO.N,Net-(J4-Pad2)*
X38100000Y-48260000D03*
G04 #@! TD*
G04 #@! TO.P,J5,1*
G04 #@! TO.N,GND*
X30480000Y-58420000D03*
G04 #@! TO.P,J5,2*
G04 #@! TO.N,Net-(J5-Pad2)*
X30480000Y-55880000D03*
G04 #@! TO.P,J5,3*
G04 #@! TO.N,Net-(J5-Pad3)*
X30480000Y-53380000D03*
G04 #@! TD*
D20*
G04 #@! TO.P,U4,6*
G04 #@! TO.N,GND*
X26670000Y-22860000D03*
G04 #@! TO.P,U4,5*
G04 #@! TO.N,Net-(J1-Pad2)*
X41910000Y-22860000D03*
G04 #@! TO.P,U4,4*
G04 #@! TO.N,Net-(SW1-Pad1)*
X55880000Y-22860000D03*
G04 #@! TO.P,U4,3*
G04 #@! TO.N,Net-(J4-Pad2)*
X39370000Y-43180000D03*
G04 #@! TO.P,U4,1*
G04 #@! TO.N,N/C*
X48895000Y-22860000D03*
G04 #@! TO.P,U4,2*
X30480000Y-43180000D03*
G04 #@! TD*
D21*
G04 #@! TO.P,Q1,1*
G04 #@! TO.N,Net-(Q1-Pad1)*
X60960000Y-38100000D03*
D22*
G04 #@! TO.P,Q1,2*
G04 #@! TO.N,Net-(J3-Pad1)*
X63500000Y-38100000D03*
G04 #@! TO.P,Q1,3*
G04 #@! TO.N,GND*
X66040000Y-38100000D03*
G04 #@! TD*
D23*
G04 #@! TO.N,GND*
X26670000Y-22860000D02*
X26670000Y-24290000D01*
X61010000Y-63500000D02*
X61010000Y-61010000D01*
X61010000Y-60960000D02*
X61010000Y-58420000D01*
X61010000Y-63500000D02*
X61410000Y-63500000D01*
X63500000Y-45720000D02*
X67310000Y-41910000D01*
X68580000Y-38100000D02*
X66040000Y-38100000D01*
X68580000Y-40640000D02*
X68580000Y-38100000D01*
X67310000Y-41910000D02*
X68580000Y-40640000D01*
X52070000Y-41910000D02*
X52070000Y-38100000D01*
X52070000Y-38100000D02*
X45720000Y-31750000D01*
X45720000Y-31750000D02*
X29210000Y-31750000D01*
X29210000Y-31750000D02*
X26670000Y-29210000D01*
X26670000Y-29210000D02*
X26670000Y-22860000D01*
X80010000Y-26670000D02*
X81280000Y-25400000D01*
X78740000Y-27940000D02*
X80010000Y-26670000D01*
X78740000Y-33020000D02*
X78740000Y-27940000D01*
X66040000Y-38100000D02*
X66040000Y-36830000D01*
X66040000Y-36830000D02*
X68580000Y-34290000D01*
X68580000Y-34290000D02*
X77470000Y-34290000D01*
X77470000Y-34290000D02*
X78740000Y-33020000D01*
X93980000Y-25400000D02*
X96520000Y-27940000D01*
X81280000Y-25400000D02*
X93980000Y-25400000D01*
X96520000Y-27940000D02*
X96520000Y-40640000D01*
X52070000Y-60960000D02*
X52070000Y-55880000D01*
X60960000Y-63500000D02*
X54610000Y-63500000D01*
X54610000Y-63500000D02*
X52070000Y-60960000D01*
X52070000Y-54610000D02*
X53340000Y-55880000D01*
X55880000Y-55880000D02*
X53340000Y-55880000D01*
X52070000Y-54610000D02*
X52070000Y-41910000D01*
X52070000Y-55880000D02*
X52070000Y-54610000D01*
X62230000Y-58420000D02*
X63500000Y-57150000D01*
X63500000Y-57150000D02*
X63500000Y-45720000D01*
X61410000Y-58420000D02*
X62230000Y-58420000D01*
X31115000Y-48260000D02*
X35560000Y-48260000D01*
X29845000Y-48260000D02*
X31115000Y-48260000D01*
X28575000Y-49530000D02*
X29845000Y-48260000D01*
X28575000Y-57785000D02*
X28575000Y-49530000D01*
X30480000Y-58420000D02*
X29210000Y-58420000D01*
X29210000Y-58420000D02*
X28575000Y-57785000D01*
X96520000Y-42545000D02*
X96520000Y-40640000D01*
X97859999Y-43884999D02*
X96520000Y-42545000D01*
X97790000Y-66040000D02*
X97859999Y-43884999D01*
X97790000Y-66040000D02*
X97790000Y-73660000D01*
X97790000Y-73660000D02*
X97790000Y-74930000D01*
X97790000Y-74930000D02*
X96520000Y-76200000D01*
G04 #@! TO.N,Net-(J1-Pad2)*
X81280000Y-22860000D02*
X67945000Y-22860000D01*
X67945000Y-22860000D02*
X65405000Y-25400000D01*
X65405000Y-25400000D02*
X46990000Y-25400000D01*
X46990000Y-25400000D02*
X44450000Y-22860000D01*
X44450000Y-22860000D02*
X41910000Y-22860000D01*
G04 #@! TO.N,Net-(R2-Pad1)*
X88900000Y-67310000D02*
X88900000Y-63500000D01*
X86360000Y-69850000D02*
X88900000Y-67310000D01*
X44450000Y-46990000D02*
X45720000Y-45720000D01*
X45720000Y-45720000D02*
X48260000Y-45720000D01*
X44450000Y-68580000D02*
X45720000Y-69850000D01*
X45720000Y-69850000D02*
X86360000Y-69850000D01*
X44450000Y-46990000D02*
X44450000Y-68580000D01*
G04 #@! TO.N,Net-(U2-Pad15)*
X96520000Y-60960000D02*
X96520000Y-63500000D01*
X68530000Y-60960000D02*
X67310000Y-60960000D01*
X67310000Y-60960000D02*
X66040000Y-59690000D01*
X66040000Y-59690000D02*
X66040000Y-53340000D01*
X66040000Y-53340000D02*
X67310000Y-52070000D01*
X67310000Y-52070000D02*
X95250000Y-52070000D01*
X95250000Y-52070000D02*
X96520000Y-53340000D01*
X96520000Y-53340000D02*
X96520000Y-63500000D01*
G04 #@! TO.N,Net-(J4-Pad2)*
X38100000Y-48260000D02*
X38100000Y-74295000D01*
X38100000Y-74295000D02*
X36195000Y-76200000D01*
X36195000Y-76200000D02*
X28575000Y-76200000D01*
X38100000Y-48260000D02*
X38100000Y-46355000D01*
X38100000Y-46355000D02*
X39370000Y-45085000D01*
X39370000Y-45085000D02*
X39370000Y-43180000D01*
G04 #@! TO.N,Net-(J5-Pad2)*
X55880000Y-53340000D02*
X57150000Y-53340000D01*
X57150000Y-53340000D02*
X58420000Y-54610000D01*
X58420000Y-54610000D02*
X58420000Y-57150000D01*
X58420000Y-57150000D02*
X57150000Y-58420000D01*
X57150000Y-58420000D02*
X57030001Y-58420000D01*
X55880000Y-58420000D02*
X57150000Y-58420000D01*
G04 #@! TD*
M02*
