G04 #@! TF.GenerationSoftware,KiCad,Pcbnew,(5.0.2)-1*
G04 #@! TF.CreationDate,2019-04-15T10:47:00+02:00*
G04 #@! TF.ProjectId,irrigation_5Vvalve_4N25_CD74HC4052E_PCB v5.1,69727269-6761-4746-996f-6e5f35567661,rev?*
G04 #@! TF.SameCoordinates,Original*
G04 #@! TF.FileFunction,Legend,Top*
G04 #@! TF.FilePolarity,Positive*
%FSLAX46Y46*%
G04 Gerber Fmt 4.6, Leading zero omitted, Abs format (unit mm)*
G04 Created by KiCad (PCBNEW (5.0.2)-1) date 15-04-2019 10:47:00*
%MOMM*%
%LPD*%
G01*
G04 APERTURE LIST*
%ADD10C,0.150000*%
%ADD11C,0.300000*%
%ADD12C,0.100000*%
%ADD13C,0.120000*%
%ADD14C,0.060000*%
G04 APERTURE END LIST*
D10*
X21888214Y-21231071D02*
X22638214Y-21231071D01*
X21888214Y-21588214D02*
X22388214Y-21588214D01*
X22245357Y-21588214D02*
X22316785Y-21623928D01*
X22352500Y-21659642D01*
X22388214Y-21731071D01*
X22388214Y-21802500D01*
X21888214Y-22052500D02*
X22388214Y-22052500D01*
X22245357Y-22052500D02*
X22316785Y-22088214D01*
X22352500Y-22123928D01*
X22388214Y-22195357D01*
X22388214Y-22266785D01*
X21888214Y-22516785D02*
X22388214Y-22516785D01*
X22638214Y-22516785D02*
X22602500Y-22481071D01*
X22566785Y-22516785D01*
X22602500Y-22552500D01*
X22638214Y-22516785D01*
X22566785Y-22516785D01*
X22388214Y-23195357D02*
X21781071Y-23195357D01*
X21709642Y-23159642D01*
X21673928Y-23123928D01*
X21638214Y-23052500D01*
X21638214Y-22945357D01*
X21673928Y-22873928D01*
X21923928Y-23195357D02*
X21888214Y-23123928D01*
X21888214Y-22981071D01*
X21923928Y-22909642D01*
X21959642Y-22873928D01*
X22031071Y-22838214D01*
X22245357Y-22838214D01*
X22316785Y-22873928D01*
X22352500Y-22909642D01*
X22388214Y-22981071D01*
X22388214Y-23123928D01*
X22352500Y-23195357D01*
X21888214Y-23873928D02*
X22281071Y-23873928D01*
X22352500Y-23838214D01*
X22388214Y-23766785D01*
X22388214Y-23623928D01*
X22352500Y-23552500D01*
X21923928Y-23873928D02*
X21888214Y-23802500D01*
X21888214Y-23623928D01*
X21923928Y-23552500D01*
X21995357Y-23516785D01*
X22066785Y-23516785D01*
X22138214Y-23552500D01*
X22173928Y-23623928D01*
X22173928Y-23802500D01*
X22209642Y-23873928D01*
X22388214Y-24123928D02*
X22388214Y-24409642D01*
X22638214Y-24231071D02*
X21995357Y-24231071D01*
X21923928Y-24266785D01*
X21888214Y-24338214D01*
X21888214Y-24409642D01*
X21888214Y-24659642D02*
X22388214Y-24659642D01*
X22638214Y-24659642D02*
X22602500Y-24623928D01*
X22566785Y-24659642D01*
X22602500Y-24695357D01*
X22638214Y-24659642D01*
X22566785Y-24659642D01*
X21888214Y-25123928D02*
X21923928Y-25052500D01*
X21959642Y-25016785D01*
X22031071Y-24981071D01*
X22245357Y-24981071D01*
X22316785Y-25016785D01*
X22352500Y-25052500D01*
X22388214Y-25123928D01*
X22388214Y-25231071D01*
X22352500Y-25302500D01*
X22316785Y-25338214D01*
X22245357Y-25373928D01*
X22031071Y-25373928D01*
X21959642Y-25338214D01*
X21923928Y-25302500D01*
X21888214Y-25231071D01*
X21888214Y-25123928D01*
X22388214Y-25695357D02*
X21888214Y-25695357D01*
X22316785Y-25695357D02*
X22352500Y-25731071D01*
X22388214Y-25802500D01*
X22388214Y-25909642D01*
X22352500Y-25981071D01*
X22281071Y-26016785D01*
X21888214Y-26016785D01*
X22388214Y-26873928D02*
X21888214Y-27052500D01*
X22388214Y-27231071D01*
X22638214Y-27873928D02*
X22638214Y-27516785D01*
X22281071Y-27481071D01*
X22316785Y-27516785D01*
X22352500Y-27588214D01*
X22352500Y-27766785D01*
X22316785Y-27838214D01*
X22281071Y-27873928D01*
X22209642Y-27909642D01*
X22031071Y-27909642D01*
X21959642Y-27873928D01*
X21923928Y-27838214D01*
X21888214Y-27766785D01*
X21888214Y-27588214D01*
X21923928Y-27516785D01*
X21959642Y-27481071D01*
X20613214Y-21231071D02*
X21363214Y-21231071D01*
X20613214Y-21659642D01*
X21363214Y-21659642D01*
X20613214Y-22016785D02*
X21113214Y-22016785D01*
X21363214Y-22016785D02*
X21327500Y-21981071D01*
X21291785Y-22016785D01*
X21327500Y-22052500D01*
X21363214Y-22016785D01*
X21291785Y-22016785D01*
X20613214Y-22373928D02*
X21363214Y-22373928D01*
X20898928Y-22445357D02*
X20613214Y-22659642D01*
X21113214Y-22659642D02*
X20827500Y-22373928D01*
X20613214Y-23088214D02*
X20648928Y-23016785D01*
X20684642Y-22981071D01*
X20756071Y-22945357D01*
X20970357Y-22945357D01*
X21041785Y-22981071D01*
X21077500Y-23016785D01*
X21113214Y-23088214D01*
X21113214Y-23195357D01*
X21077500Y-23266785D01*
X21041785Y-23302500D01*
X20970357Y-23338214D01*
X20756071Y-23338214D01*
X20684642Y-23302500D01*
X20648928Y-23266785D01*
X20613214Y-23195357D01*
X20613214Y-23088214D01*
X20613214Y-23766785D02*
X20648928Y-23695357D01*
X20720357Y-23659642D01*
X21363214Y-23659642D01*
X20613214Y-24373928D02*
X21006071Y-24373928D01*
X21077500Y-24338214D01*
X21113214Y-24266785D01*
X21113214Y-24123928D01*
X21077500Y-24052500D01*
X20648928Y-24373928D02*
X20613214Y-24302500D01*
X20613214Y-24123928D01*
X20648928Y-24052500D01*
X20720357Y-24016785D01*
X20791785Y-24016785D01*
X20863214Y-24052500D01*
X20898928Y-24123928D01*
X20898928Y-24302500D01*
X20934642Y-24373928D01*
X21113214Y-24731071D02*
X20470357Y-24731071D01*
X20398928Y-24695357D01*
X20363214Y-24623928D01*
X20363214Y-24588214D01*
X21363214Y-24731071D02*
X21327500Y-24695357D01*
X21291785Y-24731071D01*
X21327500Y-24766785D01*
X21363214Y-24731071D01*
X21291785Y-24731071D01*
X20613214Y-25659642D02*
X21363214Y-25659642D01*
X20613214Y-26088214D01*
X21363214Y-26088214D01*
X20613214Y-26552500D02*
X20648928Y-26481071D01*
X20684642Y-26445357D01*
X20756071Y-26409642D01*
X20970357Y-26409642D01*
X21041785Y-26445357D01*
X21077500Y-26481071D01*
X21113214Y-26552500D01*
X21113214Y-26659642D01*
X21077500Y-26731071D01*
X21041785Y-26766785D01*
X20970357Y-26802500D01*
X20756071Y-26802500D01*
X20684642Y-26766785D01*
X20648928Y-26731071D01*
X20613214Y-26659642D01*
X20613214Y-26552500D01*
X20613214Y-27123928D02*
X21363214Y-27123928D01*
X20613214Y-27445357D02*
X21006071Y-27445357D01*
X21077500Y-27409642D01*
X21113214Y-27338214D01*
X21113214Y-27231071D01*
X21077500Y-27159642D01*
X21041785Y-27123928D01*
X20613214Y-27802500D02*
X21113214Y-27802500D01*
X20970357Y-27802500D02*
X21041785Y-27838214D01*
X21077500Y-27873928D01*
X21113214Y-27945357D01*
X21113214Y-28016785D01*
X20898928Y-28266785D02*
X20898928Y-28838214D01*
X20613214Y-29623928D02*
X20970357Y-29373928D01*
X20613214Y-29195357D02*
X21363214Y-29195357D01*
X21363214Y-29481071D01*
X21327500Y-29552500D01*
X21291785Y-29588214D01*
X21220357Y-29623928D01*
X21113214Y-29623928D01*
X21041785Y-29588214D01*
X21006071Y-29552500D01*
X20970357Y-29481071D01*
X20970357Y-29195357D01*
X20613214Y-30266785D02*
X21006071Y-30266785D01*
X21077500Y-30231071D01*
X21113214Y-30159642D01*
X21113214Y-30016785D01*
X21077500Y-29945357D01*
X20648928Y-30266785D02*
X20613214Y-30195357D01*
X20613214Y-30016785D01*
X20648928Y-29945357D01*
X20720357Y-29909642D01*
X20791785Y-29909642D01*
X20863214Y-29945357D01*
X20898928Y-30016785D01*
X20898928Y-30195357D01*
X20934642Y-30266785D01*
X20648928Y-30588214D02*
X20613214Y-30659642D01*
X20613214Y-30802500D01*
X20648928Y-30873928D01*
X20720357Y-30909642D01*
X20756071Y-30909642D01*
X20827500Y-30873928D01*
X20863214Y-30802500D01*
X20863214Y-30695357D01*
X20898928Y-30623928D01*
X20970357Y-30588214D01*
X21006071Y-30588214D01*
X21077500Y-30623928D01*
X21113214Y-30695357D01*
X21113214Y-30802500D01*
X21077500Y-30873928D01*
X20613214Y-31231071D02*
X21113214Y-31231071D01*
X21041785Y-31231071D02*
X21077499Y-31266785D01*
X21113214Y-31338214D01*
X21113214Y-31445357D01*
X21077499Y-31516785D01*
X21006071Y-31552500D01*
X20613214Y-31552500D01*
X21006071Y-31552500D02*
X21077499Y-31588214D01*
X21113214Y-31659642D01*
X21113214Y-31766785D01*
X21077499Y-31838214D01*
X21006071Y-31873928D01*
X20613214Y-31873928D01*
X21113214Y-32552500D02*
X20613214Y-32552500D01*
X21113214Y-32231071D02*
X20720357Y-32231071D01*
X20648928Y-32266785D01*
X20613214Y-32338214D01*
X20613214Y-32445357D01*
X20648928Y-32516785D01*
X20684642Y-32552500D01*
X20648928Y-32873928D02*
X20613214Y-32945357D01*
X20613214Y-33088214D01*
X20648928Y-33159642D01*
X20720357Y-33195357D01*
X20756071Y-33195357D01*
X20827499Y-33159642D01*
X20863214Y-33088214D01*
X20863214Y-32981071D01*
X20898928Y-32909642D01*
X20970357Y-32873928D01*
X21006071Y-32873928D01*
X21077499Y-32909642D01*
X21113214Y-32981071D01*
X21113214Y-33088214D01*
X21077499Y-33159642D01*
X20648928Y-33481071D02*
X20613214Y-33552500D01*
X20613214Y-33695357D01*
X20648928Y-33766785D01*
X20720357Y-33802500D01*
X20756071Y-33802500D01*
X20827499Y-33766785D01*
X20863214Y-33695357D01*
X20863214Y-33588214D01*
X20898928Y-33516785D01*
X20970357Y-33481071D01*
X21006071Y-33481071D01*
X21077499Y-33516785D01*
X21113214Y-33588214D01*
X21113214Y-33695357D01*
X21077499Y-33766785D01*
X20648928Y-34409642D02*
X20613214Y-34338214D01*
X20613214Y-34195357D01*
X20648928Y-34123928D01*
X20720357Y-34088214D01*
X21006071Y-34088214D01*
X21077499Y-34123928D01*
X21113214Y-34195357D01*
X21113214Y-34338214D01*
X21077499Y-34409642D01*
X21006071Y-34445357D01*
X20934642Y-34445357D01*
X20863214Y-34088214D01*
X21113214Y-34766785D02*
X20613214Y-34766785D01*
X21041785Y-34766785D02*
X21077499Y-34802500D01*
X21113214Y-34873928D01*
X21113214Y-34981071D01*
X21077499Y-35052500D01*
X21006071Y-35088214D01*
X20613214Y-35088214D01*
X20648928Y-35481071D02*
X20613214Y-35481071D01*
X20541785Y-35445357D01*
X20506071Y-35409642D01*
X20613214Y-36766785D02*
X20613214Y-36338214D01*
X20613214Y-36552500D02*
X21363214Y-36552500D01*
X21256071Y-36481071D01*
X21184642Y-36409642D01*
X21148928Y-36338214D01*
X20613214Y-37481071D02*
X20613214Y-37052500D01*
X20613214Y-37266785D02*
X21363214Y-37266785D01*
X21256071Y-37195357D01*
X21184642Y-37123928D01*
X21148928Y-37052500D01*
X21398928Y-38338214D02*
X20434642Y-37695357D01*
X21113214Y-38909642D02*
X20613214Y-38909642D01*
X21398928Y-38731071D02*
X20863214Y-38552500D01*
X20863214Y-39016785D01*
X20898928Y-39302500D02*
X20898928Y-39873928D01*
X20613214Y-40623928D02*
X20613214Y-40195357D01*
X20613214Y-40409642D02*
X21363214Y-40409642D01*
X21256071Y-40338214D01*
X21184642Y-40266785D01*
X21148928Y-40195357D01*
X20613214Y-40981071D02*
X20613214Y-41123928D01*
X20648928Y-41195357D01*
X20684642Y-41231071D01*
X20791785Y-41302500D01*
X20934642Y-41338214D01*
X21220357Y-41338214D01*
X21291785Y-41302500D01*
X21327499Y-41266785D01*
X21363214Y-41195357D01*
X21363214Y-41052500D01*
X21327499Y-40981071D01*
X21291785Y-40945357D01*
X21220357Y-40909642D01*
X21041785Y-40909642D01*
X20970357Y-40945357D01*
X20934642Y-40981071D01*
X20898928Y-41052500D01*
X20898928Y-41195357D01*
X20934642Y-41266785D01*
X20970357Y-41302500D01*
X21041785Y-41338214D01*
D11*
X84391428Y-45827142D02*
X83248571Y-45827142D01*
X83820000Y-46398571D02*
X83820000Y-45255714D01*
X89471428Y-45827142D02*
X88328571Y-45827142D01*
X88900000Y-46398571D02*
X88900000Y-45255714D01*
D10*
G04 #@! TO.C,U5*
X63016667Y-44620000D02*
X59510001Y-44620000D01*
X63016667Y-45070000D02*
X63016667Y-44620000D01*
X66523333Y-45070000D02*
X63016667Y-45070000D01*
X66523333Y-44620000D02*
X66523333Y-45070000D01*
X70030000Y-44620000D02*
X66523333Y-44620000D01*
X70029999Y-64600000D02*
X70030000Y-44620000D01*
X59510000Y-64600000D02*
X70029999Y-64600000D01*
X59510001Y-44620000D02*
X59510000Y-64600000D01*
D12*
G04 #@! TO.C,U2*
X103431738Y-62005820D02*
X103431738Y-62658459D01*
X103431738Y-62658459D02*
X105424932Y-62658459D01*
X105424932Y-62658459D02*
X105424932Y-62041098D01*
D13*
G04 #@! TO.C,Opto1*
X63770000Y-44510000D02*
G75*
G02X65770000Y-44510000I1000000J0D01*
G01*
X65770000Y-44510000D02*
X67420000Y-44510000D01*
X67420000Y-44510000D02*
X67420000Y-39310000D01*
X67420000Y-39310000D02*
X62120000Y-39310000D01*
X62120000Y-39310000D02*
X62120000Y-44510000D01*
X62120000Y-44510000D02*
X63770000Y-44510000D01*
G04 #@! TO.C,R1*
X48880000Y-49180000D02*
X52720000Y-49180000D01*
X48880000Y-47340000D02*
X52720000Y-47340000D01*
G04 #@! TO.C,R2*
X48880000Y-44800000D02*
X52720000Y-44800000D01*
X48880000Y-46640000D02*
X52720000Y-46640000D01*
D10*
G04 #@! TO.C,U4*
X37592000Y-22098000D02*
X37592000Y-27686000D01*
X37592000Y-27686000D02*
X32004000Y-27686000D01*
X32004000Y-27686000D02*
X32004000Y-22098000D01*
G04 #@! TD*
D12*
G04 #@! TO.C,U2*
X82130000Y-40640000D02*
G75*
G03X82130000Y-40640000I-850000J0D01*
G01*
X84670000Y-40640000D02*
G75*
G03X84670000Y-40640000I-850000J0D01*
G01*
X87210000Y-40640000D02*
G75*
G03X87210000Y-40640000I-850000J0D01*
G01*
X89750000Y-40640000D02*
G75*
G03X89750000Y-40640000I-850000J0D01*
G01*
X92290000Y-40640000D02*
G75*
G03X92290000Y-40640000I-850000J0D01*
G01*
X94830000Y-40640000D02*
G75*
G03X94830000Y-40640000I-850000J0D01*
G01*
X97370000Y-40640000D02*
G75*
G03X97370000Y-40640000I-850000J0D01*
G01*
X99910000Y-40640000D02*
G75*
G03X99910000Y-40640000I-850000J0D01*
G01*
X99910000Y-63500000D02*
G75*
G03X99910000Y-63500000I-850000J0D01*
G01*
X97370000Y-63500000D02*
G75*
G03X97370000Y-63500000I-850000J0D01*
G01*
X94830000Y-63500000D02*
G75*
G03X94830000Y-63500000I-850000J0D01*
G01*
X92290000Y-63500000D02*
G75*
G03X92290000Y-63500000I-850000J0D01*
G01*
X89750000Y-63500000D02*
G75*
G03X89750000Y-63500000I-850000J0D01*
G01*
X87210000Y-63500000D02*
G75*
G03X87210000Y-63500000I-850000J0D01*
G01*
X84670000Y-63500000D02*
G75*
G03X84670000Y-63500000I-850000J0D01*
G01*
X82130000Y-63500000D02*
G75*
G03X82130000Y-63500000I-850000J0D01*
G01*
G04 #@! TD*
G04 #@! TO.C,bat_18650*
D10*
X59785714Y-74152380D02*
X59785714Y-73152380D01*
X59785714Y-73533333D02*
X59880952Y-73485714D01*
X60071428Y-73485714D01*
X60166666Y-73533333D01*
X60214285Y-73580952D01*
X60261904Y-73676190D01*
X60261904Y-73961904D01*
X60214285Y-74057142D01*
X60166666Y-74104761D01*
X60071428Y-74152380D01*
X59880952Y-74152380D01*
X59785714Y-74104761D01*
X61119047Y-74152380D02*
X61119047Y-73628571D01*
X61071428Y-73533333D01*
X60976190Y-73485714D01*
X60785714Y-73485714D01*
X60690476Y-73533333D01*
X61119047Y-74104761D02*
X61023809Y-74152380D01*
X60785714Y-74152380D01*
X60690476Y-74104761D01*
X60642857Y-74009523D01*
X60642857Y-73914285D01*
X60690476Y-73819047D01*
X60785714Y-73771428D01*
X61023809Y-73771428D01*
X61119047Y-73723809D01*
X61452380Y-73485714D02*
X61833333Y-73485714D01*
X61595238Y-73152380D02*
X61595238Y-74009523D01*
X61642857Y-74104761D01*
X61738095Y-74152380D01*
X61833333Y-74152380D01*
X61928571Y-74247619D02*
X62690476Y-74247619D01*
X63452380Y-74152380D02*
X62880952Y-74152380D01*
X63166666Y-74152380D02*
X63166666Y-73152380D01*
X63071428Y-73295238D01*
X62976190Y-73390476D01*
X62880952Y-73438095D01*
X64023809Y-73580952D02*
X63928571Y-73533333D01*
X63880952Y-73485714D01*
X63833333Y-73390476D01*
X63833333Y-73342857D01*
X63880952Y-73247619D01*
X63928571Y-73200000D01*
X64023809Y-73152380D01*
X64214285Y-73152380D01*
X64309523Y-73200000D01*
X64357142Y-73247619D01*
X64404761Y-73342857D01*
X64404761Y-73390476D01*
X64357142Y-73485714D01*
X64309523Y-73533333D01*
X64214285Y-73580952D01*
X64023809Y-73580952D01*
X63928571Y-73628571D01*
X63880952Y-73676190D01*
X63833333Y-73771428D01*
X63833333Y-73961904D01*
X63880952Y-74057142D01*
X63928571Y-74104761D01*
X64023809Y-74152380D01*
X64214285Y-74152380D01*
X64309523Y-74104761D01*
X64357142Y-74057142D01*
X64404761Y-73961904D01*
X64404761Y-73771428D01*
X64357142Y-73676190D01*
X64309523Y-73628571D01*
X64214285Y-73580952D01*
X65261904Y-73152380D02*
X65071428Y-73152380D01*
X64976190Y-73200000D01*
X64928571Y-73247619D01*
X64833333Y-73390476D01*
X64785714Y-73580952D01*
X64785714Y-73961904D01*
X64833333Y-74057142D01*
X64880952Y-74104761D01*
X64976190Y-74152380D01*
X65166666Y-74152380D01*
X65261904Y-74104761D01*
X65309523Y-74057142D01*
X65357142Y-73961904D01*
X65357142Y-73723809D01*
X65309523Y-73628571D01*
X65261904Y-73580952D01*
X65166666Y-73533333D01*
X64976190Y-73533333D01*
X64880952Y-73580952D01*
X64833333Y-73628571D01*
X64785714Y-73723809D01*
X66261904Y-73152380D02*
X65785714Y-73152380D01*
X65738095Y-73628571D01*
X65785714Y-73580952D01*
X65880952Y-73533333D01*
X66119047Y-73533333D01*
X66214285Y-73580952D01*
X66261904Y-73628571D01*
X66309523Y-73723809D01*
X66309523Y-73961904D01*
X66261904Y-74057142D01*
X66214285Y-74104761D01*
X66119047Y-74152380D01*
X65880952Y-74152380D01*
X65785714Y-74104761D01*
X65738095Y-74057142D01*
X66928571Y-73152380D02*
X67023809Y-73152380D01*
X67119047Y-73200000D01*
X67166666Y-73247619D01*
X67214285Y-73342857D01*
X67261904Y-73533333D01*
X67261904Y-73771428D01*
X67214285Y-73961904D01*
X67166666Y-74057142D01*
X67119047Y-74104761D01*
X67023809Y-74152380D01*
X66928571Y-74152380D01*
X66833333Y-74104761D01*
X66785714Y-74057142D01*
X66738095Y-73961904D01*
X66690476Y-73771428D01*
X66690476Y-73533333D01*
X66738095Y-73342857D01*
X66785714Y-73247619D01*
X66833333Y-73200000D01*
X66928571Y-73152380D01*
G04 #@! TO.C,SW2*
X72794761Y-29273333D02*
X72842380Y-29130476D01*
X72842380Y-28892380D01*
X72794761Y-28797142D01*
X72747142Y-28749523D01*
X72651904Y-28701904D01*
X72556666Y-28701904D01*
X72461428Y-28749523D01*
X72413809Y-28797142D01*
X72366190Y-28892380D01*
X72318571Y-29082857D01*
X72270952Y-29178095D01*
X72223333Y-29225714D01*
X72128095Y-29273333D01*
X72032857Y-29273333D01*
X71937619Y-29225714D01*
X71890000Y-29178095D01*
X71842380Y-29082857D01*
X71842380Y-28844761D01*
X71890000Y-28701904D01*
X71842380Y-28368571D02*
X72842380Y-28130476D01*
X72128095Y-27940000D01*
X72842380Y-27749523D01*
X71842380Y-27511428D01*
X71937619Y-27178095D02*
X71890000Y-27130476D01*
X71842380Y-27035238D01*
X71842380Y-26797142D01*
X71890000Y-26701904D01*
X71937619Y-26654285D01*
X72032857Y-26606666D01*
X72128095Y-26606666D01*
X72270952Y-26654285D01*
X72842380Y-27225714D01*
X72842380Y-26606666D01*
G04 #@! TO.C,U5*
X64008095Y-43072380D02*
X64008095Y-43881904D01*
X64055714Y-43977142D01*
X64103333Y-44024761D01*
X64198571Y-44072380D01*
X64389047Y-44072380D01*
X64484285Y-44024761D01*
X64531904Y-43977142D01*
X64579523Y-43881904D01*
X64579523Y-43072380D01*
X65531904Y-43072380D02*
X65055714Y-43072380D01*
X65008095Y-43548571D01*
X65055714Y-43500952D01*
X65150952Y-43453333D01*
X65389047Y-43453333D01*
X65484285Y-43500952D01*
X65531904Y-43548571D01*
X65579523Y-43643809D01*
X65579523Y-43881904D01*
X65531904Y-43977142D01*
X65484285Y-44024761D01*
X65389047Y-44072380D01*
X65150952Y-44072380D01*
X65055714Y-44024761D01*
X65008095Y-43977142D01*
G04 #@! TO.C,J1*
X79676666Y-27392380D02*
X79676666Y-28106666D01*
X79629047Y-28249523D01*
X79533809Y-28344761D01*
X79390952Y-28392380D01*
X79295714Y-28392380D01*
X80676666Y-28392380D02*
X80105238Y-28392380D01*
X80390952Y-28392380D02*
X80390952Y-27392380D01*
X80295714Y-27535238D01*
X80200476Y-27630476D01*
X80105238Y-27678095D01*
G04 #@! TO.C,U2*
X88098380Y-53339904D02*
X88907904Y-53339904D01*
X89003142Y-53292285D01*
X89050761Y-53244666D01*
X89098380Y-53149428D01*
X89098380Y-52958952D01*
X89050761Y-52863714D01*
X89003142Y-52816095D01*
X88907904Y-52768476D01*
X88098380Y-52768476D01*
X88193619Y-52339904D02*
X88146000Y-52292285D01*
X88098380Y-52197047D01*
X88098380Y-51958952D01*
X88146000Y-51863714D01*
X88193619Y-51816095D01*
X88288857Y-51768476D01*
X88384095Y-51768476D01*
X88526952Y-51816095D01*
X89098380Y-52387523D01*
X89098380Y-51768476D01*
X70572380Y-57093904D02*
X71572380Y-56855809D01*
X70858095Y-56665333D01*
X71572380Y-56474857D01*
X70572380Y-56236761D01*
X71524761Y-55474857D02*
X71572380Y-55570095D01*
X71572380Y-55760571D01*
X71524761Y-55855809D01*
X71429523Y-55903428D01*
X71048571Y-55903428D01*
X70953333Y-55855809D01*
X70905714Y-55760571D01*
X70905714Y-55570095D01*
X70953333Y-55474857D01*
X71048571Y-55427238D01*
X71143809Y-55427238D01*
X71239047Y-55903428D01*
X71572380Y-54998666D02*
X70572380Y-54998666D01*
X71286666Y-54665333D01*
X70572380Y-54332000D01*
X71572380Y-54332000D01*
X71572380Y-53712952D02*
X71524761Y-53808190D01*
X71477142Y-53855809D01*
X71381904Y-53903428D01*
X71096190Y-53903428D01*
X71000952Y-53855809D01*
X70953333Y-53808190D01*
X70905714Y-53712952D01*
X70905714Y-53570095D01*
X70953333Y-53474857D01*
X71000952Y-53427238D01*
X71096190Y-53379619D01*
X71381904Y-53379619D01*
X71477142Y-53427238D01*
X71524761Y-53474857D01*
X71572380Y-53570095D01*
X71572380Y-53712952D01*
X71524761Y-52998666D02*
X71572380Y-52903428D01*
X71572380Y-52712952D01*
X71524761Y-52617714D01*
X71429523Y-52570095D01*
X71381904Y-52570095D01*
X71286666Y-52617714D01*
X71239047Y-52712952D01*
X71239047Y-52855809D01*
X71191428Y-52951047D01*
X71096190Y-52998666D01*
X71048571Y-52998666D01*
X70953333Y-52951047D01*
X70905714Y-52855809D01*
X70905714Y-52712952D01*
X70953333Y-52617714D01*
X71667619Y-52379619D02*
X71667619Y-51617714D01*
X71572380Y-51379619D02*
X70905714Y-51379619D01*
X71000952Y-51379619D02*
X70953333Y-51332000D01*
X70905714Y-51236761D01*
X70905714Y-51093904D01*
X70953333Y-50998666D01*
X71048571Y-50951047D01*
X71572380Y-50951047D01*
X71048571Y-50951047D02*
X70953333Y-50903428D01*
X70905714Y-50808190D01*
X70905714Y-50665333D01*
X70953333Y-50570095D01*
X71048571Y-50522476D01*
X71572380Y-50522476D01*
X71572380Y-50046285D02*
X70905714Y-50046285D01*
X70572380Y-50046285D02*
X70620000Y-50093904D01*
X70667619Y-50046285D01*
X70620000Y-49998666D01*
X70572380Y-50046285D01*
X70667619Y-50046285D01*
X70905714Y-49570095D02*
X71572380Y-49570095D01*
X71000952Y-49570095D02*
X70953333Y-49522476D01*
X70905714Y-49427238D01*
X70905714Y-49284380D01*
X70953333Y-49189142D01*
X71048571Y-49141523D01*
X71572380Y-49141523D01*
X71572380Y-48665333D02*
X70905714Y-48665333D01*
X70572380Y-48665333D02*
X70620000Y-48712952D01*
X70667619Y-48665333D01*
X70620000Y-48617714D01*
X70572380Y-48665333D01*
X70667619Y-48665333D01*
X85558380Y-58020751D02*
X86558380Y-57782656D01*
X85844095Y-57592180D01*
X86558380Y-57401703D01*
X85558380Y-57163608D01*
X86510761Y-56401703D02*
X86558380Y-56496942D01*
X86558380Y-56687418D01*
X86510761Y-56782656D01*
X86415523Y-56830275D01*
X86034571Y-56830275D01*
X85939333Y-56782656D01*
X85891714Y-56687418D01*
X85891714Y-56496942D01*
X85939333Y-56401703D01*
X86034571Y-56354084D01*
X86129809Y-56354084D01*
X86225047Y-56830275D01*
X86558380Y-55925513D02*
X85558380Y-55925513D01*
X86272666Y-55592180D01*
X85558380Y-55258846D01*
X86558380Y-55258846D01*
X86558380Y-54639799D02*
X86510761Y-54735037D01*
X86463142Y-54782656D01*
X86367904Y-54830275D01*
X86082190Y-54830275D01*
X85986952Y-54782656D01*
X85939333Y-54735037D01*
X85891714Y-54639799D01*
X85891714Y-54496942D01*
X85939333Y-54401703D01*
X85986952Y-54354084D01*
X86082190Y-54306465D01*
X86367904Y-54306465D01*
X86463142Y-54354084D01*
X86510761Y-54401703D01*
X86558380Y-54496942D01*
X86558380Y-54639799D01*
X86510761Y-53925513D02*
X86558380Y-53830275D01*
X86558380Y-53639799D01*
X86510761Y-53544561D01*
X86415523Y-53496942D01*
X86367904Y-53496942D01*
X86272666Y-53544561D01*
X86225047Y-53639799D01*
X86225047Y-53782656D01*
X86177428Y-53877894D01*
X86082190Y-53925513D01*
X86034571Y-53925513D01*
X85939333Y-53877894D01*
X85891714Y-53782656D01*
X85891714Y-53639799D01*
X85939333Y-53544561D01*
X86558380Y-52306465D02*
X85558380Y-52306465D01*
X85558380Y-52068370D01*
X85606000Y-51925513D01*
X85701238Y-51830275D01*
X85796476Y-51782656D01*
X85986952Y-51735037D01*
X86129809Y-51735037D01*
X86320285Y-51782656D01*
X86415523Y-51830275D01*
X86510761Y-51925513D01*
X86558380Y-52068370D01*
X86558380Y-52306465D01*
X86558380Y-50782656D02*
X86558380Y-51354084D01*
X86558380Y-51068370D02*
X85558380Y-51068370D01*
X85701238Y-51163608D01*
X85796476Y-51258846D01*
X85844095Y-51354084D01*
X86558380Y-49592180D02*
X85558380Y-49592180D01*
X86272666Y-49258846D01*
X85558380Y-48925513D01*
X86558380Y-48925513D01*
X86558380Y-48449322D02*
X85891714Y-48449322D01*
X85558380Y-48449322D02*
X85606000Y-48496942D01*
X85653619Y-48449322D01*
X85606000Y-48401703D01*
X85558380Y-48449322D01*
X85653619Y-48449322D01*
X85891714Y-47973132D02*
X86558380Y-47973132D01*
X85986952Y-47973132D02*
X85939333Y-47925513D01*
X85891714Y-47830275D01*
X85891714Y-47687418D01*
X85939333Y-47592180D01*
X86034571Y-47544561D01*
X86558380Y-47544561D01*
X86558380Y-47068370D02*
X85891714Y-47068370D01*
X85558380Y-47068370D02*
X85606000Y-47115989D01*
X85653619Y-47068370D01*
X85606000Y-47020751D01*
X85558380Y-47068370D01*
X85653619Y-47068370D01*
G04 #@! TO.C,J3*
X82216666Y-24852380D02*
X82216666Y-25566666D01*
X82169047Y-25709523D01*
X82073809Y-25804761D01*
X81930952Y-25852380D01*
X81835714Y-25852380D01*
X82597619Y-24852380D02*
X83216666Y-24852380D01*
X82883333Y-25233333D01*
X83026190Y-25233333D01*
X83121428Y-25280952D01*
X83169047Y-25328571D01*
X83216666Y-25423809D01*
X83216666Y-25661904D01*
X83169047Y-25757142D01*
X83121428Y-25804761D01*
X83026190Y-25852380D01*
X82740476Y-25852380D01*
X82645238Y-25804761D01*
X82597619Y-25757142D01*
G04 #@! TO.C,Opto1*
X63008095Y-44962380D02*
X63198571Y-44962380D01*
X63293809Y-45010000D01*
X63389047Y-45105238D01*
X63436666Y-45295714D01*
X63436666Y-45629047D01*
X63389047Y-45819523D01*
X63293809Y-45914761D01*
X63198571Y-45962380D01*
X63008095Y-45962380D01*
X62912857Y-45914761D01*
X62817619Y-45819523D01*
X62770000Y-45629047D01*
X62770000Y-45295714D01*
X62817619Y-45105238D01*
X62912857Y-45010000D01*
X63008095Y-44962380D01*
X63865238Y-45295714D02*
X63865238Y-46295714D01*
X63865238Y-45343333D02*
X63960476Y-45295714D01*
X64150952Y-45295714D01*
X64246190Y-45343333D01*
X64293809Y-45390952D01*
X64341428Y-45486190D01*
X64341428Y-45771904D01*
X64293809Y-45867142D01*
X64246190Y-45914761D01*
X64150952Y-45962380D01*
X63960476Y-45962380D01*
X63865238Y-45914761D01*
X64627142Y-45295714D02*
X65008095Y-45295714D01*
X64769999Y-44962380D02*
X64769999Y-45819523D01*
X64817619Y-45914761D01*
X64912857Y-45962380D01*
X65008095Y-45962380D01*
X65484285Y-45962380D02*
X65389047Y-45914761D01*
X65341428Y-45867142D01*
X65293809Y-45771904D01*
X65293809Y-45486190D01*
X65341428Y-45390952D01*
X65389047Y-45343333D01*
X65484285Y-45295714D01*
X65627142Y-45295714D01*
X65722380Y-45343333D01*
X65769999Y-45390952D01*
X65817619Y-45486190D01*
X65817619Y-45771904D01*
X65769999Y-45867142D01*
X65722380Y-45914761D01*
X65627142Y-45962380D01*
X65484285Y-45962380D01*
X66770000Y-45962380D02*
X66198571Y-45962380D01*
X66484285Y-45962380D02*
X66484285Y-44962380D01*
X66389047Y-45105238D01*
X66293809Y-45200476D01*
X66198571Y-45248095D01*
X62579523Y-38762380D02*
X62579523Y-37762380D01*
X62960476Y-37762380D01*
X63055714Y-37810000D01*
X63103333Y-37857619D01*
X63150952Y-37952857D01*
X63150952Y-38095714D01*
X63103333Y-38190952D01*
X63055714Y-38238571D01*
X62960476Y-38286190D01*
X62579523Y-38286190D01*
X64150952Y-38667142D02*
X64103333Y-38714761D01*
X63960476Y-38762380D01*
X63865238Y-38762380D01*
X63722380Y-38714761D01*
X63627142Y-38619523D01*
X63579523Y-38524285D01*
X63531904Y-38333809D01*
X63531904Y-38190952D01*
X63579523Y-38000476D01*
X63627142Y-37905238D01*
X63722380Y-37810000D01*
X63865238Y-37762380D01*
X63960476Y-37762380D01*
X64103333Y-37810000D01*
X64150952Y-37857619D01*
X64722380Y-38190952D02*
X64627142Y-38143333D01*
X64579523Y-38095714D01*
X64531904Y-38000476D01*
X64531904Y-37952857D01*
X64579523Y-37857619D01*
X64627142Y-37810000D01*
X64722380Y-37762380D01*
X64912857Y-37762380D01*
X65008095Y-37810000D01*
X65055714Y-37857619D01*
X65103333Y-37952857D01*
X65103333Y-38000476D01*
X65055714Y-38095714D01*
X65008095Y-38143333D01*
X64912857Y-38190952D01*
X64722380Y-38190952D01*
X64627142Y-38238571D01*
X64579523Y-38286190D01*
X64531904Y-38381428D01*
X64531904Y-38571904D01*
X64579523Y-38667142D01*
X64627142Y-38714761D01*
X64722380Y-38762380D01*
X64912857Y-38762380D01*
X65008095Y-38714761D01*
X65055714Y-38667142D01*
X65103333Y-38571904D01*
X65103333Y-38381428D01*
X65055714Y-38286190D01*
X65008095Y-38238571D01*
X64912857Y-38190952D01*
X66055714Y-38762380D02*
X65484285Y-38762380D01*
X65770000Y-38762380D02*
X65770000Y-37762380D01*
X65674761Y-37905238D01*
X65579523Y-38000476D01*
X65484285Y-38048095D01*
X66389047Y-37762380D02*
X67055714Y-37762380D01*
X66627142Y-38762380D01*
G04 #@! TO.C,R1*
X50633333Y-46792380D02*
X50300000Y-46316190D01*
X50061904Y-46792380D02*
X50061904Y-45792380D01*
X50442857Y-45792380D01*
X50538095Y-45840000D01*
X50585714Y-45887619D01*
X50633333Y-45982857D01*
X50633333Y-46125714D01*
X50585714Y-46220952D01*
X50538095Y-46268571D01*
X50442857Y-46316190D01*
X50061904Y-46316190D01*
X51585714Y-46792380D02*
X51014285Y-46792380D01*
X51300000Y-46792380D02*
X51300000Y-45792380D01*
X51204761Y-45935238D01*
X51109523Y-46030476D01*
X51014285Y-46078095D01*
G04 #@! TO.C,R2*
X50633333Y-44252380D02*
X50300000Y-43776190D01*
X50061904Y-44252380D02*
X50061904Y-43252380D01*
X50442857Y-43252380D01*
X50538095Y-43300000D01*
X50585714Y-43347619D01*
X50633333Y-43442857D01*
X50633333Y-43585714D01*
X50585714Y-43680952D01*
X50538095Y-43728571D01*
X50442857Y-43776190D01*
X50061904Y-43776190D01*
X51014285Y-43347619D02*
X51061904Y-43300000D01*
X51157142Y-43252380D01*
X51395238Y-43252380D01*
X51490476Y-43300000D01*
X51538095Y-43347619D01*
X51585714Y-43442857D01*
X51585714Y-43538095D01*
X51538095Y-43680952D01*
X50966666Y-44252380D01*
X51585714Y-44252380D01*
G04 #@! TO.C,SS1*
X42314761Y-58388095D02*
X42362380Y-58245238D01*
X42362380Y-58007142D01*
X42314761Y-57911904D01*
X42267142Y-57864285D01*
X42171904Y-57816666D01*
X42076666Y-57816666D01*
X41981428Y-57864285D01*
X41933809Y-57911904D01*
X41886190Y-58007142D01*
X41838571Y-58197619D01*
X41790952Y-58292857D01*
X41743333Y-58340476D01*
X41648095Y-58388095D01*
X41552857Y-58388095D01*
X41457619Y-58340476D01*
X41410000Y-58292857D01*
X41362380Y-58197619D01*
X41362380Y-57959523D01*
X41410000Y-57816666D01*
X42314761Y-57435714D02*
X42362380Y-57292857D01*
X42362380Y-57054761D01*
X42314761Y-56959523D01*
X42267142Y-56911904D01*
X42171904Y-56864285D01*
X42076666Y-56864285D01*
X41981428Y-56911904D01*
X41933809Y-56959523D01*
X41886190Y-57054761D01*
X41838571Y-57245238D01*
X41790952Y-57340476D01*
X41743333Y-57388095D01*
X41648095Y-57435714D01*
X41552857Y-57435714D01*
X41457619Y-57388095D01*
X41410000Y-57340476D01*
X41362380Y-57245238D01*
X41362380Y-57007142D01*
X41410000Y-56864285D01*
X42362380Y-55911904D02*
X42362380Y-56483333D01*
X42362380Y-56197619D02*
X41362380Y-56197619D01*
X41505238Y-56292857D01*
X41600476Y-56388095D01*
X41648095Y-56483333D01*
G04 #@! TO.C,SW1*
X78676666Y-38504761D02*
X78819523Y-38552380D01*
X79057619Y-38552380D01*
X79152857Y-38504761D01*
X79200476Y-38457142D01*
X79248095Y-38361904D01*
X79248095Y-38266666D01*
X79200476Y-38171428D01*
X79152857Y-38123809D01*
X79057619Y-38076190D01*
X78867142Y-38028571D01*
X78771904Y-37980952D01*
X78724285Y-37933333D01*
X78676666Y-37838095D01*
X78676666Y-37742857D01*
X78724285Y-37647619D01*
X78771904Y-37600000D01*
X78867142Y-37552380D01*
X79105238Y-37552380D01*
X79248095Y-37600000D01*
X79581428Y-37552380D02*
X79819523Y-38552380D01*
X80010000Y-37838095D01*
X80200476Y-38552380D01*
X80438571Y-37552380D01*
X81343333Y-38552380D02*
X80771904Y-38552380D01*
X81057619Y-38552380D02*
X81057619Y-37552380D01*
X80962380Y-37695238D01*
X80867142Y-37790476D01*
X80771904Y-37838095D01*
G04 #@! TO.C,J4*
X32472380Y-47323333D02*
X33186666Y-47323333D01*
X33329523Y-47370952D01*
X33424761Y-47466190D01*
X33472380Y-47609047D01*
X33472380Y-47704285D01*
X32805714Y-46418571D02*
X33472380Y-46418571D01*
X32424761Y-46656666D02*
X33139047Y-46894761D01*
X33139047Y-46275714D01*
G04 #@! TO.C,J5*
X28876666Y-60412380D02*
X28876666Y-61126666D01*
X28829047Y-61269523D01*
X28733809Y-61364761D01*
X28590952Y-61412380D01*
X28495714Y-61412380D01*
X29829047Y-60412380D02*
X29352857Y-60412380D01*
X29305238Y-60888571D01*
X29352857Y-60840952D01*
X29448095Y-60793333D01*
X29686190Y-60793333D01*
X29781428Y-60840952D01*
X29829047Y-60888571D01*
X29876666Y-60983809D01*
X29876666Y-61221904D01*
X29829047Y-61317142D01*
X29781428Y-61364761D01*
X29686190Y-61412380D01*
X29448095Y-61412380D01*
X29352857Y-61364761D01*
X29305238Y-61317142D01*
G04 #@! TO.C,U4*
X48982380Y-38099904D02*
X49791904Y-38099904D01*
X49887142Y-38052285D01*
X49934761Y-38004666D01*
X49982380Y-37909428D01*
X49982380Y-37718952D01*
X49934761Y-37623714D01*
X49887142Y-37576095D01*
X49791904Y-37528476D01*
X48982380Y-37528476D01*
X49315714Y-36623714D02*
X49982380Y-36623714D01*
X48934761Y-36861809D02*
X49649047Y-37099904D01*
X49649047Y-36480857D01*
G04 #@! TO.C,Q1*
X63404761Y-42917619D02*
X63309523Y-42870000D01*
X63214285Y-42774761D01*
X63071428Y-42631904D01*
X62976190Y-42584285D01*
X62880952Y-42584285D01*
X62928571Y-42822380D02*
X62833333Y-42774761D01*
X62738095Y-42679523D01*
X62690476Y-42489047D01*
X62690476Y-42155714D01*
X62738095Y-41965238D01*
X62833333Y-41870000D01*
X62928571Y-41822380D01*
X63119047Y-41822380D01*
X63214285Y-41870000D01*
X63309523Y-41965238D01*
X63357142Y-42155714D01*
X63357142Y-42489047D01*
X63309523Y-42679523D01*
X63214285Y-42774761D01*
X63119047Y-42822380D01*
X62928571Y-42822380D01*
X64309523Y-42822380D02*
X63738095Y-42822380D01*
X64023809Y-42822380D02*
X64023809Y-41822380D01*
X63928571Y-41965238D01*
X63833333Y-42060476D01*
X63738095Y-42108095D01*
D14*
X61615047Y-20292190D02*
X61615047Y-19792190D01*
X61829333Y-20292190D02*
X61829333Y-20030285D01*
X61805523Y-19982666D01*
X61757904Y-19958857D01*
X61686476Y-19958857D01*
X61638857Y-19982666D01*
X61615047Y-20006476D01*
X62257904Y-20268380D02*
X62210285Y-20292190D01*
X62115047Y-20292190D01*
X62067428Y-20268380D01*
X62043619Y-20220761D01*
X62043619Y-20030285D01*
X62067428Y-19982666D01*
X62115047Y-19958857D01*
X62210285Y-19958857D01*
X62257904Y-19982666D01*
X62281714Y-20030285D01*
X62281714Y-20077904D01*
X62043619Y-20125523D01*
X62710285Y-20292190D02*
X62710285Y-20030285D01*
X62686476Y-19982666D01*
X62638857Y-19958857D01*
X62543619Y-19958857D01*
X62496000Y-19982666D01*
X62710285Y-20268380D02*
X62662666Y-20292190D01*
X62543619Y-20292190D01*
X62496000Y-20268380D01*
X62472190Y-20220761D01*
X62472190Y-20173142D01*
X62496000Y-20125523D01*
X62543619Y-20101714D01*
X62662666Y-20101714D01*
X62710285Y-20077904D01*
X62876952Y-19958857D02*
X63067428Y-19958857D01*
X62948380Y-19792190D02*
X62948380Y-20220761D01*
X62972190Y-20268380D01*
X63019809Y-20292190D01*
X63067428Y-20292190D01*
X63591238Y-20268380D02*
X63638857Y-20292190D01*
X63734095Y-20292190D01*
X63781714Y-20268380D01*
X63805523Y-20220761D01*
X63805523Y-20196952D01*
X63781714Y-20149333D01*
X63734095Y-20125523D01*
X63662666Y-20125523D01*
X63615047Y-20101714D01*
X63591238Y-20054095D01*
X63591238Y-20030285D01*
X63615047Y-19982666D01*
X63662666Y-19958857D01*
X63734095Y-19958857D01*
X63781714Y-19982666D01*
X64019809Y-20292190D02*
X64019809Y-19958857D01*
X64019809Y-19792190D02*
X63996000Y-19816000D01*
X64019809Y-19839809D01*
X64043619Y-19816000D01*
X64019809Y-19792190D01*
X64019809Y-19839809D01*
X64257904Y-19958857D02*
X64257904Y-20292190D01*
X64257904Y-20006476D02*
X64281714Y-19982666D01*
X64329333Y-19958857D01*
X64400761Y-19958857D01*
X64448380Y-19982666D01*
X64472190Y-20030285D01*
X64472190Y-20292190D01*
X64710285Y-20292190D02*
X64710285Y-19792190D01*
X64757904Y-20101714D02*
X64900761Y-20292190D01*
X64900761Y-19958857D02*
X64710285Y-20149333D01*
G04 #@! TD*
M02*
