G04 #@! TF.GenerationSoftware,KiCad,Pcbnew,(5.0.2)-1*
G04 #@! TF.CreationDate,2019-04-15T10:47:00+02:00*
G04 #@! TF.ProjectId,irrigation_5Vvalve_4N25_CD74HC4052E_PCB v5.1,69727269-6761-4746-996f-6e5f35567661,rev?*
G04 #@! TF.SameCoordinates,Original*
G04 #@! TF.FileFunction,Soldermask,Top*
G04 #@! TF.FilePolarity,Negative*
%FSLAX46Y46*%
G04 Gerber Fmt 4.6, Leading zero omitted, Abs format (unit mm)*
G04 Created by KiCad (PCBNEW (5.0.2)-1) date 15-04-2019 10:47:00*
%MOMM*%
%LPD*%
G01*
G04 APERTURE LIST*
%ADD10C,0.100000*%
G04 APERTURE END LIST*
D10*
G36*
X97074209Y-74373016D02*
X97419986Y-74516241D01*
X97731182Y-74724176D01*
X97995824Y-74988818D01*
X98203759Y-75300014D01*
X98346984Y-75645791D01*
X98420000Y-76012865D01*
X98420000Y-76387135D01*
X98346984Y-76754209D01*
X98203759Y-77099986D01*
X97995824Y-77411182D01*
X97731182Y-77675824D01*
X97419986Y-77883759D01*
X97074209Y-78026984D01*
X96707135Y-78100000D01*
X96332865Y-78100000D01*
X95965791Y-78026984D01*
X95620014Y-77883759D01*
X95308818Y-77675824D01*
X95044176Y-77411182D01*
X94836241Y-77099986D01*
X94693016Y-76754209D01*
X94620000Y-76387135D01*
X94620000Y-76012865D01*
X94693016Y-75645791D01*
X94836241Y-75300014D01*
X95044176Y-74988818D01*
X95308818Y-74724176D01*
X95620014Y-74516241D01*
X95965791Y-74373016D01*
X96332865Y-74300000D01*
X96707135Y-74300000D01*
X97074209Y-74373016D01*
X97074209Y-74373016D01*
G37*
G36*
X30400000Y-78100000D02*
X26600000Y-78100000D01*
X26600000Y-74300000D01*
X30400000Y-74300000D01*
X30400000Y-78100000D01*
X30400000Y-78100000D01*
G37*
G36*
X81405888Y-62454470D02*
X81586274Y-62490350D01*
X81777362Y-62569502D01*
X81949336Y-62684411D01*
X82095589Y-62830664D01*
X82210498Y-63002638D01*
X82289650Y-63193726D01*
X82330000Y-63396584D01*
X82330000Y-63603416D01*
X82289650Y-63806274D01*
X82210498Y-63997362D01*
X82095589Y-64169336D01*
X81949336Y-64315589D01*
X81777362Y-64430498D01*
X81586274Y-64509650D01*
X81405888Y-64545530D01*
X81383417Y-64550000D01*
X81176583Y-64550000D01*
X81154112Y-64545530D01*
X80973726Y-64509650D01*
X80782638Y-64430498D01*
X80610664Y-64315589D01*
X80464411Y-64169336D01*
X80349502Y-63997362D01*
X80270350Y-63806274D01*
X80230000Y-63603416D01*
X80230000Y-63396584D01*
X80270350Y-63193726D01*
X80349502Y-63002638D01*
X80464411Y-62830664D01*
X80610664Y-62684411D01*
X80782638Y-62569502D01*
X80973726Y-62490350D01*
X81154112Y-62454470D01*
X81176583Y-62450000D01*
X81383417Y-62450000D01*
X81405888Y-62454470D01*
X81405888Y-62454470D01*
G37*
G36*
X83945888Y-62454470D02*
X84126274Y-62490350D01*
X84317362Y-62569502D01*
X84489336Y-62684411D01*
X84635589Y-62830664D01*
X84750498Y-63002638D01*
X84829650Y-63193726D01*
X84870000Y-63396584D01*
X84870000Y-63603416D01*
X84829650Y-63806274D01*
X84750498Y-63997362D01*
X84635589Y-64169336D01*
X84489336Y-64315589D01*
X84317362Y-64430498D01*
X84126274Y-64509650D01*
X83945888Y-64545530D01*
X83923417Y-64550000D01*
X83716583Y-64550000D01*
X83694112Y-64545530D01*
X83513726Y-64509650D01*
X83322638Y-64430498D01*
X83150664Y-64315589D01*
X83004411Y-64169336D01*
X82889502Y-63997362D01*
X82810350Y-63806274D01*
X82770000Y-63603416D01*
X82770000Y-63396584D01*
X82810350Y-63193726D01*
X82889502Y-63002638D01*
X83004411Y-62830664D01*
X83150664Y-62684411D01*
X83322638Y-62569502D01*
X83513726Y-62490350D01*
X83694112Y-62454470D01*
X83716583Y-62450000D01*
X83923417Y-62450000D01*
X83945888Y-62454470D01*
X83945888Y-62454470D01*
G37*
G36*
X86485888Y-62454470D02*
X86666274Y-62490350D01*
X86857362Y-62569502D01*
X87029336Y-62684411D01*
X87175589Y-62830664D01*
X87290498Y-63002638D01*
X87369650Y-63193726D01*
X87410000Y-63396584D01*
X87410000Y-63603416D01*
X87369650Y-63806274D01*
X87290498Y-63997362D01*
X87175589Y-64169336D01*
X87029336Y-64315589D01*
X86857362Y-64430498D01*
X86666274Y-64509650D01*
X86485888Y-64545530D01*
X86463417Y-64550000D01*
X86256583Y-64550000D01*
X86234112Y-64545530D01*
X86053726Y-64509650D01*
X85862638Y-64430498D01*
X85690664Y-64315589D01*
X85544411Y-64169336D01*
X85429502Y-63997362D01*
X85350350Y-63806274D01*
X85310000Y-63603416D01*
X85310000Y-63396584D01*
X85350350Y-63193726D01*
X85429502Y-63002638D01*
X85544411Y-62830664D01*
X85690664Y-62684411D01*
X85862638Y-62569502D01*
X86053726Y-62490350D01*
X86234112Y-62454470D01*
X86256583Y-62450000D01*
X86463417Y-62450000D01*
X86485888Y-62454470D01*
X86485888Y-62454470D01*
G37*
G36*
X89025888Y-62454470D02*
X89206274Y-62490350D01*
X89397362Y-62569502D01*
X89569336Y-62684411D01*
X89715589Y-62830664D01*
X89830498Y-63002638D01*
X89909650Y-63193726D01*
X89950000Y-63396584D01*
X89950000Y-63603416D01*
X89909650Y-63806274D01*
X89830498Y-63997362D01*
X89715589Y-64169336D01*
X89569336Y-64315589D01*
X89397362Y-64430498D01*
X89206274Y-64509650D01*
X89025888Y-64545530D01*
X89003417Y-64550000D01*
X88796583Y-64550000D01*
X88774112Y-64545530D01*
X88593726Y-64509650D01*
X88402638Y-64430498D01*
X88230664Y-64315589D01*
X88084411Y-64169336D01*
X87969502Y-63997362D01*
X87890350Y-63806274D01*
X87850000Y-63603416D01*
X87850000Y-63396584D01*
X87890350Y-63193726D01*
X87969502Y-63002638D01*
X88084411Y-62830664D01*
X88230664Y-62684411D01*
X88402638Y-62569502D01*
X88593726Y-62490350D01*
X88774112Y-62454470D01*
X88796583Y-62450000D01*
X89003417Y-62450000D01*
X89025888Y-62454470D01*
X89025888Y-62454470D01*
G37*
G36*
X91565888Y-62454470D02*
X91746274Y-62490350D01*
X91937362Y-62569502D01*
X92109336Y-62684411D01*
X92255589Y-62830664D01*
X92370498Y-63002638D01*
X92449650Y-63193726D01*
X92490000Y-63396584D01*
X92490000Y-63603416D01*
X92449650Y-63806274D01*
X92370498Y-63997362D01*
X92255589Y-64169336D01*
X92109336Y-64315589D01*
X91937362Y-64430498D01*
X91746274Y-64509650D01*
X91565888Y-64545530D01*
X91543417Y-64550000D01*
X91336583Y-64550000D01*
X91314112Y-64545530D01*
X91133726Y-64509650D01*
X90942638Y-64430498D01*
X90770664Y-64315589D01*
X90624411Y-64169336D01*
X90509502Y-63997362D01*
X90430350Y-63806274D01*
X90390000Y-63603416D01*
X90390000Y-63396584D01*
X90430350Y-63193726D01*
X90509502Y-63002638D01*
X90624411Y-62830664D01*
X90770664Y-62684411D01*
X90942638Y-62569502D01*
X91133726Y-62490350D01*
X91314112Y-62454470D01*
X91336583Y-62450000D01*
X91543417Y-62450000D01*
X91565888Y-62454470D01*
X91565888Y-62454470D01*
G37*
G36*
X96645888Y-62454470D02*
X96826274Y-62490350D01*
X97017362Y-62569502D01*
X97189336Y-62684411D01*
X97335589Y-62830664D01*
X97450498Y-63002638D01*
X97529650Y-63193726D01*
X97570000Y-63396584D01*
X97570000Y-63603416D01*
X97529650Y-63806274D01*
X97450498Y-63997362D01*
X97335589Y-64169336D01*
X97189336Y-64315589D01*
X97017362Y-64430498D01*
X96826274Y-64509650D01*
X96645888Y-64545530D01*
X96623417Y-64550000D01*
X96416583Y-64550000D01*
X96394112Y-64545530D01*
X96213726Y-64509650D01*
X96022638Y-64430498D01*
X95850664Y-64315589D01*
X95704411Y-64169336D01*
X95589502Y-63997362D01*
X95510350Y-63806274D01*
X95470000Y-63603416D01*
X95470000Y-63396584D01*
X95510350Y-63193726D01*
X95589502Y-63002638D01*
X95704411Y-62830664D01*
X95850664Y-62684411D01*
X96022638Y-62569502D01*
X96213726Y-62490350D01*
X96394112Y-62454470D01*
X96416583Y-62450000D01*
X96623417Y-62450000D01*
X96645888Y-62454470D01*
X96645888Y-62454470D01*
G37*
G36*
X99185888Y-62454470D02*
X99366274Y-62490350D01*
X99557362Y-62569502D01*
X99729336Y-62684411D01*
X99875589Y-62830664D01*
X99990498Y-63002638D01*
X100069650Y-63193726D01*
X100110000Y-63396584D01*
X100110000Y-63603416D01*
X100069650Y-63806274D01*
X99990498Y-63997362D01*
X99875589Y-64169336D01*
X99729336Y-64315589D01*
X99557362Y-64430498D01*
X99366274Y-64509650D01*
X99185888Y-64545530D01*
X99163417Y-64550000D01*
X98956583Y-64550000D01*
X98934112Y-64545530D01*
X98753726Y-64509650D01*
X98562638Y-64430498D01*
X98390664Y-64315589D01*
X98244411Y-64169336D01*
X98129502Y-63997362D01*
X98050350Y-63806274D01*
X98010000Y-63603416D01*
X98010000Y-63396584D01*
X98050350Y-63193726D01*
X98129502Y-63002638D01*
X98244411Y-62830664D01*
X98390664Y-62684411D01*
X98562638Y-62569502D01*
X98753726Y-62490350D01*
X98934112Y-62454470D01*
X98956583Y-62450000D01*
X99163417Y-62450000D01*
X99185888Y-62454470D01*
X99185888Y-62454470D01*
G37*
G36*
X94105888Y-62454470D02*
X94286274Y-62490350D01*
X94477362Y-62569502D01*
X94649336Y-62684411D01*
X94795589Y-62830664D01*
X94910498Y-63002638D01*
X94989650Y-63193726D01*
X95030000Y-63396584D01*
X95030000Y-63603416D01*
X94989650Y-63806274D01*
X94910498Y-63997362D01*
X94795589Y-64169336D01*
X94649336Y-64315589D01*
X94477362Y-64430498D01*
X94286274Y-64509650D01*
X94105888Y-64545530D01*
X94083417Y-64550000D01*
X93876583Y-64550000D01*
X93854112Y-64545530D01*
X93673726Y-64509650D01*
X93482638Y-64430498D01*
X93310664Y-64315589D01*
X93164411Y-64169336D01*
X93049502Y-63997362D01*
X92970350Y-63806274D01*
X92930000Y-63603416D01*
X92930000Y-63396584D01*
X92970350Y-63193726D01*
X93049502Y-63002638D01*
X93164411Y-62830664D01*
X93310664Y-62684411D01*
X93482638Y-62569502D01*
X93673726Y-62490350D01*
X93854112Y-62454470D01*
X93876583Y-62450000D01*
X94083417Y-62450000D01*
X94105888Y-62454470D01*
X94105888Y-62454470D01*
G37*
G36*
X61557027Y-62760852D02*
X61698401Y-62803738D01*
X61828694Y-62873380D01*
X61942896Y-62967104D01*
X62036620Y-63081306D01*
X62106262Y-63211599D01*
X62149148Y-63352973D01*
X62163628Y-63500000D01*
X62149148Y-63647027D01*
X62106262Y-63788401D01*
X62036620Y-63918694D01*
X61942896Y-64032896D01*
X61828694Y-64126620D01*
X61698401Y-64196262D01*
X61557027Y-64239148D01*
X61446839Y-64250000D01*
X60573161Y-64250000D01*
X60462973Y-64239148D01*
X60321599Y-64196262D01*
X60191306Y-64126620D01*
X60077104Y-64032896D01*
X59983380Y-63918694D01*
X59913738Y-63788401D01*
X59870852Y-63647027D01*
X59856372Y-63500000D01*
X59870852Y-63352973D01*
X59913738Y-63211599D01*
X59983380Y-63081306D01*
X60077104Y-62967104D01*
X60191306Y-62873380D01*
X60321599Y-62803738D01*
X60462973Y-62760852D01*
X60573161Y-62750000D01*
X61446839Y-62750000D01*
X61557027Y-62760852D01*
X61557027Y-62760852D01*
G37*
G36*
X69077027Y-62760852D02*
X69218401Y-62803738D01*
X69348694Y-62873380D01*
X69462896Y-62967104D01*
X69556620Y-63081306D01*
X69626262Y-63211599D01*
X69669148Y-63352973D01*
X69683628Y-63500000D01*
X69669148Y-63647027D01*
X69626262Y-63788401D01*
X69556620Y-63918694D01*
X69462896Y-64032896D01*
X69348694Y-64126620D01*
X69218401Y-64196262D01*
X69077027Y-64239148D01*
X68966839Y-64250000D01*
X68093161Y-64250000D01*
X67982973Y-64239148D01*
X67841599Y-64196262D01*
X67711306Y-64126620D01*
X67597104Y-64032896D01*
X67503380Y-63918694D01*
X67433738Y-63788401D01*
X67390852Y-63647027D01*
X67376372Y-63500000D01*
X67390852Y-63352973D01*
X67433738Y-63211599D01*
X67503380Y-63081306D01*
X67597104Y-62967104D01*
X67711306Y-62873380D01*
X67841599Y-62803738D01*
X67982973Y-62760852D01*
X68093161Y-62750000D01*
X68966839Y-62750000D01*
X69077027Y-62760852D01*
X69077027Y-62760852D01*
G37*
G36*
X56055770Y-59975372D02*
X56171689Y-59998429D01*
X56353678Y-60073811D01*
X56517463Y-60183249D01*
X56656751Y-60322537D01*
X56766189Y-60486322D01*
X56841571Y-60668311D01*
X56880000Y-60861509D01*
X56880000Y-61058491D01*
X56841571Y-61251689D01*
X56766189Y-61433678D01*
X56656751Y-61597463D01*
X56517463Y-61736751D01*
X56353678Y-61846189D01*
X56171689Y-61921571D01*
X56055770Y-61944628D01*
X55978493Y-61960000D01*
X55781507Y-61960000D01*
X55704230Y-61944628D01*
X55588311Y-61921571D01*
X55406322Y-61846189D01*
X55242537Y-61736751D01*
X55103249Y-61597463D01*
X54993811Y-61433678D01*
X54918429Y-61251689D01*
X54880000Y-61058491D01*
X54880000Y-60861509D01*
X54918429Y-60668311D01*
X54993811Y-60486322D01*
X55103249Y-60322537D01*
X55242537Y-60183249D01*
X55406322Y-60073811D01*
X55588311Y-59998429D01*
X55704230Y-59975372D01*
X55781507Y-59960000D01*
X55978493Y-59960000D01*
X56055770Y-59975372D01*
X56055770Y-59975372D01*
G37*
G36*
X61557027Y-60220852D02*
X61698401Y-60263738D01*
X61828694Y-60333380D01*
X61942896Y-60427104D01*
X62036620Y-60541306D01*
X62106262Y-60671599D01*
X62149148Y-60812973D01*
X62163628Y-60960000D01*
X62149148Y-61107027D01*
X62106262Y-61248401D01*
X62036620Y-61378694D01*
X61942896Y-61492896D01*
X61828694Y-61586620D01*
X61698401Y-61656262D01*
X61557027Y-61699148D01*
X61446839Y-61710000D01*
X60573161Y-61710000D01*
X60462973Y-61699148D01*
X60321599Y-61656262D01*
X60191306Y-61586620D01*
X60077104Y-61492896D01*
X59983380Y-61378694D01*
X59913738Y-61248401D01*
X59870852Y-61107027D01*
X59856372Y-60960000D01*
X59870852Y-60812973D01*
X59913738Y-60671599D01*
X59983380Y-60541306D01*
X60077104Y-60427104D01*
X60191306Y-60333380D01*
X60321599Y-60263738D01*
X60462973Y-60220852D01*
X60573161Y-60210000D01*
X61446839Y-60210000D01*
X61557027Y-60220852D01*
X61557027Y-60220852D01*
G37*
G36*
X69077027Y-60220852D02*
X69218401Y-60263738D01*
X69348694Y-60333380D01*
X69462896Y-60427104D01*
X69556620Y-60541306D01*
X69626262Y-60671599D01*
X69669148Y-60812973D01*
X69683628Y-60960000D01*
X69669148Y-61107027D01*
X69626262Y-61248401D01*
X69556620Y-61378694D01*
X69462896Y-61492896D01*
X69348694Y-61586620D01*
X69218401Y-61656262D01*
X69077027Y-61699148D01*
X68966839Y-61710000D01*
X68093161Y-61710000D01*
X67982973Y-61699148D01*
X67841599Y-61656262D01*
X67711306Y-61586620D01*
X67597104Y-61492896D01*
X67503380Y-61378694D01*
X67433738Y-61248401D01*
X67390852Y-61107027D01*
X67376372Y-60960000D01*
X67390852Y-60812973D01*
X67433738Y-60671599D01*
X67503380Y-60541306D01*
X67597104Y-60427104D01*
X67711306Y-60333380D01*
X67841599Y-60263738D01*
X67982973Y-60220852D01*
X68093161Y-60210000D01*
X68966839Y-60210000D01*
X69077027Y-60220852D01*
X69077027Y-60220852D01*
G37*
G36*
X56055770Y-57435372D02*
X56171689Y-57458429D01*
X56353678Y-57533811D01*
X56517463Y-57643249D01*
X56656751Y-57782537D01*
X56766189Y-57946322D01*
X56841571Y-58128311D01*
X56880000Y-58321509D01*
X56880000Y-58518491D01*
X56841571Y-58711689D01*
X56766189Y-58893678D01*
X56656751Y-59057463D01*
X56517463Y-59196751D01*
X56353678Y-59306189D01*
X56171689Y-59381571D01*
X56055770Y-59404628D01*
X55978493Y-59420000D01*
X55781507Y-59420000D01*
X55704230Y-59404628D01*
X55588311Y-59381571D01*
X55406322Y-59306189D01*
X55242537Y-59196751D01*
X55103249Y-59057463D01*
X54993811Y-58893678D01*
X54918429Y-58711689D01*
X54880000Y-58518491D01*
X54880000Y-58321509D01*
X54918429Y-58128311D01*
X54993811Y-57946322D01*
X55103249Y-57782537D01*
X55242537Y-57643249D01*
X55406322Y-57533811D01*
X55588311Y-57458429D01*
X55704230Y-57435372D01*
X55781507Y-57420000D01*
X55978493Y-57420000D01*
X56055770Y-57435372D01*
X56055770Y-57435372D01*
G37*
G36*
X26845770Y-57435372D02*
X26961689Y-57458429D01*
X27143678Y-57533811D01*
X27307463Y-57643249D01*
X27446751Y-57782537D01*
X27556189Y-57946322D01*
X27631571Y-58128311D01*
X27670000Y-58321509D01*
X27670000Y-58518491D01*
X27631571Y-58711689D01*
X27556189Y-58893678D01*
X27446751Y-59057463D01*
X27307463Y-59196751D01*
X27143678Y-59306189D01*
X26961689Y-59381571D01*
X26845770Y-59404628D01*
X26768493Y-59420000D01*
X26571507Y-59420000D01*
X26494230Y-59404628D01*
X26378311Y-59381571D01*
X26196322Y-59306189D01*
X26032537Y-59196751D01*
X25893249Y-59057463D01*
X25783811Y-58893678D01*
X25708429Y-58711689D01*
X25670000Y-58518491D01*
X25670000Y-58321509D01*
X25708429Y-58128311D01*
X25783811Y-57946322D01*
X25893249Y-57782537D01*
X26032537Y-57643249D01*
X26196322Y-57533811D01*
X26378311Y-57458429D01*
X26494230Y-57435372D01*
X26571507Y-57420000D01*
X26768493Y-57420000D01*
X26845770Y-57435372D01*
X26845770Y-57435372D01*
G37*
G36*
X30655770Y-57435372D02*
X30771689Y-57458429D01*
X30953678Y-57533811D01*
X31117463Y-57643249D01*
X31256751Y-57782537D01*
X31366189Y-57946322D01*
X31441571Y-58128311D01*
X31480000Y-58321509D01*
X31480000Y-58518491D01*
X31441571Y-58711689D01*
X31366189Y-58893678D01*
X31256751Y-59057463D01*
X31117463Y-59196751D01*
X30953678Y-59306189D01*
X30771689Y-59381571D01*
X30655770Y-59404628D01*
X30578493Y-59420000D01*
X30381507Y-59420000D01*
X30304230Y-59404628D01*
X30188311Y-59381571D01*
X30006322Y-59306189D01*
X29842537Y-59196751D01*
X29703249Y-59057463D01*
X29593811Y-58893678D01*
X29518429Y-58711689D01*
X29480000Y-58518491D01*
X29480000Y-58321509D01*
X29518429Y-58128311D01*
X29593811Y-57946322D01*
X29703249Y-57782537D01*
X29842537Y-57643249D01*
X30006322Y-57533811D01*
X30188311Y-57458429D01*
X30304230Y-57435372D01*
X30381507Y-57420000D01*
X30578493Y-57420000D01*
X30655770Y-57435372D01*
X30655770Y-57435372D01*
G37*
G36*
X69077027Y-57680852D02*
X69218401Y-57723738D01*
X69348694Y-57793380D01*
X69462896Y-57887104D01*
X69556620Y-58001306D01*
X69626262Y-58131599D01*
X69669148Y-58272973D01*
X69683628Y-58420000D01*
X69669148Y-58567027D01*
X69626262Y-58708401D01*
X69556620Y-58838694D01*
X69462896Y-58952896D01*
X69348694Y-59046620D01*
X69218401Y-59116262D01*
X69077027Y-59159148D01*
X68966839Y-59170000D01*
X68093161Y-59170000D01*
X67982973Y-59159148D01*
X67841599Y-59116262D01*
X67711306Y-59046620D01*
X67597104Y-58952896D01*
X67503380Y-58838694D01*
X67433738Y-58708401D01*
X67390852Y-58567027D01*
X67376372Y-58420000D01*
X67390852Y-58272973D01*
X67433738Y-58131599D01*
X67503380Y-58001306D01*
X67597104Y-57887104D01*
X67711306Y-57793380D01*
X67841599Y-57723738D01*
X67982973Y-57680852D01*
X68093161Y-57670000D01*
X68966839Y-57670000D01*
X69077027Y-57680852D01*
X69077027Y-57680852D01*
G37*
G36*
X61557027Y-57680852D02*
X61698401Y-57723738D01*
X61828694Y-57793380D01*
X61942896Y-57887104D01*
X62036620Y-58001306D01*
X62106262Y-58131599D01*
X62149148Y-58272973D01*
X62163628Y-58420000D01*
X62149148Y-58567027D01*
X62106262Y-58708401D01*
X62036620Y-58838694D01*
X61942896Y-58952896D01*
X61828694Y-59046620D01*
X61698401Y-59116262D01*
X61557027Y-59159148D01*
X61446839Y-59170000D01*
X60573161Y-59170000D01*
X60462973Y-59159148D01*
X60321599Y-59116262D01*
X60191306Y-59046620D01*
X60077104Y-58952896D01*
X59983380Y-58838694D01*
X59913738Y-58708401D01*
X59870852Y-58567027D01*
X59856372Y-58420000D01*
X59870852Y-58272973D01*
X59913738Y-58131599D01*
X59983380Y-58001306D01*
X60077104Y-57887104D01*
X60191306Y-57793380D01*
X60321599Y-57723738D01*
X60462973Y-57680852D01*
X60573161Y-57670000D01*
X61446839Y-57670000D01*
X61557027Y-57680852D01*
X61557027Y-57680852D01*
G37*
G36*
X30655770Y-54895372D02*
X30771689Y-54918429D01*
X30953678Y-54993811D01*
X31117463Y-55103249D01*
X31256751Y-55242537D01*
X31366189Y-55406322D01*
X31441571Y-55588311D01*
X31480000Y-55781509D01*
X31480000Y-55978491D01*
X31441571Y-56171689D01*
X31366189Y-56353678D01*
X31256751Y-56517463D01*
X31117463Y-56656751D01*
X30953678Y-56766189D01*
X30771689Y-56841571D01*
X30655770Y-56864628D01*
X30578493Y-56880000D01*
X30381507Y-56880000D01*
X30304230Y-56864628D01*
X30188311Y-56841571D01*
X30006322Y-56766189D01*
X29842537Y-56656751D01*
X29703249Y-56517463D01*
X29593811Y-56353678D01*
X29518429Y-56171689D01*
X29480000Y-55978491D01*
X29480000Y-55781509D01*
X29518429Y-55588311D01*
X29593811Y-55406322D01*
X29703249Y-55242537D01*
X29842537Y-55103249D01*
X30006322Y-54993811D01*
X30188311Y-54918429D01*
X30304230Y-54895372D01*
X30381507Y-54880000D01*
X30578493Y-54880000D01*
X30655770Y-54895372D01*
X30655770Y-54895372D01*
G37*
G36*
X26845770Y-54895372D02*
X26961689Y-54918429D01*
X27143678Y-54993811D01*
X27307463Y-55103249D01*
X27446751Y-55242537D01*
X27556189Y-55406322D01*
X27631571Y-55588311D01*
X27670000Y-55781509D01*
X27670000Y-55978491D01*
X27631571Y-56171689D01*
X27556189Y-56353678D01*
X27446751Y-56517463D01*
X27307463Y-56656751D01*
X27143678Y-56766189D01*
X26961689Y-56841571D01*
X26845770Y-56864628D01*
X26768493Y-56880000D01*
X26571507Y-56880000D01*
X26494230Y-56864628D01*
X26378311Y-56841571D01*
X26196322Y-56766189D01*
X26032537Y-56656751D01*
X25893249Y-56517463D01*
X25783811Y-56353678D01*
X25708429Y-56171689D01*
X25670000Y-55978491D01*
X25670000Y-55781509D01*
X25708429Y-55588311D01*
X25783811Y-55406322D01*
X25893249Y-55242537D01*
X26032537Y-55103249D01*
X26196322Y-54993811D01*
X26378311Y-54918429D01*
X26494230Y-54895372D01*
X26571507Y-54880000D01*
X26768493Y-54880000D01*
X26845770Y-54895372D01*
X26845770Y-54895372D01*
G37*
G36*
X56055770Y-54895372D02*
X56171689Y-54918429D01*
X56353678Y-54993811D01*
X56517463Y-55103249D01*
X56656751Y-55242537D01*
X56766189Y-55406322D01*
X56841571Y-55588311D01*
X56880000Y-55781509D01*
X56880000Y-55978491D01*
X56841571Y-56171689D01*
X56766189Y-56353678D01*
X56656751Y-56517463D01*
X56517463Y-56656751D01*
X56353678Y-56766189D01*
X56171689Y-56841571D01*
X56055770Y-56864628D01*
X55978493Y-56880000D01*
X55781507Y-56880000D01*
X55704230Y-56864628D01*
X55588311Y-56841571D01*
X55406322Y-56766189D01*
X55242537Y-56656751D01*
X55103249Y-56517463D01*
X54993811Y-56353678D01*
X54918429Y-56171689D01*
X54880000Y-55978491D01*
X54880000Y-55781509D01*
X54918429Y-55588311D01*
X54993811Y-55406322D01*
X55103249Y-55242537D01*
X55242537Y-55103249D01*
X55406322Y-54993811D01*
X55588311Y-54918429D01*
X55704230Y-54895372D01*
X55781507Y-54880000D01*
X55978493Y-54880000D01*
X56055770Y-54895372D01*
X56055770Y-54895372D01*
G37*
G36*
X69077027Y-55140852D02*
X69218401Y-55183738D01*
X69348694Y-55253380D01*
X69462896Y-55347104D01*
X69556620Y-55461306D01*
X69626262Y-55591599D01*
X69669148Y-55732973D01*
X69683628Y-55880000D01*
X69669148Y-56027027D01*
X69626262Y-56168401D01*
X69556620Y-56298694D01*
X69462896Y-56412896D01*
X69348694Y-56506620D01*
X69218401Y-56576262D01*
X69077027Y-56619148D01*
X68966839Y-56630000D01*
X68093161Y-56630000D01*
X67982973Y-56619148D01*
X67841599Y-56576262D01*
X67711306Y-56506620D01*
X67597104Y-56412896D01*
X67503380Y-56298694D01*
X67433738Y-56168401D01*
X67390852Y-56027027D01*
X67376372Y-55880000D01*
X67390852Y-55732973D01*
X67433738Y-55591599D01*
X67503380Y-55461306D01*
X67597104Y-55347104D01*
X67711306Y-55253380D01*
X67841599Y-55183738D01*
X67982973Y-55140852D01*
X68093161Y-55130000D01*
X68966839Y-55130000D01*
X69077027Y-55140852D01*
X69077027Y-55140852D01*
G37*
G36*
X61557027Y-55140852D02*
X61698401Y-55183738D01*
X61828694Y-55253380D01*
X61942896Y-55347104D01*
X62036620Y-55461306D01*
X62106262Y-55591599D01*
X62149148Y-55732973D01*
X62163628Y-55880000D01*
X62149148Y-56027027D01*
X62106262Y-56168401D01*
X62036620Y-56298694D01*
X61942896Y-56412896D01*
X61828694Y-56506620D01*
X61698401Y-56576262D01*
X61557027Y-56619148D01*
X61446839Y-56630000D01*
X60573161Y-56630000D01*
X60462973Y-56619148D01*
X60321599Y-56576262D01*
X60191306Y-56506620D01*
X60077104Y-56412896D01*
X59983380Y-56298694D01*
X59913738Y-56168401D01*
X59870852Y-56027027D01*
X59856372Y-55880000D01*
X59870852Y-55732973D01*
X59913738Y-55591599D01*
X59983380Y-55461306D01*
X60077104Y-55347104D01*
X60191306Y-55253380D01*
X60321599Y-55183738D01*
X60462973Y-55140852D01*
X60573161Y-55130000D01*
X61446839Y-55130000D01*
X61557027Y-55140852D01*
X61557027Y-55140852D01*
G37*
G36*
X30655770Y-52395372D02*
X30771689Y-52418429D01*
X30953678Y-52493811D01*
X31117463Y-52603249D01*
X31256751Y-52742537D01*
X31366189Y-52906322D01*
X31441571Y-53088311D01*
X31464628Y-53204230D01*
X31480000Y-53281507D01*
X31480000Y-53478493D01*
X31478302Y-53487027D01*
X31441571Y-53671689D01*
X31366189Y-53853678D01*
X31256751Y-54017463D01*
X31117463Y-54156751D01*
X30953678Y-54266189D01*
X30771689Y-54341571D01*
X30655770Y-54364628D01*
X30578493Y-54380000D01*
X30381507Y-54380000D01*
X30304230Y-54364628D01*
X30188311Y-54341571D01*
X30006322Y-54266189D01*
X29842537Y-54156751D01*
X29703249Y-54017463D01*
X29593811Y-53853678D01*
X29518429Y-53671689D01*
X29481698Y-53487027D01*
X29480000Y-53478493D01*
X29480000Y-53281507D01*
X29495372Y-53204230D01*
X29518429Y-53088311D01*
X29593811Y-52906322D01*
X29703249Y-52742537D01*
X29842537Y-52603249D01*
X30006322Y-52493811D01*
X30188311Y-52418429D01*
X30304230Y-52395372D01*
X30381507Y-52380000D01*
X30578493Y-52380000D01*
X30655770Y-52395372D01*
X30655770Y-52395372D01*
G37*
G36*
X56055770Y-52355372D02*
X56171689Y-52378429D01*
X56353678Y-52453811D01*
X56517463Y-52563249D01*
X56656751Y-52702537D01*
X56766189Y-52866322D01*
X56841571Y-53048311D01*
X56880000Y-53241509D01*
X56880000Y-53438491D01*
X56841571Y-53631689D01*
X56766189Y-53813678D01*
X56656751Y-53977463D01*
X56517463Y-54116751D01*
X56353678Y-54226189D01*
X56171689Y-54301571D01*
X56055770Y-54324628D01*
X55978493Y-54340000D01*
X55781507Y-54340000D01*
X55704230Y-54324628D01*
X55588311Y-54301571D01*
X55406322Y-54226189D01*
X55242537Y-54116751D01*
X55103249Y-53977463D01*
X54993811Y-53813678D01*
X54918429Y-53631689D01*
X54880000Y-53438491D01*
X54880000Y-53241509D01*
X54918429Y-53048311D01*
X54993811Y-52866322D01*
X55103249Y-52702537D01*
X55242537Y-52563249D01*
X55406322Y-52453811D01*
X55588311Y-52378429D01*
X55704230Y-52355372D01*
X55781507Y-52340000D01*
X55978493Y-52340000D01*
X56055770Y-52355372D01*
X56055770Y-52355372D01*
G37*
G36*
X61557027Y-52600852D02*
X61698401Y-52643738D01*
X61828694Y-52713380D01*
X61942896Y-52807104D01*
X62036620Y-52921306D01*
X62106262Y-53051599D01*
X62149148Y-53192973D01*
X62163628Y-53340000D01*
X62149148Y-53487027D01*
X62106262Y-53628401D01*
X62036620Y-53758694D01*
X61942896Y-53872896D01*
X61828694Y-53966620D01*
X61698401Y-54036262D01*
X61557027Y-54079148D01*
X61446839Y-54090000D01*
X60573161Y-54090000D01*
X60462973Y-54079148D01*
X60321599Y-54036262D01*
X60191306Y-53966620D01*
X60077104Y-53872896D01*
X59983380Y-53758694D01*
X59913738Y-53628401D01*
X59870852Y-53487027D01*
X59856372Y-53340000D01*
X59870852Y-53192973D01*
X59913738Y-53051599D01*
X59983380Y-52921306D01*
X60077104Y-52807104D01*
X60191306Y-52713380D01*
X60321599Y-52643738D01*
X60462973Y-52600852D01*
X60573161Y-52590000D01*
X61446839Y-52590000D01*
X61557027Y-52600852D01*
X61557027Y-52600852D01*
G37*
G36*
X69077027Y-52600852D02*
X69218401Y-52643738D01*
X69348694Y-52713380D01*
X69462896Y-52807104D01*
X69556620Y-52921306D01*
X69626262Y-53051599D01*
X69669148Y-53192973D01*
X69683628Y-53340000D01*
X69669148Y-53487027D01*
X69626262Y-53628401D01*
X69556620Y-53758694D01*
X69462896Y-53872896D01*
X69348694Y-53966620D01*
X69218401Y-54036262D01*
X69077027Y-54079148D01*
X68966839Y-54090000D01*
X68093161Y-54090000D01*
X67982973Y-54079148D01*
X67841599Y-54036262D01*
X67711306Y-53966620D01*
X67597104Y-53872896D01*
X67503380Y-53758694D01*
X67433738Y-53628401D01*
X67390852Y-53487027D01*
X67376372Y-53340000D01*
X67390852Y-53192973D01*
X67433738Y-53051599D01*
X67503380Y-52921306D01*
X67597104Y-52807104D01*
X67711306Y-52713380D01*
X67841599Y-52643738D01*
X67982973Y-52600852D01*
X68093161Y-52590000D01*
X68966839Y-52590000D01*
X69077027Y-52600852D01*
X69077027Y-52600852D01*
G37*
G36*
X61557027Y-50060852D02*
X61698401Y-50103738D01*
X61828694Y-50173380D01*
X61942896Y-50267104D01*
X62036620Y-50381306D01*
X62106262Y-50511599D01*
X62149148Y-50652973D01*
X62163628Y-50800000D01*
X62149148Y-50947027D01*
X62106262Y-51088401D01*
X62036620Y-51218694D01*
X61942896Y-51332896D01*
X61828694Y-51426620D01*
X61698401Y-51496262D01*
X61557027Y-51539148D01*
X61446839Y-51550000D01*
X60573161Y-51550000D01*
X60462973Y-51539148D01*
X60321599Y-51496262D01*
X60191306Y-51426620D01*
X60077104Y-51332896D01*
X59983380Y-51218694D01*
X59913738Y-51088401D01*
X59870852Y-50947027D01*
X59856372Y-50800000D01*
X59870852Y-50652973D01*
X59913738Y-50511599D01*
X59983380Y-50381306D01*
X60077104Y-50267104D01*
X60191306Y-50173380D01*
X60321599Y-50103738D01*
X60462973Y-50060852D01*
X60573161Y-50050000D01*
X61446839Y-50050000D01*
X61557027Y-50060852D01*
X61557027Y-50060852D01*
G37*
G36*
X69077027Y-50060852D02*
X69218401Y-50103738D01*
X69348694Y-50173380D01*
X69462896Y-50267104D01*
X69556620Y-50381306D01*
X69626262Y-50511599D01*
X69669148Y-50652973D01*
X69683628Y-50800000D01*
X69669148Y-50947027D01*
X69626262Y-51088401D01*
X69556620Y-51218694D01*
X69462896Y-51332896D01*
X69348694Y-51426620D01*
X69218401Y-51496262D01*
X69077027Y-51539148D01*
X68966839Y-51550000D01*
X68093161Y-51550000D01*
X67982973Y-51539148D01*
X67841599Y-51496262D01*
X67711306Y-51426620D01*
X67597104Y-51332896D01*
X67503380Y-51218694D01*
X67433738Y-51088401D01*
X67390852Y-50947027D01*
X67376372Y-50800000D01*
X67390852Y-50652973D01*
X67433738Y-50511599D01*
X67503380Y-50381306D01*
X67597104Y-50267104D01*
X67711306Y-50173380D01*
X67841599Y-50103738D01*
X67982973Y-50060852D01*
X68093161Y-50050000D01*
X68966839Y-50050000D01*
X69077027Y-50060852D01*
X69077027Y-50060852D01*
G37*
G36*
X35735770Y-47275372D02*
X35851689Y-47298429D01*
X36033678Y-47373811D01*
X36197463Y-47483249D01*
X36336751Y-47622537D01*
X36446189Y-47786322D01*
X36521571Y-47968311D01*
X36530274Y-48012064D01*
X36560000Y-48161507D01*
X36560000Y-48358493D01*
X36544628Y-48435770D01*
X36521571Y-48551689D01*
X36446189Y-48733678D01*
X36336751Y-48897463D01*
X36197463Y-49036751D01*
X36033678Y-49146189D01*
X35851689Y-49221571D01*
X35735770Y-49244628D01*
X35658493Y-49260000D01*
X35461507Y-49260000D01*
X35384230Y-49244628D01*
X35268311Y-49221571D01*
X35086322Y-49146189D01*
X34922537Y-49036751D01*
X34783249Y-48897463D01*
X34673811Y-48733678D01*
X34598429Y-48551689D01*
X34575372Y-48435770D01*
X34560000Y-48358493D01*
X34560000Y-48161507D01*
X34589726Y-48012064D01*
X34598429Y-47968311D01*
X34673811Y-47786322D01*
X34783249Y-47622537D01*
X34922537Y-47483249D01*
X35086322Y-47373811D01*
X35268311Y-47298429D01*
X35384230Y-47275372D01*
X35461507Y-47260000D01*
X35658493Y-47260000D01*
X35735770Y-47275372D01*
X35735770Y-47275372D01*
G37*
G36*
X38275770Y-47275372D02*
X38391689Y-47298429D01*
X38573678Y-47373811D01*
X38737463Y-47483249D01*
X38876751Y-47622537D01*
X38986189Y-47786322D01*
X39061571Y-47968311D01*
X39070274Y-48012064D01*
X39100000Y-48161507D01*
X39100000Y-48358493D01*
X39084628Y-48435770D01*
X39061571Y-48551689D01*
X38986189Y-48733678D01*
X38876751Y-48897463D01*
X38737463Y-49036751D01*
X38573678Y-49146189D01*
X38391689Y-49221571D01*
X38275770Y-49244628D01*
X38198493Y-49260000D01*
X38001507Y-49260000D01*
X37924230Y-49244628D01*
X37808311Y-49221571D01*
X37626322Y-49146189D01*
X37462537Y-49036751D01*
X37323249Y-48897463D01*
X37213811Y-48733678D01*
X37138429Y-48551689D01*
X37115372Y-48435770D01*
X37100000Y-48358493D01*
X37100000Y-48161507D01*
X37129726Y-48012064D01*
X37138429Y-47968311D01*
X37213811Y-47786322D01*
X37323249Y-47622537D01*
X37462537Y-47483249D01*
X37626322Y-47373811D01*
X37808311Y-47298429D01*
X37924230Y-47275372D01*
X38001507Y-47260000D01*
X38198493Y-47260000D01*
X38275770Y-47275372D01*
X38275770Y-47275372D01*
G37*
G36*
X48507934Y-47442664D02*
X48662627Y-47506740D01*
X48801847Y-47599764D01*
X48920236Y-47718153D01*
X49013260Y-47857373D01*
X49077336Y-48012066D01*
X49110000Y-48176281D01*
X49110000Y-48343719D01*
X49077336Y-48507934D01*
X49013260Y-48662627D01*
X48920236Y-48801847D01*
X48801847Y-48920236D01*
X48662627Y-49013260D01*
X48507934Y-49077336D01*
X48343719Y-49110000D01*
X48176281Y-49110000D01*
X48012066Y-49077336D01*
X47857373Y-49013260D01*
X47718153Y-48920236D01*
X47599764Y-48801847D01*
X47506740Y-48662627D01*
X47442664Y-48507934D01*
X47410000Y-48343719D01*
X47410000Y-48176281D01*
X47442664Y-48012066D01*
X47506740Y-47857373D01*
X47599764Y-47718153D01*
X47718153Y-47599764D01*
X47857373Y-47506740D01*
X48012066Y-47442664D01*
X48176281Y-47410000D01*
X48343719Y-47410000D01*
X48507934Y-47442664D01*
X48507934Y-47442664D01*
G37*
G36*
X53506630Y-47422299D02*
X53666855Y-47470903D01*
X53814520Y-47549831D01*
X53943949Y-47656051D01*
X54050169Y-47785480D01*
X54129097Y-47933145D01*
X54177701Y-48093370D01*
X54194112Y-48260000D01*
X54177701Y-48426630D01*
X54129097Y-48586855D01*
X54050169Y-48734520D01*
X53943949Y-48863949D01*
X53814520Y-48970169D01*
X53666855Y-49049097D01*
X53506630Y-49097701D01*
X53381752Y-49110000D01*
X53298248Y-49110000D01*
X53173370Y-49097701D01*
X53013145Y-49049097D01*
X52865480Y-48970169D01*
X52736051Y-48863949D01*
X52629831Y-48734520D01*
X52550903Y-48586855D01*
X52502299Y-48426630D01*
X52485888Y-48260000D01*
X52502299Y-48093370D01*
X52550903Y-47933145D01*
X52629831Y-47785480D01*
X52736051Y-47656051D01*
X52865480Y-47549831D01*
X53013145Y-47470903D01*
X53173370Y-47422299D01*
X53298248Y-47410000D01*
X53381752Y-47410000D01*
X53506630Y-47422299D01*
X53506630Y-47422299D01*
G37*
G36*
X61557027Y-47520852D02*
X61698401Y-47563738D01*
X61828694Y-47633380D01*
X61942896Y-47727104D01*
X62036620Y-47841306D01*
X62106262Y-47971599D01*
X62149148Y-48112973D01*
X62163628Y-48260000D01*
X62149148Y-48407027D01*
X62106262Y-48548401D01*
X62036620Y-48678694D01*
X61942896Y-48792896D01*
X61828694Y-48886620D01*
X61698401Y-48956262D01*
X61557027Y-48999148D01*
X61446839Y-49010000D01*
X60573161Y-49010000D01*
X60462973Y-48999148D01*
X60321599Y-48956262D01*
X60191306Y-48886620D01*
X60077104Y-48792896D01*
X59983380Y-48678694D01*
X59913738Y-48548401D01*
X59870852Y-48407027D01*
X59856372Y-48260000D01*
X59870852Y-48112973D01*
X59913738Y-47971599D01*
X59983380Y-47841306D01*
X60077104Y-47727104D01*
X60191306Y-47633380D01*
X60321599Y-47563738D01*
X60462973Y-47520852D01*
X60573161Y-47510000D01*
X61446839Y-47510000D01*
X61557027Y-47520852D01*
X61557027Y-47520852D01*
G37*
G36*
X69077027Y-47520852D02*
X69218401Y-47563738D01*
X69348694Y-47633380D01*
X69462896Y-47727104D01*
X69556620Y-47841306D01*
X69626262Y-47971599D01*
X69669148Y-48112973D01*
X69683628Y-48260000D01*
X69669148Y-48407027D01*
X69626262Y-48548401D01*
X69556620Y-48678694D01*
X69462896Y-48792896D01*
X69348694Y-48886620D01*
X69218401Y-48956262D01*
X69077027Y-48999148D01*
X68966839Y-49010000D01*
X68093161Y-49010000D01*
X67982973Y-48999148D01*
X67841599Y-48956262D01*
X67711306Y-48886620D01*
X67597104Y-48792896D01*
X67503380Y-48678694D01*
X67433738Y-48548401D01*
X67390852Y-48407027D01*
X67376372Y-48260000D01*
X67390852Y-48112973D01*
X67433738Y-47971599D01*
X67503380Y-47841306D01*
X67597104Y-47727104D01*
X67711306Y-47633380D01*
X67841599Y-47563738D01*
X67982973Y-47520852D01*
X68093161Y-47510000D01*
X68966839Y-47510000D01*
X69077027Y-47520852D01*
X69077027Y-47520852D01*
G37*
G36*
X53506630Y-44882299D02*
X53666855Y-44930903D01*
X53814520Y-45009831D01*
X53943949Y-45116051D01*
X54050169Y-45245480D01*
X54129097Y-45393145D01*
X54177701Y-45553370D01*
X54194112Y-45720000D01*
X54177701Y-45886630D01*
X54129097Y-46046855D01*
X54050169Y-46194520D01*
X53943949Y-46323949D01*
X53814520Y-46430169D01*
X53666855Y-46509097D01*
X53506630Y-46557701D01*
X53381752Y-46570000D01*
X53298248Y-46570000D01*
X53173370Y-46557701D01*
X53013145Y-46509097D01*
X52865480Y-46430169D01*
X52736051Y-46323949D01*
X52629831Y-46194520D01*
X52550903Y-46046855D01*
X52502299Y-45886630D01*
X52485888Y-45720000D01*
X52502299Y-45553370D01*
X52550903Y-45393145D01*
X52629831Y-45245480D01*
X52736051Y-45116051D01*
X52865480Y-45009831D01*
X53013145Y-44930903D01*
X53173370Y-44882299D01*
X53298248Y-44870000D01*
X53381752Y-44870000D01*
X53506630Y-44882299D01*
X53506630Y-44882299D01*
G37*
G36*
X48507934Y-44902664D02*
X48662627Y-44966740D01*
X48801847Y-45059764D01*
X48920236Y-45178153D01*
X49013260Y-45317373D01*
X49077336Y-45472066D01*
X49110000Y-45636281D01*
X49110000Y-45803719D01*
X49077336Y-45967934D01*
X49013260Y-46122627D01*
X48920236Y-46261847D01*
X48801847Y-46380236D01*
X48662627Y-46473260D01*
X48507934Y-46537336D01*
X48343719Y-46570000D01*
X48176281Y-46570000D01*
X48012066Y-46537336D01*
X47857373Y-46473260D01*
X47718153Y-46380236D01*
X47599764Y-46261847D01*
X47506740Y-46122627D01*
X47442664Y-45967934D01*
X47410000Y-45803719D01*
X47410000Y-45636281D01*
X47442664Y-45472066D01*
X47506740Y-45317373D01*
X47599764Y-45178153D01*
X47718153Y-45059764D01*
X47857373Y-44966740D01*
X48012066Y-44902664D01*
X48176281Y-44870000D01*
X48343719Y-44870000D01*
X48507934Y-44902664D01*
X48507934Y-44902664D01*
G37*
G36*
X69077027Y-44980852D02*
X69218401Y-45023738D01*
X69348694Y-45093380D01*
X69462896Y-45187104D01*
X69556620Y-45301306D01*
X69626262Y-45431599D01*
X69669148Y-45572973D01*
X69683628Y-45720000D01*
X69669148Y-45867027D01*
X69626262Y-46008401D01*
X69556620Y-46138694D01*
X69462896Y-46252896D01*
X69348694Y-46346620D01*
X69218401Y-46416262D01*
X69077027Y-46459148D01*
X68966839Y-46470000D01*
X68093161Y-46470000D01*
X67982973Y-46459148D01*
X67841599Y-46416262D01*
X67711306Y-46346620D01*
X67597104Y-46252896D01*
X67503380Y-46138694D01*
X67433738Y-46008401D01*
X67390852Y-45867027D01*
X67376372Y-45720000D01*
X67390852Y-45572973D01*
X67433738Y-45431599D01*
X67503380Y-45301306D01*
X67597104Y-45187104D01*
X67711306Y-45093380D01*
X67841599Y-45023738D01*
X67982973Y-44980852D01*
X68093161Y-44970000D01*
X68966839Y-44970000D01*
X69077027Y-44980852D01*
X69077027Y-44980852D01*
G37*
G36*
X61557027Y-44980852D02*
X61698401Y-45023738D01*
X61828694Y-45093380D01*
X61942896Y-45187104D01*
X62036620Y-45301306D01*
X62106262Y-45431599D01*
X62149148Y-45572973D01*
X62163628Y-45720000D01*
X62149148Y-45867027D01*
X62106262Y-46008401D01*
X62036620Y-46138694D01*
X61942896Y-46252896D01*
X61828694Y-46346620D01*
X61698401Y-46416262D01*
X61557027Y-46459148D01*
X61446839Y-46470000D01*
X60573161Y-46470000D01*
X60462973Y-46459148D01*
X60321599Y-46416262D01*
X60191306Y-46346620D01*
X60077104Y-46252896D01*
X59983380Y-46138694D01*
X59913738Y-46008401D01*
X59870852Y-45867027D01*
X59856372Y-45720000D01*
X59870852Y-45572973D01*
X59913738Y-45431599D01*
X59983380Y-45301306D01*
X60077104Y-45187104D01*
X60191306Y-45093380D01*
X60321599Y-45023738D01*
X60462973Y-44980852D01*
X60573161Y-44970000D01*
X61446839Y-44970000D01*
X61557027Y-44980852D01*
X61557027Y-44980852D01*
G37*
G36*
X40750000Y-44560000D02*
X37990000Y-44560000D01*
X37990000Y-41800000D01*
X40750000Y-41800000D01*
X40750000Y-44560000D01*
X40750000Y-44560000D01*
G37*
G36*
X31860000Y-44560000D02*
X29100000Y-44560000D01*
X29100000Y-41800000D01*
X31860000Y-41800000D01*
X31860000Y-44560000D01*
X31860000Y-44560000D01*
G37*
G36*
X61146232Y-42243746D02*
X61235770Y-42270907D01*
X61325309Y-42298068D01*
X61490347Y-42386283D01*
X61635001Y-42504999D01*
X61753717Y-42649653D01*
X61841932Y-42814691D01*
X61896254Y-42993769D01*
X61914596Y-43180000D01*
X61896254Y-43366231D01*
X61841932Y-43545309D01*
X61753717Y-43710347D01*
X61635001Y-43855001D01*
X61490347Y-43973717D01*
X61325309Y-44061932D01*
X61235770Y-44089093D01*
X61146232Y-44116254D01*
X61076448Y-44123127D01*
X61006666Y-44130000D01*
X60913334Y-44130000D01*
X60843552Y-44123127D01*
X60773768Y-44116254D01*
X60684230Y-44089093D01*
X60594691Y-44061932D01*
X60429653Y-43973717D01*
X60284999Y-43855001D01*
X60166283Y-43710347D01*
X60078068Y-43545309D01*
X60023746Y-43366231D01*
X60005404Y-43180000D01*
X60023746Y-42993769D01*
X60078068Y-42814691D01*
X60166283Y-42649653D01*
X60284999Y-42504999D01*
X60429653Y-42386283D01*
X60594691Y-42298068D01*
X60684230Y-42270907D01*
X60773768Y-42243746D01*
X60913334Y-42230000D01*
X61006666Y-42230000D01*
X61146232Y-42243746D01*
X61146232Y-42243746D01*
G37*
G36*
X69530000Y-44130000D02*
X67630000Y-44130000D01*
X67630000Y-42230000D01*
X69530000Y-42230000D01*
X69530000Y-44130000D01*
X69530000Y-44130000D01*
G37*
G36*
X94105888Y-39594470D02*
X94286274Y-39630350D01*
X94477362Y-39709502D01*
X94649336Y-39824411D01*
X94795589Y-39970664D01*
X94910498Y-40142638D01*
X94989650Y-40333726D01*
X95030000Y-40536584D01*
X95030000Y-40743416D01*
X94989650Y-40946274D01*
X94910498Y-41137362D01*
X94795589Y-41309336D01*
X94649336Y-41455589D01*
X94477362Y-41570498D01*
X94286274Y-41649650D01*
X94105888Y-41685530D01*
X94083417Y-41690000D01*
X93876583Y-41690000D01*
X93854112Y-41685530D01*
X93673726Y-41649650D01*
X93482638Y-41570498D01*
X93310664Y-41455589D01*
X93164411Y-41309336D01*
X93049502Y-41137362D01*
X92970350Y-40946274D01*
X92930000Y-40743416D01*
X92930000Y-40536584D01*
X92970350Y-40333726D01*
X93049502Y-40142638D01*
X93164411Y-39970664D01*
X93310664Y-39824411D01*
X93482638Y-39709502D01*
X93673726Y-39630350D01*
X93854112Y-39594470D01*
X93876583Y-39590000D01*
X94083417Y-39590000D01*
X94105888Y-39594470D01*
X94105888Y-39594470D01*
G37*
G36*
X99185888Y-39594470D02*
X99366274Y-39630350D01*
X99557362Y-39709502D01*
X99729336Y-39824411D01*
X99875589Y-39970664D01*
X99990498Y-40142638D01*
X100069650Y-40333726D01*
X100110000Y-40536584D01*
X100110000Y-40743416D01*
X100069650Y-40946274D01*
X99990498Y-41137362D01*
X99875589Y-41309336D01*
X99729336Y-41455589D01*
X99557362Y-41570498D01*
X99366274Y-41649650D01*
X99185888Y-41685530D01*
X99163417Y-41690000D01*
X98956583Y-41690000D01*
X98934112Y-41685530D01*
X98753726Y-41649650D01*
X98562638Y-41570498D01*
X98390664Y-41455589D01*
X98244411Y-41309336D01*
X98129502Y-41137362D01*
X98050350Y-40946274D01*
X98010000Y-40743416D01*
X98010000Y-40536584D01*
X98050350Y-40333726D01*
X98129502Y-40142638D01*
X98244411Y-39970664D01*
X98390664Y-39824411D01*
X98562638Y-39709502D01*
X98753726Y-39630350D01*
X98934112Y-39594470D01*
X98956583Y-39590000D01*
X99163417Y-39590000D01*
X99185888Y-39594470D01*
X99185888Y-39594470D01*
G37*
G36*
X96645888Y-39594470D02*
X96826274Y-39630350D01*
X97017362Y-39709502D01*
X97189336Y-39824411D01*
X97335589Y-39970664D01*
X97450498Y-40142638D01*
X97529650Y-40333726D01*
X97570000Y-40536584D01*
X97570000Y-40743416D01*
X97529650Y-40946274D01*
X97450498Y-41137362D01*
X97335589Y-41309336D01*
X97189336Y-41455589D01*
X97017362Y-41570498D01*
X96826274Y-41649650D01*
X96645888Y-41685530D01*
X96623417Y-41690000D01*
X96416583Y-41690000D01*
X96394112Y-41685530D01*
X96213726Y-41649650D01*
X96022638Y-41570498D01*
X95850664Y-41455589D01*
X95704411Y-41309336D01*
X95589502Y-41137362D01*
X95510350Y-40946274D01*
X95470000Y-40743416D01*
X95470000Y-40536584D01*
X95510350Y-40333726D01*
X95589502Y-40142638D01*
X95704411Y-39970664D01*
X95850664Y-39824411D01*
X96022638Y-39709502D01*
X96213726Y-39630350D01*
X96394112Y-39594470D01*
X96416583Y-39590000D01*
X96623417Y-39590000D01*
X96645888Y-39594470D01*
X96645888Y-39594470D01*
G37*
G36*
X91565888Y-39594470D02*
X91746274Y-39630350D01*
X91937362Y-39709502D01*
X92109336Y-39824411D01*
X92255589Y-39970664D01*
X92370498Y-40142638D01*
X92449650Y-40333726D01*
X92490000Y-40536584D01*
X92490000Y-40743416D01*
X92449650Y-40946274D01*
X92370498Y-41137362D01*
X92255589Y-41309336D01*
X92109336Y-41455589D01*
X91937362Y-41570498D01*
X91746274Y-41649650D01*
X91565888Y-41685530D01*
X91543417Y-41690000D01*
X91336583Y-41690000D01*
X91314112Y-41685530D01*
X91133726Y-41649650D01*
X90942638Y-41570498D01*
X90770664Y-41455589D01*
X90624411Y-41309336D01*
X90509502Y-41137362D01*
X90430350Y-40946274D01*
X90390000Y-40743416D01*
X90390000Y-40536584D01*
X90430350Y-40333726D01*
X90509502Y-40142638D01*
X90624411Y-39970664D01*
X90770664Y-39824411D01*
X90942638Y-39709502D01*
X91133726Y-39630350D01*
X91314112Y-39594470D01*
X91336583Y-39590000D01*
X91543417Y-39590000D01*
X91565888Y-39594470D01*
X91565888Y-39594470D01*
G37*
G36*
X89025888Y-39594470D02*
X89206274Y-39630350D01*
X89397362Y-39709502D01*
X89569336Y-39824411D01*
X89715589Y-39970664D01*
X89830498Y-40142638D01*
X89909650Y-40333726D01*
X89950000Y-40536584D01*
X89950000Y-40743416D01*
X89909650Y-40946274D01*
X89830498Y-41137362D01*
X89715589Y-41309336D01*
X89569336Y-41455589D01*
X89397362Y-41570498D01*
X89206274Y-41649650D01*
X89025888Y-41685530D01*
X89003417Y-41690000D01*
X88796583Y-41690000D01*
X88774112Y-41685530D01*
X88593726Y-41649650D01*
X88402638Y-41570498D01*
X88230664Y-41455589D01*
X88084411Y-41309336D01*
X87969502Y-41137362D01*
X87890350Y-40946274D01*
X87850000Y-40743416D01*
X87850000Y-40536584D01*
X87890350Y-40333726D01*
X87969502Y-40142638D01*
X88084411Y-39970664D01*
X88230664Y-39824411D01*
X88402638Y-39709502D01*
X88593726Y-39630350D01*
X88774112Y-39594470D01*
X88796583Y-39590000D01*
X89003417Y-39590000D01*
X89025888Y-39594470D01*
X89025888Y-39594470D01*
G37*
G36*
X86485888Y-39594470D02*
X86666274Y-39630350D01*
X86857362Y-39709502D01*
X87029336Y-39824411D01*
X87175589Y-39970664D01*
X87290498Y-40142638D01*
X87369650Y-40333726D01*
X87410000Y-40536584D01*
X87410000Y-40743416D01*
X87369650Y-40946274D01*
X87290498Y-41137362D01*
X87175589Y-41309336D01*
X87029336Y-41455589D01*
X86857362Y-41570498D01*
X86666274Y-41649650D01*
X86485888Y-41685530D01*
X86463417Y-41690000D01*
X86256583Y-41690000D01*
X86234112Y-41685530D01*
X86053726Y-41649650D01*
X85862638Y-41570498D01*
X85690664Y-41455589D01*
X85544411Y-41309336D01*
X85429502Y-41137362D01*
X85350350Y-40946274D01*
X85310000Y-40743416D01*
X85310000Y-40536584D01*
X85350350Y-40333726D01*
X85429502Y-40142638D01*
X85544411Y-39970664D01*
X85690664Y-39824411D01*
X85862638Y-39709502D01*
X86053726Y-39630350D01*
X86234112Y-39594470D01*
X86256583Y-39590000D01*
X86463417Y-39590000D01*
X86485888Y-39594470D01*
X86485888Y-39594470D01*
G37*
G36*
X83945888Y-39594470D02*
X84126274Y-39630350D01*
X84317362Y-39709502D01*
X84489336Y-39824411D01*
X84635589Y-39970664D01*
X84750498Y-40142638D01*
X84829650Y-40333726D01*
X84870000Y-40536584D01*
X84870000Y-40743416D01*
X84829650Y-40946274D01*
X84750498Y-41137362D01*
X84635589Y-41309336D01*
X84489336Y-41455589D01*
X84317362Y-41570498D01*
X84126274Y-41649650D01*
X83945888Y-41685530D01*
X83923417Y-41690000D01*
X83716583Y-41690000D01*
X83694112Y-41685530D01*
X83513726Y-41649650D01*
X83322638Y-41570498D01*
X83150664Y-41455589D01*
X83004411Y-41309336D01*
X82889502Y-41137362D01*
X82810350Y-40946274D01*
X82770000Y-40743416D01*
X82770000Y-40536584D01*
X82810350Y-40333726D01*
X82889502Y-40142638D01*
X83004411Y-39970664D01*
X83150664Y-39824411D01*
X83322638Y-39709502D01*
X83513726Y-39630350D01*
X83694112Y-39594470D01*
X83716583Y-39590000D01*
X83923417Y-39590000D01*
X83945888Y-39594470D01*
X83945888Y-39594470D01*
G37*
G36*
X81405888Y-39594470D02*
X81586274Y-39630350D01*
X81777362Y-39709502D01*
X81949336Y-39824411D01*
X82095589Y-39970664D01*
X82210498Y-40142638D01*
X82289650Y-40333726D01*
X82330000Y-40536584D01*
X82330000Y-40743416D01*
X82289650Y-40946274D01*
X82210498Y-41137362D01*
X82095589Y-41309336D01*
X81949336Y-41455589D01*
X81777362Y-41570498D01*
X81586274Y-41649650D01*
X81405888Y-41685530D01*
X81383417Y-41690000D01*
X81176583Y-41690000D01*
X81154112Y-41685530D01*
X80973726Y-41649650D01*
X80782638Y-41570498D01*
X80610664Y-41455589D01*
X80464411Y-41309336D01*
X80349502Y-41137362D01*
X80270350Y-40946274D01*
X80230000Y-40743416D01*
X80230000Y-40536584D01*
X80270350Y-40333726D01*
X80349502Y-40142638D01*
X80464411Y-39970664D01*
X80610664Y-39824411D01*
X80782638Y-39709502D01*
X80973726Y-39630350D01*
X81154112Y-39594470D01*
X81176583Y-39590000D01*
X81383417Y-39590000D01*
X81405888Y-39594470D01*
X81405888Y-39594470D01*
G37*
G36*
X61076448Y-39696873D02*
X61146232Y-39703746D01*
X61165210Y-39709503D01*
X61325309Y-39758068D01*
X61490347Y-39846283D01*
X61635001Y-39964999D01*
X61753717Y-40109653D01*
X61841932Y-40274691D01*
X61841932Y-40274692D01*
X61896254Y-40453768D01*
X61914596Y-40640000D01*
X61904411Y-40743416D01*
X61896254Y-40826231D01*
X61841932Y-41005309D01*
X61753717Y-41170347D01*
X61635001Y-41315001D01*
X61490347Y-41433717D01*
X61325309Y-41521932D01*
X61235770Y-41549093D01*
X61146232Y-41576254D01*
X61076448Y-41583127D01*
X61006666Y-41590000D01*
X60913334Y-41590000D01*
X60843552Y-41583127D01*
X60773768Y-41576254D01*
X60684230Y-41549093D01*
X60594691Y-41521932D01*
X60429653Y-41433717D01*
X60284999Y-41315001D01*
X60166283Y-41170347D01*
X60078068Y-41005309D01*
X60023746Y-40826231D01*
X60015590Y-40743416D01*
X60005404Y-40640000D01*
X60023746Y-40453768D01*
X60078068Y-40274692D01*
X60078068Y-40274691D01*
X60166283Y-40109653D01*
X60284999Y-39964999D01*
X60429653Y-39846283D01*
X60594691Y-39758068D01*
X60754790Y-39709503D01*
X60773768Y-39703746D01*
X60843552Y-39696873D01*
X60913334Y-39690000D01*
X61006666Y-39690000D01*
X61076448Y-39696873D01*
X61076448Y-39696873D01*
G37*
G36*
X68696448Y-39696873D02*
X68766232Y-39703746D01*
X68785210Y-39709503D01*
X68945309Y-39758068D01*
X69110347Y-39846283D01*
X69255001Y-39964999D01*
X69373717Y-40109653D01*
X69461932Y-40274691D01*
X69461932Y-40274692D01*
X69516254Y-40453768D01*
X69534596Y-40640000D01*
X69524411Y-40743416D01*
X69516254Y-40826231D01*
X69461932Y-41005309D01*
X69373717Y-41170347D01*
X69255001Y-41315001D01*
X69110347Y-41433717D01*
X68945309Y-41521932D01*
X68855770Y-41549093D01*
X68766232Y-41576254D01*
X68696448Y-41583127D01*
X68626666Y-41590000D01*
X68533334Y-41590000D01*
X68463552Y-41583127D01*
X68393768Y-41576254D01*
X68304230Y-41549093D01*
X68214691Y-41521932D01*
X68049653Y-41433717D01*
X67904999Y-41315001D01*
X67786283Y-41170347D01*
X67698068Y-41005309D01*
X67643746Y-40826231D01*
X67635590Y-40743416D01*
X67625404Y-40640000D01*
X67643746Y-40453768D01*
X67698068Y-40274692D01*
X67698068Y-40274691D01*
X67786283Y-40109653D01*
X67904999Y-39964999D01*
X68049653Y-39846283D01*
X68214691Y-39758068D01*
X68374790Y-39709503D01*
X68393768Y-39703746D01*
X68463552Y-39696873D01*
X68533334Y-39690000D01*
X68626666Y-39690000D01*
X68696448Y-39696873D01*
X68696448Y-39696873D01*
G37*
G36*
X66256124Y-36965952D02*
X66256127Y-36965953D01*
X66256128Y-36965953D01*
X66463950Y-37028995D01*
X66655480Y-37131370D01*
X66823357Y-37269143D01*
X66961130Y-37437020D01*
X67063505Y-37628551D01*
X67126547Y-37836373D01*
X67126548Y-37836377D01*
X67142500Y-37998341D01*
X67142500Y-38201660D01*
X67126548Y-38363624D01*
X67126547Y-38363627D01*
X67126547Y-38363628D01*
X67063505Y-38571450D01*
X66961130Y-38762980D01*
X66823357Y-38930857D01*
X66655480Y-39068630D01*
X66463949Y-39171005D01*
X66256127Y-39234047D01*
X66256126Y-39234047D01*
X66256123Y-39234048D01*
X66040000Y-39255334D01*
X65823876Y-39234048D01*
X65823873Y-39234047D01*
X65823872Y-39234047D01*
X65616050Y-39171005D01*
X65424520Y-39068630D01*
X65256643Y-38930857D01*
X65118870Y-38762980D01*
X65016495Y-38571449D01*
X64953453Y-38363627D01*
X64953453Y-38363626D01*
X64953452Y-38363623D01*
X64937500Y-38201659D01*
X64937500Y-37998340D01*
X64953452Y-37836376D01*
X65016496Y-37628548D01*
X65118869Y-37437022D01*
X65118870Y-37437020D01*
X65256643Y-37269143D01*
X65424521Y-37131370D01*
X65616051Y-37028995D01*
X65823873Y-36965953D01*
X65823874Y-36965953D01*
X65823877Y-36965952D01*
X66040000Y-36944666D01*
X66256124Y-36965952D01*
X66256124Y-36965952D01*
G37*
G36*
X63716124Y-36965952D02*
X63716127Y-36965953D01*
X63716128Y-36965953D01*
X63923950Y-37028995D01*
X64115480Y-37131370D01*
X64283357Y-37269143D01*
X64421130Y-37437020D01*
X64523505Y-37628551D01*
X64586547Y-37836373D01*
X64586548Y-37836377D01*
X64602500Y-37998341D01*
X64602500Y-38201660D01*
X64586548Y-38363624D01*
X64586547Y-38363627D01*
X64586547Y-38363628D01*
X64523505Y-38571450D01*
X64421130Y-38762980D01*
X64283357Y-38930857D01*
X64115480Y-39068630D01*
X63923949Y-39171005D01*
X63716127Y-39234047D01*
X63716126Y-39234047D01*
X63716123Y-39234048D01*
X63500000Y-39255334D01*
X63283876Y-39234048D01*
X63283873Y-39234047D01*
X63283872Y-39234047D01*
X63076050Y-39171005D01*
X62884520Y-39068630D01*
X62716643Y-38930857D01*
X62578870Y-38762980D01*
X62476495Y-38571449D01*
X62413453Y-38363627D01*
X62413453Y-38363626D01*
X62413452Y-38363623D01*
X62397500Y-38201659D01*
X62397500Y-37998340D01*
X62413452Y-37836376D01*
X62476496Y-37628548D01*
X62578869Y-37437022D01*
X62578870Y-37437020D01*
X62716643Y-37269143D01*
X62884521Y-37131370D01*
X63076051Y-37028995D01*
X63283873Y-36965953D01*
X63283874Y-36965953D01*
X63283877Y-36965952D01*
X63500000Y-36944666D01*
X63716124Y-36965952D01*
X63716124Y-36965952D01*
G37*
G36*
X61111187Y-37005974D02*
X61281588Y-37039868D01*
X61482230Y-37122977D01*
X61662803Y-37243632D01*
X61816368Y-37397197D01*
X61937023Y-37577770D01*
X62020132Y-37778412D01*
X62062500Y-37991413D01*
X62062500Y-38208587D01*
X62020132Y-38421588D01*
X61937023Y-38622230D01*
X61816368Y-38802803D01*
X61662803Y-38956368D01*
X61482230Y-39077023D01*
X61281588Y-39160132D01*
X61111187Y-39194026D01*
X61068588Y-39202500D01*
X60851412Y-39202500D01*
X60808813Y-39194026D01*
X60638412Y-39160132D01*
X60437770Y-39077023D01*
X60257197Y-38956368D01*
X60103632Y-38802803D01*
X59982977Y-38622230D01*
X59899868Y-38421588D01*
X59857500Y-38208587D01*
X59857500Y-37991413D01*
X59899868Y-37778412D01*
X59982977Y-37577770D01*
X60103632Y-37397197D01*
X60257197Y-37243632D01*
X60437770Y-37122977D01*
X60638412Y-37039868D01*
X60808813Y-37005974D01*
X60851412Y-36997500D01*
X61068588Y-36997500D01*
X61111187Y-37005974D01*
X61111187Y-37005974D01*
G37*
G36*
X81455770Y-34575372D02*
X81571689Y-34598429D01*
X81753678Y-34673811D01*
X81917463Y-34783249D01*
X82056751Y-34922537D01*
X82166189Y-35086322D01*
X82241571Y-35268311D01*
X82280000Y-35461509D01*
X82280000Y-35658491D01*
X82241571Y-35851689D01*
X82166189Y-36033678D01*
X82056751Y-36197463D01*
X81917463Y-36336751D01*
X81753678Y-36446189D01*
X81571689Y-36521571D01*
X81455770Y-36544628D01*
X81378493Y-36560000D01*
X81181507Y-36560000D01*
X81104230Y-36544628D01*
X80988311Y-36521571D01*
X80806322Y-36446189D01*
X80642537Y-36336751D01*
X80503249Y-36197463D01*
X80393811Y-36033678D01*
X80318429Y-35851689D01*
X80280000Y-35658491D01*
X80280000Y-35461509D01*
X80318429Y-35268311D01*
X80393811Y-35086322D01*
X80503249Y-34922537D01*
X80642537Y-34783249D01*
X80806322Y-34673811D01*
X80988311Y-34598429D01*
X81104230Y-34575372D01*
X81181507Y-34560000D01*
X81378493Y-34560000D01*
X81455770Y-34575372D01*
X81455770Y-34575372D01*
G37*
G36*
X81455770Y-32035372D02*
X81571689Y-32058429D01*
X81753678Y-32133811D01*
X81917463Y-32243249D01*
X82056751Y-32382537D01*
X82166189Y-32546322D01*
X82241571Y-32728311D01*
X82280000Y-32921509D01*
X82280000Y-33118491D01*
X82241571Y-33311689D01*
X82166189Y-33493678D01*
X82056751Y-33657463D01*
X81917463Y-33796751D01*
X81753678Y-33906189D01*
X81571689Y-33981571D01*
X81455770Y-34004628D01*
X81378493Y-34020000D01*
X81181507Y-34020000D01*
X81104230Y-34004628D01*
X80988311Y-33981571D01*
X80806322Y-33906189D01*
X80642537Y-33796751D01*
X80503249Y-33657463D01*
X80393811Y-33493678D01*
X80318429Y-33311689D01*
X80280000Y-33118491D01*
X80280000Y-32921509D01*
X80318429Y-32728311D01*
X80393811Y-32546322D01*
X80503249Y-32382537D01*
X80642537Y-32243249D01*
X80806322Y-32133811D01*
X80988311Y-32058429D01*
X81104230Y-32035372D01*
X81181507Y-32020000D01*
X81378493Y-32020000D01*
X81455770Y-32035372D01*
X81455770Y-32035372D01*
G37*
G36*
X81455770Y-29495372D02*
X81571689Y-29518429D01*
X81753678Y-29593811D01*
X81917463Y-29703249D01*
X82056751Y-29842537D01*
X82166189Y-30006322D01*
X82241571Y-30188311D01*
X82280000Y-30381509D01*
X82280000Y-30578491D01*
X82241571Y-30771689D01*
X82166189Y-30953678D01*
X82056751Y-31117463D01*
X81917463Y-31256751D01*
X81753678Y-31366189D01*
X81571689Y-31441571D01*
X81455770Y-31464628D01*
X81378493Y-31480000D01*
X81181507Y-31480000D01*
X81104230Y-31464628D01*
X80988311Y-31441571D01*
X80806322Y-31366189D01*
X80642537Y-31256751D01*
X80503249Y-31117463D01*
X80393811Y-30953678D01*
X80318429Y-30771689D01*
X80280000Y-30578491D01*
X80280000Y-30381509D01*
X80318429Y-30188311D01*
X80393811Y-30006322D01*
X80503249Y-29842537D01*
X80642537Y-29703249D01*
X80806322Y-29593811D01*
X80988311Y-29518429D01*
X81104230Y-29495372D01*
X81181507Y-29480000D01*
X81378493Y-29480000D01*
X81455770Y-29495372D01*
X81455770Y-29495372D01*
G37*
G36*
X76466021Y-29603047D02*
X76631993Y-29671795D01*
X76781369Y-29771605D01*
X76908395Y-29898631D01*
X77008205Y-30048007D01*
X77076953Y-30213979D01*
X77112000Y-30390174D01*
X77112000Y-30569826D01*
X77076953Y-30746021D01*
X77008205Y-30911993D01*
X76908395Y-31061369D01*
X76781369Y-31188395D01*
X76631993Y-31288205D01*
X76466021Y-31356953D01*
X76289826Y-31392000D01*
X76110174Y-31392000D01*
X75933979Y-31356953D01*
X75768007Y-31288205D01*
X75618631Y-31188395D01*
X75491605Y-31061369D01*
X75391795Y-30911993D01*
X75323047Y-30746021D01*
X75288000Y-30569826D01*
X75288000Y-30390174D01*
X75323047Y-30213979D01*
X75391795Y-30048007D01*
X75491605Y-29898631D01*
X75618631Y-29771605D01*
X75768007Y-29671795D01*
X75933979Y-29603047D01*
X76110174Y-29568000D01*
X76289826Y-29568000D01*
X76466021Y-29603047D01*
X76466021Y-29603047D01*
G37*
G36*
X73926021Y-29603047D02*
X74091993Y-29671795D01*
X74241369Y-29771605D01*
X74368395Y-29898631D01*
X74468205Y-30048007D01*
X74536953Y-30213979D01*
X74572000Y-30390174D01*
X74572000Y-30569826D01*
X74536953Y-30746021D01*
X74468205Y-30911993D01*
X74368395Y-31061369D01*
X74241369Y-31188395D01*
X74091993Y-31288205D01*
X73926021Y-31356953D01*
X73749826Y-31392000D01*
X73570174Y-31392000D01*
X73393979Y-31356953D01*
X73228007Y-31288205D01*
X73078631Y-31188395D01*
X72951605Y-31061369D01*
X72851795Y-30911993D01*
X72783047Y-30746021D01*
X72748000Y-30569826D01*
X72748000Y-30390174D01*
X72783047Y-30213979D01*
X72851795Y-30048007D01*
X72951605Y-29898631D01*
X73078631Y-29771605D01*
X73228007Y-29671795D01*
X73393979Y-29603047D01*
X73570174Y-29568000D01*
X73749826Y-29568000D01*
X73926021Y-29603047D01*
X73926021Y-29603047D01*
G37*
G36*
X71386021Y-29603047D02*
X71551993Y-29671795D01*
X71701369Y-29771605D01*
X71828395Y-29898631D01*
X71928205Y-30048007D01*
X71996953Y-30213979D01*
X72032000Y-30390174D01*
X72032000Y-30569826D01*
X71996953Y-30746021D01*
X71928205Y-30911993D01*
X71828395Y-31061369D01*
X71701369Y-31188395D01*
X71551993Y-31288205D01*
X71386021Y-31356953D01*
X71209826Y-31392000D01*
X71030174Y-31392000D01*
X70853979Y-31356953D01*
X70688007Y-31288205D01*
X70538631Y-31188395D01*
X70411605Y-31061369D01*
X70311795Y-30911993D01*
X70243047Y-30746021D01*
X70208000Y-30569826D01*
X70208000Y-30390174D01*
X70243047Y-30213979D01*
X70311795Y-30048007D01*
X70411605Y-29898631D01*
X70538631Y-29771605D01*
X70688007Y-29671795D01*
X70853979Y-29603047D01*
X71030174Y-29568000D01*
X71209826Y-29568000D01*
X71386021Y-29603047D01*
X71386021Y-29603047D01*
G37*
G36*
X81455770Y-26955372D02*
X81571689Y-26978429D01*
X81753678Y-27053811D01*
X81917463Y-27163249D01*
X82056751Y-27302537D01*
X82166189Y-27466322D01*
X82241571Y-27648311D01*
X82280000Y-27841509D01*
X82280000Y-28038491D01*
X82241571Y-28231689D01*
X82166189Y-28413678D01*
X82056751Y-28577463D01*
X81917463Y-28716751D01*
X81753678Y-28826189D01*
X81571689Y-28901571D01*
X81455770Y-28924628D01*
X81378493Y-28940000D01*
X81181507Y-28940000D01*
X81104230Y-28924628D01*
X80988311Y-28901571D01*
X80806322Y-28826189D01*
X80642537Y-28716751D01*
X80503249Y-28577463D01*
X80393811Y-28413678D01*
X80318429Y-28231689D01*
X80280000Y-28038491D01*
X80280000Y-27841509D01*
X80318429Y-27648311D01*
X80393811Y-27466322D01*
X80503249Y-27302537D01*
X80642537Y-27163249D01*
X80806322Y-27053811D01*
X80988311Y-26978429D01*
X81104230Y-26955372D01*
X81181507Y-26940000D01*
X81378493Y-26940000D01*
X81455770Y-26955372D01*
X81455770Y-26955372D01*
G37*
G36*
X81455770Y-24415372D02*
X81571689Y-24438429D01*
X81753678Y-24513811D01*
X81917463Y-24623249D01*
X82056751Y-24762537D01*
X82166189Y-24926322D01*
X82241571Y-25108311D01*
X82280000Y-25301509D01*
X82280000Y-25498491D01*
X82241571Y-25691689D01*
X82166189Y-25873678D01*
X82056751Y-26037463D01*
X81917463Y-26176751D01*
X81753678Y-26286189D01*
X81571689Y-26361571D01*
X81455770Y-26384628D01*
X81378493Y-26400000D01*
X81181507Y-26400000D01*
X81104230Y-26384628D01*
X80988311Y-26361571D01*
X80806322Y-26286189D01*
X80642537Y-26176751D01*
X80503249Y-26037463D01*
X80393811Y-25873678D01*
X80318429Y-25691689D01*
X80280000Y-25498491D01*
X80280000Y-25301509D01*
X80318429Y-25108311D01*
X80393811Y-24926322D01*
X80503249Y-24762537D01*
X80642537Y-24623249D01*
X80806322Y-24513811D01*
X80988311Y-24438429D01*
X81104230Y-24415372D01*
X81181507Y-24400000D01*
X81378493Y-24400000D01*
X81455770Y-24415372D01*
X81455770Y-24415372D01*
G37*
G36*
X76466021Y-24523047D02*
X76631993Y-24591795D01*
X76781369Y-24691605D01*
X76908395Y-24818631D01*
X77008205Y-24968007D01*
X77076953Y-25133979D01*
X77112000Y-25310174D01*
X77112000Y-25489826D01*
X77076953Y-25666021D01*
X77008205Y-25831993D01*
X76908395Y-25981369D01*
X76781369Y-26108395D01*
X76631993Y-26208205D01*
X76466021Y-26276953D01*
X76289826Y-26312000D01*
X76110174Y-26312000D01*
X75933979Y-26276953D01*
X75768007Y-26208205D01*
X75618631Y-26108395D01*
X75491605Y-25981369D01*
X75391795Y-25831993D01*
X75323047Y-25666021D01*
X75288000Y-25489826D01*
X75288000Y-25310174D01*
X75323047Y-25133979D01*
X75391795Y-24968007D01*
X75491605Y-24818631D01*
X75618631Y-24691605D01*
X75768007Y-24591795D01*
X75933979Y-24523047D01*
X76110174Y-24488000D01*
X76289826Y-24488000D01*
X76466021Y-24523047D01*
X76466021Y-24523047D01*
G37*
G36*
X71386021Y-24523047D02*
X71551993Y-24591795D01*
X71701369Y-24691605D01*
X71828395Y-24818631D01*
X71928205Y-24968007D01*
X71996953Y-25133979D01*
X72032000Y-25310174D01*
X72032000Y-25489826D01*
X71996953Y-25666021D01*
X71928205Y-25831993D01*
X71828395Y-25981369D01*
X71701369Y-26108395D01*
X71551993Y-26208205D01*
X71386021Y-26276953D01*
X71209826Y-26312000D01*
X71030174Y-26312000D01*
X70853979Y-26276953D01*
X70688007Y-26208205D01*
X70538631Y-26108395D01*
X70411605Y-25981369D01*
X70311795Y-25831993D01*
X70243047Y-25666021D01*
X70208000Y-25489826D01*
X70208000Y-25310174D01*
X70243047Y-25133979D01*
X70311795Y-24968007D01*
X70411605Y-24818631D01*
X70538631Y-24691605D01*
X70688007Y-24591795D01*
X70853979Y-24523047D01*
X71030174Y-24488000D01*
X71209826Y-24488000D01*
X71386021Y-24523047D01*
X71386021Y-24523047D01*
G37*
G36*
X73926021Y-24523047D02*
X74091993Y-24591795D01*
X74241369Y-24691605D01*
X74368395Y-24818631D01*
X74468205Y-24968007D01*
X74536953Y-25133979D01*
X74572000Y-25310174D01*
X74572000Y-25489826D01*
X74536953Y-25666021D01*
X74468205Y-25831993D01*
X74368395Y-25981369D01*
X74241369Y-26108395D01*
X74091993Y-26208205D01*
X73926021Y-26276953D01*
X73749826Y-26312000D01*
X73570174Y-26312000D01*
X73393979Y-26276953D01*
X73228007Y-26208205D01*
X73078631Y-26108395D01*
X72951605Y-25981369D01*
X72851795Y-25831993D01*
X72783047Y-25666021D01*
X72748000Y-25489826D01*
X72748000Y-25310174D01*
X72783047Y-25133979D01*
X72851795Y-24968007D01*
X72951605Y-24818631D01*
X73078631Y-24691605D01*
X73228007Y-24591795D01*
X73393979Y-24523047D01*
X73570174Y-24488000D01*
X73749826Y-24488000D01*
X73926021Y-24523047D01*
X73926021Y-24523047D01*
G37*
G36*
X50275000Y-24240000D02*
X47515000Y-24240000D01*
X47515000Y-21480000D01*
X50275000Y-21480000D01*
X50275000Y-24240000D01*
X50275000Y-24240000D01*
G37*
G36*
X43290000Y-24240000D02*
X40530000Y-24240000D01*
X40530000Y-21480000D01*
X43290000Y-21480000D01*
X43290000Y-24240000D01*
X43290000Y-24240000D01*
G37*
G36*
X28050000Y-24240000D02*
X25290000Y-24240000D01*
X25290000Y-21480000D01*
X28050000Y-21480000D01*
X28050000Y-24240000D01*
X28050000Y-24240000D01*
G37*
G36*
X57260000Y-24240000D02*
X54500000Y-24240000D01*
X54500000Y-21480000D01*
X57260000Y-21480000D01*
X57260000Y-24240000D01*
X57260000Y-24240000D01*
G37*
G36*
X81455770Y-21875372D02*
X81571689Y-21898429D01*
X81753678Y-21973811D01*
X81917463Y-22083249D01*
X82056751Y-22222537D01*
X82166189Y-22386322D01*
X82241571Y-22568311D01*
X82280000Y-22761509D01*
X82280000Y-22958491D01*
X82241571Y-23151689D01*
X82166189Y-23333678D01*
X82056751Y-23497463D01*
X81917463Y-23636751D01*
X81753678Y-23746189D01*
X81571689Y-23821571D01*
X81455770Y-23844628D01*
X81378493Y-23860000D01*
X81181507Y-23860000D01*
X81104230Y-23844628D01*
X80988311Y-23821571D01*
X80806322Y-23746189D01*
X80642537Y-23636751D01*
X80503249Y-23497463D01*
X80393811Y-23333678D01*
X80318429Y-23151689D01*
X80280000Y-22958491D01*
X80280000Y-22761509D01*
X80318429Y-22568311D01*
X80393811Y-22386322D01*
X80503249Y-22222537D01*
X80642537Y-22083249D01*
X80806322Y-21973811D01*
X80988311Y-21898429D01*
X81104230Y-21875372D01*
X81181507Y-21860000D01*
X81378493Y-21860000D01*
X81455770Y-21875372D01*
X81455770Y-21875372D01*
G37*
M02*
