M48
;DRILL file {KiCad (5.0.2)-1} date 11-04-2019 22:07:58
;FORMAT={3:3/ absolute / metric / suppress leading zeros}
FMAT,2
METRIC,TZ
T1C0.700
T2C0.762
T3C0.800
T4C1.016
T5C1.100
T6C1.430
T7C2.000
%
G90
G05
T1
X48260Y-45720
X53340Y-45720
X48260Y-48260
X53340Y-48260
T2
X71120Y-25400
X71120Y-30480
X73660Y-25400
X73660Y-30480
X76200Y-25400
X76200Y-30480
T3
X60960Y-40640
X60960Y-43180
X68580Y-40640
X68580Y-43180
X61010Y-45720
X61010Y-48260
X61010Y-50800
X61010Y-53340
X61010Y-55880
X61010Y-58420
X61010Y-60960
X61010Y-63500
X68530Y-45720
X68530Y-48260
X68530Y-50800
X68530Y-53340
X68530Y-55880
X68530Y-58420
X68530Y-60960
X68530Y-63500
T4
X81280Y-40640
X81280Y-63500
X83820Y-40640
X83820Y-63500
X86360Y-40640
X86360Y-63500
X88900Y-40640
X88900Y-63500
X91440Y-40640
X91440Y-63500
X93980Y-40640
X93980Y-63500
X96520Y-40640
X96520Y-63500
X99060Y-40640
X99060Y-63500
T5
X60960Y-38100
X63500Y-38100
X66040Y-38100
T6
X81280Y-22860
X81280Y-25400
X81280Y-27940
X81280Y-30480
X81280Y-33020
X81280Y-35560
X26670Y-22860
X30480Y-43180
X39370Y-43180
X41910Y-22860
X48895Y-22860
X55880Y-22860
X30480Y-53380
X30480Y-55880
X30480Y-58420
X26670Y-55880
X26670Y-58420
X55880Y-53340
X55880Y-55880
X55880Y-58420
X55880Y-60960
X35560Y-48260
X38100Y-48260
T7
X28500Y-76200
X96520Y-76200
T0
M30
