M48
;DRILL file {KiCad (5.0.2)-1} date 15-04-2019 11:21:33
;FORMAT={-:-/ absolute / metric / decimal}
FMAT,2
METRIC,TZ
T1C0.700
T2C0.762
T3C0.800
T4C1.016
T5C1.100
T6C1.430
T7C2.000
%
G90
G05
T1
X48.26Y-45.72
X53.34Y-45.72
X48.26Y-48.26
X53.34Y-48.26
T2
X71.12Y-25.4
X71.12Y-30.48
X73.66Y-25.4
X73.66Y-30.48
X76.2Y-25.4
X76.2Y-30.48
T3
X61.01Y-45.72
X61.01Y-48.26
X61.01Y-50.8
X61.01Y-53.34
X61.01Y-55.88
X61.01Y-58.42
X61.01Y-60.96
X61.01Y-63.5
X68.53Y-45.72
X68.53Y-48.26
X68.53Y-50.8
X68.53Y-53.34
X68.53Y-55.88
X68.53Y-58.42
X68.53Y-60.96
X68.53Y-63.5
X60.96Y-40.64
X60.96Y-43.18
X68.58Y-40.64
X68.58Y-43.18
T4
X81.28Y-40.64
X81.28Y-63.5
X83.82Y-40.64
X83.82Y-63.5
X86.36Y-40.64
X86.36Y-63.5
X88.9Y-40.64
X88.9Y-63.5
X91.44Y-40.64
X91.44Y-63.5
X93.98Y-40.64
X93.98Y-63.5
X96.52Y-40.64
X96.52Y-63.5
X99.06Y-40.64
X99.06Y-63.5
T5
X60.96Y-38.1
X63.5Y-38.1
X66.04Y-38.1
T6
X35.56Y-48.26
X38.1Y-48.26
X81.28Y-27.94
X81.28Y-30.48
X81.28Y-22.86
X81.28Y-25.4
X30.48Y-53.38
X30.48Y-55.88
X30.48Y-58.42
X26.67Y-55.88
X26.67Y-58.42
X55.88Y-53.34
X55.88Y-55.88
X55.88Y-58.42
X55.88Y-60.96
X26.67Y-22.86
X30.48Y-43.18
X39.37Y-43.18
X41.91Y-22.86
X48.895Y-22.86
X55.88Y-22.86
X81.28Y-33.02
X81.28Y-35.56
T7
X28.5Y-76.2
X96.52Y-76.2
T0
M30
