G04 #@! TF.GenerationSoftware,KiCad,Pcbnew,(5.0.2)-1*
G04 #@! TF.CreationDate,2019-04-15T11:25:42+02:00*
G04 #@! TF.ProjectId,irrigation_5Vvalve_4N25_CD74HC4052E_PCB v5.2,69727269-6761-4746-996f-6e5f35567661,rev?*
G04 #@! TF.SameCoordinates,Original*
G04 #@! TF.FileFunction,Soldermask,Top*
G04 #@! TF.FilePolarity,Negative*
%FSLAX46Y46*%
G04 Gerber Fmt 4.6, Leading zero omitted, Abs format (unit mm)*
G04 Created by KiCad (PCBNEW (5.0.2)-1) date 15-04-2019 11:25:42*
%MOMM*%
%LPD*%
G01*
G04 APERTURE LIST*
%ADD10C,0.100000*%
G04 APERTURE END LIST*
D10*
G36*
X97088793Y-74324937D02*
X97443670Y-74471932D01*
X97763055Y-74685338D01*
X98034662Y-74956945D01*
X98248068Y-75276330D01*
X98395063Y-75631207D01*
X98470000Y-76007940D01*
X98470000Y-76392060D01*
X98395063Y-76768793D01*
X98248068Y-77123670D01*
X98034662Y-77443055D01*
X97763055Y-77714662D01*
X97443670Y-77928068D01*
X97088793Y-78075063D01*
X96712060Y-78150000D01*
X96327940Y-78150000D01*
X95951207Y-78075063D01*
X95596330Y-77928068D01*
X95276945Y-77714662D01*
X95005338Y-77443055D01*
X94791932Y-77123670D01*
X94644937Y-76768793D01*
X94570000Y-76392060D01*
X94570000Y-76007940D01*
X94644937Y-75631207D01*
X94791932Y-75276330D01*
X95005338Y-74956945D01*
X95276945Y-74685338D01*
X95596330Y-74471932D01*
X95951207Y-74324937D01*
X96327940Y-74250000D01*
X96712060Y-74250000D01*
X97088793Y-74324937D01*
X97088793Y-74324937D01*
G37*
G36*
X30450000Y-78150000D02*
X26550000Y-78150000D01*
X26550000Y-74250000D01*
X30450000Y-74250000D01*
X30450000Y-78150000D01*
X30450000Y-78150000D01*
G37*
G36*
X99380857Y-62442272D02*
X99581042Y-62525191D01*
X99761213Y-62645578D01*
X99914422Y-62798787D01*
X99914424Y-62798790D01*
X99914425Y-62798791D01*
X100003151Y-62931578D01*
X100034809Y-62978958D01*
X100117728Y-63179143D01*
X100160000Y-63391658D01*
X100160000Y-63608342D01*
X100117728Y-63820857D01*
X100034809Y-64021042D01*
X100034807Y-64021045D01*
X99936353Y-64168392D01*
X99914422Y-64201213D01*
X99761213Y-64354422D01*
X99581042Y-64474809D01*
X99380857Y-64557728D01*
X99168342Y-64600000D01*
X98951658Y-64600000D01*
X98739143Y-64557728D01*
X98538958Y-64474809D01*
X98358787Y-64354422D01*
X98205578Y-64201213D01*
X98183648Y-64168392D01*
X98085193Y-64021045D01*
X98085191Y-64021042D01*
X98002272Y-63820857D01*
X97960000Y-63608342D01*
X97960000Y-63391658D01*
X98002272Y-63179143D01*
X98085191Y-62978958D01*
X98116849Y-62931578D01*
X98205575Y-62798791D01*
X98205576Y-62798790D01*
X98205578Y-62798787D01*
X98358787Y-62645578D01*
X98538958Y-62525191D01*
X98739143Y-62442272D01*
X98951658Y-62400000D01*
X99168342Y-62400000D01*
X99380857Y-62442272D01*
X99380857Y-62442272D01*
G37*
G36*
X96840857Y-62442272D02*
X97041042Y-62525191D01*
X97221213Y-62645578D01*
X97374422Y-62798787D01*
X97374424Y-62798790D01*
X97374425Y-62798791D01*
X97463151Y-62931578D01*
X97494809Y-62978958D01*
X97577728Y-63179143D01*
X97620000Y-63391658D01*
X97620000Y-63608342D01*
X97577728Y-63820857D01*
X97494809Y-64021042D01*
X97494807Y-64021045D01*
X97396353Y-64168392D01*
X97374422Y-64201213D01*
X97221213Y-64354422D01*
X97041042Y-64474809D01*
X96840857Y-64557728D01*
X96628342Y-64600000D01*
X96411658Y-64600000D01*
X96199143Y-64557728D01*
X95998958Y-64474809D01*
X95818787Y-64354422D01*
X95665578Y-64201213D01*
X95643648Y-64168392D01*
X95545193Y-64021045D01*
X95545191Y-64021042D01*
X95462272Y-63820857D01*
X95420000Y-63608342D01*
X95420000Y-63391658D01*
X95462272Y-63179143D01*
X95545191Y-62978958D01*
X95576849Y-62931578D01*
X95665575Y-62798791D01*
X95665576Y-62798790D01*
X95665578Y-62798787D01*
X95818787Y-62645578D01*
X95998958Y-62525191D01*
X96199143Y-62442272D01*
X96411658Y-62400000D01*
X96628342Y-62400000D01*
X96840857Y-62442272D01*
X96840857Y-62442272D01*
G37*
G36*
X94300857Y-62442272D02*
X94501042Y-62525191D01*
X94681213Y-62645578D01*
X94834422Y-62798787D01*
X94834424Y-62798790D01*
X94834425Y-62798791D01*
X94923151Y-62931578D01*
X94954809Y-62978958D01*
X95037728Y-63179143D01*
X95080000Y-63391658D01*
X95080000Y-63608342D01*
X95037728Y-63820857D01*
X94954809Y-64021042D01*
X94954807Y-64021045D01*
X94856353Y-64168392D01*
X94834422Y-64201213D01*
X94681213Y-64354422D01*
X94501042Y-64474809D01*
X94300857Y-64557728D01*
X94088342Y-64600000D01*
X93871658Y-64600000D01*
X93659143Y-64557728D01*
X93458958Y-64474809D01*
X93278787Y-64354422D01*
X93125578Y-64201213D01*
X93103648Y-64168392D01*
X93005193Y-64021045D01*
X93005191Y-64021042D01*
X92922272Y-63820857D01*
X92880000Y-63608342D01*
X92880000Y-63391658D01*
X92922272Y-63179143D01*
X93005191Y-62978958D01*
X93036849Y-62931578D01*
X93125575Y-62798791D01*
X93125576Y-62798790D01*
X93125578Y-62798787D01*
X93278787Y-62645578D01*
X93458958Y-62525191D01*
X93659143Y-62442272D01*
X93871658Y-62400000D01*
X94088342Y-62400000D01*
X94300857Y-62442272D01*
X94300857Y-62442272D01*
G37*
G36*
X89220857Y-62442272D02*
X89421042Y-62525191D01*
X89601213Y-62645578D01*
X89754422Y-62798787D01*
X89754424Y-62798790D01*
X89754425Y-62798791D01*
X89843151Y-62931578D01*
X89874809Y-62978958D01*
X89957728Y-63179143D01*
X90000000Y-63391658D01*
X90000000Y-63608342D01*
X89957728Y-63820857D01*
X89874809Y-64021042D01*
X89874807Y-64021045D01*
X89776353Y-64168392D01*
X89754422Y-64201213D01*
X89601213Y-64354422D01*
X89421042Y-64474809D01*
X89220857Y-64557728D01*
X89008342Y-64600000D01*
X88791658Y-64600000D01*
X88579143Y-64557728D01*
X88378958Y-64474809D01*
X88198787Y-64354422D01*
X88045578Y-64201213D01*
X88023648Y-64168392D01*
X87925193Y-64021045D01*
X87925191Y-64021042D01*
X87842272Y-63820857D01*
X87800000Y-63608342D01*
X87800000Y-63391658D01*
X87842272Y-63179143D01*
X87925191Y-62978958D01*
X87956849Y-62931578D01*
X88045575Y-62798791D01*
X88045576Y-62798790D01*
X88045578Y-62798787D01*
X88198787Y-62645578D01*
X88378958Y-62525191D01*
X88579143Y-62442272D01*
X88791658Y-62400000D01*
X89008342Y-62400000D01*
X89220857Y-62442272D01*
X89220857Y-62442272D01*
G37*
G36*
X86680857Y-62442272D02*
X86881042Y-62525191D01*
X87061213Y-62645578D01*
X87214422Y-62798787D01*
X87214424Y-62798790D01*
X87214425Y-62798791D01*
X87303151Y-62931578D01*
X87334809Y-62978958D01*
X87417728Y-63179143D01*
X87460000Y-63391658D01*
X87460000Y-63608342D01*
X87417728Y-63820857D01*
X87334809Y-64021042D01*
X87334807Y-64021045D01*
X87236353Y-64168392D01*
X87214422Y-64201213D01*
X87061213Y-64354422D01*
X86881042Y-64474809D01*
X86680857Y-64557728D01*
X86468342Y-64600000D01*
X86251658Y-64600000D01*
X86039143Y-64557728D01*
X85838958Y-64474809D01*
X85658787Y-64354422D01*
X85505578Y-64201213D01*
X85483648Y-64168392D01*
X85385193Y-64021045D01*
X85385191Y-64021042D01*
X85302272Y-63820857D01*
X85260000Y-63608342D01*
X85260000Y-63391658D01*
X85302272Y-63179143D01*
X85385191Y-62978958D01*
X85416849Y-62931578D01*
X85505575Y-62798791D01*
X85505576Y-62798790D01*
X85505578Y-62798787D01*
X85658787Y-62645578D01*
X85838958Y-62525191D01*
X86039143Y-62442272D01*
X86251658Y-62400000D01*
X86468342Y-62400000D01*
X86680857Y-62442272D01*
X86680857Y-62442272D01*
G37*
G36*
X84140857Y-62442272D02*
X84341042Y-62525191D01*
X84521213Y-62645578D01*
X84674422Y-62798787D01*
X84674424Y-62798790D01*
X84674425Y-62798791D01*
X84763151Y-62931578D01*
X84794809Y-62978958D01*
X84877728Y-63179143D01*
X84920000Y-63391658D01*
X84920000Y-63608342D01*
X84877728Y-63820857D01*
X84794809Y-64021042D01*
X84794807Y-64021045D01*
X84696353Y-64168392D01*
X84674422Y-64201213D01*
X84521213Y-64354422D01*
X84341042Y-64474809D01*
X84140857Y-64557728D01*
X83928342Y-64600000D01*
X83711658Y-64600000D01*
X83499143Y-64557728D01*
X83298958Y-64474809D01*
X83118787Y-64354422D01*
X82965578Y-64201213D01*
X82943648Y-64168392D01*
X82845193Y-64021045D01*
X82845191Y-64021042D01*
X82762272Y-63820857D01*
X82720000Y-63608342D01*
X82720000Y-63391658D01*
X82762272Y-63179143D01*
X82845191Y-62978958D01*
X82876849Y-62931578D01*
X82965575Y-62798791D01*
X82965576Y-62798790D01*
X82965578Y-62798787D01*
X83118787Y-62645578D01*
X83298958Y-62525191D01*
X83499143Y-62442272D01*
X83711658Y-62400000D01*
X83928342Y-62400000D01*
X84140857Y-62442272D01*
X84140857Y-62442272D01*
G37*
G36*
X81600857Y-62442272D02*
X81801042Y-62525191D01*
X81981213Y-62645578D01*
X82134422Y-62798787D01*
X82134424Y-62798790D01*
X82134425Y-62798791D01*
X82223151Y-62931578D01*
X82254809Y-62978958D01*
X82337728Y-63179143D01*
X82380000Y-63391658D01*
X82380000Y-63608342D01*
X82337728Y-63820857D01*
X82254809Y-64021042D01*
X82254807Y-64021045D01*
X82156353Y-64168392D01*
X82134422Y-64201213D01*
X81981213Y-64354422D01*
X81801042Y-64474809D01*
X81600857Y-64557728D01*
X81388342Y-64600000D01*
X81171658Y-64600000D01*
X80959143Y-64557728D01*
X80758958Y-64474809D01*
X80578787Y-64354422D01*
X80425578Y-64201213D01*
X80403648Y-64168392D01*
X80305193Y-64021045D01*
X80305191Y-64021042D01*
X80222272Y-63820857D01*
X80180000Y-63608342D01*
X80180000Y-63391658D01*
X80222272Y-63179143D01*
X80305191Y-62978958D01*
X80336849Y-62931578D01*
X80425575Y-62798791D01*
X80425576Y-62798790D01*
X80425578Y-62798787D01*
X80578787Y-62645578D01*
X80758958Y-62525191D01*
X80959143Y-62442272D01*
X81171658Y-62400000D01*
X81388342Y-62400000D01*
X81600857Y-62442272D01*
X81600857Y-62442272D01*
G37*
G36*
X91760857Y-62442272D02*
X91961042Y-62525191D01*
X92141213Y-62645578D01*
X92294422Y-62798787D01*
X92294424Y-62798790D01*
X92294425Y-62798791D01*
X92383151Y-62931578D01*
X92414809Y-62978958D01*
X92497728Y-63179143D01*
X92540000Y-63391658D01*
X92540000Y-63608342D01*
X92497728Y-63820857D01*
X92414809Y-64021042D01*
X92414807Y-64021045D01*
X92316353Y-64168392D01*
X92294422Y-64201213D01*
X92141213Y-64354422D01*
X91961042Y-64474809D01*
X91760857Y-64557728D01*
X91548342Y-64600000D01*
X91331658Y-64600000D01*
X91119143Y-64557728D01*
X90918958Y-64474809D01*
X90738787Y-64354422D01*
X90585578Y-64201213D01*
X90563648Y-64168392D01*
X90465193Y-64021045D01*
X90465191Y-64021042D01*
X90382272Y-63820857D01*
X90340000Y-63608342D01*
X90340000Y-63391658D01*
X90382272Y-63179143D01*
X90465191Y-62978958D01*
X90496849Y-62931578D01*
X90585575Y-62798791D01*
X90585576Y-62798790D01*
X90585578Y-62798787D01*
X90738787Y-62645578D01*
X90918958Y-62525191D01*
X91119143Y-62442272D01*
X91331658Y-62400000D01*
X91548342Y-62400000D01*
X91760857Y-62442272D01*
X91760857Y-62442272D01*
G37*
G36*
X69047649Y-62707717D02*
X69086827Y-62711576D01*
X69162228Y-62734449D01*
X69237629Y-62757321D01*
X69376608Y-62831608D01*
X69498422Y-62931578D01*
X69598392Y-63053392D01*
X69672679Y-63192371D01*
X69718424Y-63343174D01*
X69733870Y-63500000D01*
X69718424Y-63656826D01*
X69672679Y-63807629D01*
X69598392Y-63946608D01*
X69498422Y-64068422D01*
X69376608Y-64168392D01*
X69237629Y-64242679D01*
X69162227Y-64265552D01*
X69086827Y-64288424D01*
X69047649Y-64292283D01*
X68969295Y-64300000D01*
X68090705Y-64300000D01*
X68012351Y-64292283D01*
X67973173Y-64288424D01*
X67897772Y-64265551D01*
X67822371Y-64242679D01*
X67683392Y-64168392D01*
X67561578Y-64068422D01*
X67461608Y-63946608D01*
X67387321Y-63807629D01*
X67341576Y-63656826D01*
X67326130Y-63500000D01*
X67341576Y-63343174D01*
X67387321Y-63192371D01*
X67461608Y-63053392D01*
X67561578Y-62931578D01*
X67683392Y-62831608D01*
X67822371Y-62757321D01*
X67897772Y-62734449D01*
X67973173Y-62711576D01*
X68012351Y-62707717D01*
X68090705Y-62700000D01*
X68969295Y-62700000D01*
X69047649Y-62707717D01*
X69047649Y-62707717D01*
G37*
G36*
X61527649Y-62707717D02*
X61566827Y-62711576D01*
X61642228Y-62734449D01*
X61717629Y-62757321D01*
X61856608Y-62831608D01*
X61978422Y-62931578D01*
X62078392Y-63053392D01*
X62152679Y-63192371D01*
X62198424Y-63343174D01*
X62213870Y-63500000D01*
X62198424Y-63656826D01*
X62152679Y-63807629D01*
X62078392Y-63946608D01*
X61978422Y-64068422D01*
X61856608Y-64168392D01*
X61717629Y-64242679D01*
X61642227Y-64265552D01*
X61566827Y-64288424D01*
X61527649Y-64292283D01*
X61449295Y-64300000D01*
X60570705Y-64300000D01*
X60492351Y-64292283D01*
X60453173Y-64288424D01*
X60377772Y-64265551D01*
X60302371Y-64242679D01*
X60163392Y-64168392D01*
X60041578Y-64068422D01*
X59941608Y-63946608D01*
X59867321Y-63807629D01*
X59821576Y-63656826D01*
X59806130Y-63500000D01*
X59821576Y-63343174D01*
X59867321Y-63192371D01*
X59941608Y-63053392D01*
X60041578Y-62931578D01*
X60163392Y-62831608D01*
X60302371Y-62757321D01*
X60377772Y-62734449D01*
X60453173Y-62711576D01*
X60492351Y-62707717D01*
X60570705Y-62700000D01*
X61449295Y-62700000D01*
X61527649Y-62707717D01*
X61527649Y-62707717D01*
G37*
G36*
X56005888Y-59914470D02*
X56186274Y-59950350D01*
X56377362Y-60029502D01*
X56549336Y-60144411D01*
X56695589Y-60290664D01*
X56810498Y-60462638D01*
X56889650Y-60653726D01*
X56930000Y-60856584D01*
X56930000Y-61063416D01*
X56889650Y-61266274D01*
X56810498Y-61457362D01*
X56695589Y-61629336D01*
X56549336Y-61775589D01*
X56377362Y-61890498D01*
X56186274Y-61969650D01*
X56005888Y-62005530D01*
X55983417Y-62010000D01*
X55776583Y-62010000D01*
X55754112Y-62005530D01*
X55573726Y-61969650D01*
X55382638Y-61890498D01*
X55210664Y-61775589D01*
X55064411Y-61629336D01*
X54949502Y-61457362D01*
X54870350Y-61266274D01*
X54830000Y-61063416D01*
X54830000Y-60856584D01*
X54870350Y-60653726D01*
X54949502Y-60462638D01*
X55064411Y-60290664D01*
X55210664Y-60144411D01*
X55382638Y-60029502D01*
X55573726Y-59950350D01*
X55754112Y-59914470D01*
X55776583Y-59910000D01*
X55983417Y-59910000D01*
X56005888Y-59914470D01*
X56005888Y-59914470D01*
G37*
G36*
X61527649Y-60167717D02*
X61566827Y-60171576D01*
X61642227Y-60194448D01*
X61717629Y-60217321D01*
X61856608Y-60291608D01*
X61978422Y-60391578D01*
X62078392Y-60513392D01*
X62152679Y-60652371D01*
X62198424Y-60803174D01*
X62213870Y-60960000D01*
X62198424Y-61116826D01*
X62152679Y-61267629D01*
X62078392Y-61406608D01*
X61978422Y-61528422D01*
X61856608Y-61628392D01*
X61717629Y-61702679D01*
X61642228Y-61725551D01*
X61566827Y-61748424D01*
X61527649Y-61752283D01*
X61449295Y-61760000D01*
X60570705Y-61760000D01*
X60492351Y-61752283D01*
X60453173Y-61748424D01*
X60377772Y-61725551D01*
X60302371Y-61702679D01*
X60163392Y-61628392D01*
X60041578Y-61528422D01*
X59941608Y-61406608D01*
X59867321Y-61267629D01*
X59821576Y-61116826D01*
X59806130Y-60960000D01*
X59821576Y-60803174D01*
X59867321Y-60652371D01*
X59941608Y-60513392D01*
X60041578Y-60391578D01*
X60163392Y-60291608D01*
X60302371Y-60217321D01*
X60377773Y-60194448D01*
X60453173Y-60171576D01*
X60492351Y-60167717D01*
X60570705Y-60160000D01*
X61449295Y-60160000D01*
X61527649Y-60167717D01*
X61527649Y-60167717D01*
G37*
G36*
X69047649Y-60167717D02*
X69086827Y-60171576D01*
X69162227Y-60194448D01*
X69237629Y-60217321D01*
X69376608Y-60291608D01*
X69498422Y-60391578D01*
X69598392Y-60513392D01*
X69672679Y-60652371D01*
X69718424Y-60803174D01*
X69733870Y-60960000D01*
X69718424Y-61116826D01*
X69672679Y-61267629D01*
X69598392Y-61406608D01*
X69498422Y-61528422D01*
X69376608Y-61628392D01*
X69237629Y-61702679D01*
X69162228Y-61725551D01*
X69086827Y-61748424D01*
X69047649Y-61752283D01*
X68969295Y-61760000D01*
X68090705Y-61760000D01*
X68012351Y-61752283D01*
X67973173Y-61748424D01*
X67897772Y-61725551D01*
X67822371Y-61702679D01*
X67683392Y-61628392D01*
X67561578Y-61528422D01*
X67461608Y-61406608D01*
X67387321Y-61267629D01*
X67341576Y-61116826D01*
X67326130Y-60960000D01*
X67341576Y-60803174D01*
X67387321Y-60652371D01*
X67461608Y-60513392D01*
X67561578Y-60391578D01*
X67683392Y-60291608D01*
X67822371Y-60217321D01*
X67897773Y-60194448D01*
X67973173Y-60171576D01*
X68012351Y-60167717D01*
X68090705Y-60160000D01*
X68969295Y-60160000D01*
X69047649Y-60167717D01*
X69047649Y-60167717D01*
G37*
G36*
X26795888Y-57374470D02*
X26976274Y-57410350D01*
X27167362Y-57489502D01*
X27339336Y-57604411D01*
X27485589Y-57750664D01*
X27600498Y-57922638D01*
X27679650Y-58113726D01*
X27720000Y-58316584D01*
X27720000Y-58523416D01*
X27679650Y-58726274D01*
X27600498Y-58917362D01*
X27485589Y-59089336D01*
X27339336Y-59235589D01*
X27167362Y-59350498D01*
X26976274Y-59429650D01*
X26795888Y-59465530D01*
X26773417Y-59470000D01*
X26566583Y-59470000D01*
X26544112Y-59465530D01*
X26363726Y-59429650D01*
X26172638Y-59350498D01*
X26000664Y-59235589D01*
X25854411Y-59089336D01*
X25739502Y-58917362D01*
X25660350Y-58726274D01*
X25620000Y-58523416D01*
X25620000Y-58316584D01*
X25660350Y-58113726D01*
X25739502Y-57922638D01*
X25854411Y-57750664D01*
X26000664Y-57604411D01*
X26172638Y-57489502D01*
X26363726Y-57410350D01*
X26544112Y-57374470D01*
X26566583Y-57370000D01*
X26773417Y-57370000D01*
X26795888Y-57374470D01*
X26795888Y-57374470D01*
G37*
G36*
X56005888Y-57374470D02*
X56186274Y-57410350D01*
X56377362Y-57489502D01*
X56549336Y-57604411D01*
X56695589Y-57750664D01*
X56810498Y-57922638D01*
X56889650Y-58113726D01*
X56930000Y-58316584D01*
X56930000Y-58523416D01*
X56889650Y-58726274D01*
X56810498Y-58917362D01*
X56695589Y-59089336D01*
X56549336Y-59235589D01*
X56377362Y-59350498D01*
X56186274Y-59429650D01*
X56005888Y-59465530D01*
X55983417Y-59470000D01*
X55776583Y-59470000D01*
X55754112Y-59465530D01*
X55573726Y-59429650D01*
X55382638Y-59350498D01*
X55210664Y-59235589D01*
X55064411Y-59089336D01*
X54949502Y-58917362D01*
X54870350Y-58726274D01*
X54830000Y-58523416D01*
X54830000Y-58316584D01*
X54870350Y-58113726D01*
X54949502Y-57922638D01*
X55064411Y-57750664D01*
X55210664Y-57604411D01*
X55382638Y-57489502D01*
X55573726Y-57410350D01*
X55754112Y-57374470D01*
X55776583Y-57370000D01*
X55983417Y-57370000D01*
X56005888Y-57374470D01*
X56005888Y-57374470D01*
G37*
G36*
X30605888Y-57374470D02*
X30786274Y-57410350D01*
X30977362Y-57489502D01*
X31149336Y-57604411D01*
X31295589Y-57750664D01*
X31410498Y-57922638D01*
X31489650Y-58113726D01*
X31530000Y-58316584D01*
X31530000Y-58523416D01*
X31489650Y-58726274D01*
X31410498Y-58917362D01*
X31295589Y-59089336D01*
X31149336Y-59235589D01*
X30977362Y-59350498D01*
X30786274Y-59429650D01*
X30605888Y-59465530D01*
X30583417Y-59470000D01*
X30376583Y-59470000D01*
X30354112Y-59465530D01*
X30173726Y-59429650D01*
X29982638Y-59350498D01*
X29810664Y-59235589D01*
X29664411Y-59089336D01*
X29549502Y-58917362D01*
X29470350Y-58726274D01*
X29430000Y-58523416D01*
X29430000Y-58316584D01*
X29470350Y-58113726D01*
X29549502Y-57922638D01*
X29664411Y-57750664D01*
X29810664Y-57604411D01*
X29982638Y-57489502D01*
X30173726Y-57410350D01*
X30354112Y-57374470D01*
X30376583Y-57370000D01*
X30583417Y-57370000D01*
X30605888Y-57374470D01*
X30605888Y-57374470D01*
G37*
G36*
X69047649Y-57627717D02*
X69086827Y-57631576D01*
X69162228Y-57654449D01*
X69237629Y-57677321D01*
X69376608Y-57751608D01*
X69498422Y-57851578D01*
X69598392Y-57973392D01*
X69672679Y-58112371D01*
X69718424Y-58263174D01*
X69733870Y-58420000D01*
X69718424Y-58576826D01*
X69672679Y-58727629D01*
X69598392Y-58866608D01*
X69498422Y-58988422D01*
X69376608Y-59088392D01*
X69237629Y-59162679D01*
X69162228Y-59185551D01*
X69086827Y-59208424D01*
X69047649Y-59212283D01*
X68969295Y-59220000D01*
X68090705Y-59220000D01*
X68012351Y-59212283D01*
X67973173Y-59208424D01*
X67897772Y-59185551D01*
X67822371Y-59162679D01*
X67683392Y-59088392D01*
X67561578Y-58988422D01*
X67461608Y-58866608D01*
X67387321Y-58727629D01*
X67341576Y-58576826D01*
X67326130Y-58420000D01*
X67341576Y-58263174D01*
X67387321Y-58112371D01*
X67461608Y-57973392D01*
X67561578Y-57851578D01*
X67683392Y-57751608D01*
X67822371Y-57677321D01*
X67897772Y-57654449D01*
X67973173Y-57631576D01*
X68012351Y-57627717D01*
X68090705Y-57620000D01*
X68969295Y-57620000D01*
X69047649Y-57627717D01*
X69047649Y-57627717D01*
G37*
G36*
X61527649Y-57627717D02*
X61566827Y-57631576D01*
X61642228Y-57654449D01*
X61717629Y-57677321D01*
X61856608Y-57751608D01*
X61978422Y-57851578D01*
X62078392Y-57973392D01*
X62152679Y-58112371D01*
X62198424Y-58263174D01*
X62213870Y-58420000D01*
X62198424Y-58576826D01*
X62152679Y-58727629D01*
X62078392Y-58866608D01*
X61978422Y-58988422D01*
X61856608Y-59088392D01*
X61717629Y-59162679D01*
X61642228Y-59185551D01*
X61566827Y-59208424D01*
X61527649Y-59212283D01*
X61449295Y-59220000D01*
X60570705Y-59220000D01*
X60492351Y-59212283D01*
X60453173Y-59208424D01*
X60377772Y-59185551D01*
X60302371Y-59162679D01*
X60163392Y-59088392D01*
X60041578Y-58988422D01*
X59941608Y-58866608D01*
X59867321Y-58727629D01*
X59821576Y-58576826D01*
X59806130Y-58420000D01*
X59821576Y-58263174D01*
X59867321Y-58112371D01*
X59941608Y-57973392D01*
X60041578Y-57851578D01*
X60163392Y-57751608D01*
X60302371Y-57677321D01*
X60377772Y-57654449D01*
X60453173Y-57631576D01*
X60492351Y-57627717D01*
X60570705Y-57620000D01*
X61449295Y-57620000D01*
X61527649Y-57627717D01*
X61527649Y-57627717D01*
G37*
G36*
X30605888Y-54834470D02*
X30786274Y-54870350D01*
X30977362Y-54949502D01*
X31149336Y-55064411D01*
X31295589Y-55210664D01*
X31410498Y-55382638D01*
X31489650Y-55573726D01*
X31530000Y-55776584D01*
X31530000Y-55983416D01*
X31489650Y-56186274D01*
X31410498Y-56377362D01*
X31295589Y-56549336D01*
X31149336Y-56695589D01*
X30977362Y-56810498D01*
X30786274Y-56889650D01*
X30605888Y-56925530D01*
X30583417Y-56930000D01*
X30376583Y-56930000D01*
X30354112Y-56925530D01*
X30173726Y-56889650D01*
X29982638Y-56810498D01*
X29810664Y-56695589D01*
X29664411Y-56549336D01*
X29549502Y-56377362D01*
X29470350Y-56186274D01*
X29430000Y-55983416D01*
X29430000Y-55776584D01*
X29470350Y-55573726D01*
X29549502Y-55382638D01*
X29664411Y-55210664D01*
X29810664Y-55064411D01*
X29982638Y-54949502D01*
X30173726Y-54870350D01*
X30354112Y-54834470D01*
X30376583Y-54830000D01*
X30583417Y-54830000D01*
X30605888Y-54834470D01*
X30605888Y-54834470D01*
G37*
G36*
X56005888Y-54834470D02*
X56186274Y-54870350D01*
X56377362Y-54949502D01*
X56549336Y-55064411D01*
X56695589Y-55210664D01*
X56810498Y-55382638D01*
X56889650Y-55573726D01*
X56930000Y-55776584D01*
X56930000Y-55983416D01*
X56889650Y-56186274D01*
X56810498Y-56377362D01*
X56695589Y-56549336D01*
X56549336Y-56695589D01*
X56377362Y-56810498D01*
X56186274Y-56889650D01*
X56005888Y-56925530D01*
X55983417Y-56930000D01*
X55776583Y-56930000D01*
X55754112Y-56925530D01*
X55573726Y-56889650D01*
X55382638Y-56810498D01*
X55210664Y-56695589D01*
X55064411Y-56549336D01*
X54949502Y-56377362D01*
X54870350Y-56186274D01*
X54830000Y-55983416D01*
X54830000Y-55776584D01*
X54870350Y-55573726D01*
X54949502Y-55382638D01*
X55064411Y-55210664D01*
X55210664Y-55064411D01*
X55382638Y-54949502D01*
X55573726Y-54870350D01*
X55754112Y-54834470D01*
X55776583Y-54830000D01*
X55983417Y-54830000D01*
X56005888Y-54834470D01*
X56005888Y-54834470D01*
G37*
G36*
X26795888Y-54834470D02*
X26976274Y-54870350D01*
X27167362Y-54949502D01*
X27339336Y-55064411D01*
X27485589Y-55210664D01*
X27600498Y-55382638D01*
X27679650Y-55573726D01*
X27720000Y-55776584D01*
X27720000Y-55983416D01*
X27679650Y-56186274D01*
X27600498Y-56377362D01*
X27485589Y-56549336D01*
X27339336Y-56695589D01*
X27167362Y-56810498D01*
X26976274Y-56889650D01*
X26795888Y-56925530D01*
X26773417Y-56930000D01*
X26566583Y-56930000D01*
X26544112Y-56925530D01*
X26363726Y-56889650D01*
X26172638Y-56810498D01*
X26000664Y-56695589D01*
X25854411Y-56549336D01*
X25739502Y-56377362D01*
X25660350Y-56186274D01*
X25620000Y-55983416D01*
X25620000Y-55776584D01*
X25660350Y-55573726D01*
X25739502Y-55382638D01*
X25854411Y-55210664D01*
X26000664Y-55064411D01*
X26172638Y-54949502D01*
X26363726Y-54870350D01*
X26544112Y-54834470D01*
X26566583Y-54830000D01*
X26773417Y-54830000D01*
X26795888Y-54834470D01*
X26795888Y-54834470D01*
G37*
G36*
X69047649Y-55087717D02*
X69086827Y-55091576D01*
X69162227Y-55114448D01*
X69237629Y-55137321D01*
X69376608Y-55211608D01*
X69498422Y-55311578D01*
X69598392Y-55433392D01*
X69672679Y-55572371D01*
X69718424Y-55723174D01*
X69733870Y-55880000D01*
X69718424Y-56036826D01*
X69672679Y-56187629D01*
X69598392Y-56326608D01*
X69498422Y-56448422D01*
X69376608Y-56548392D01*
X69237629Y-56622679D01*
X69162228Y-56645551D01*
X69086827Y-56668424D01*
X69047649Y-56672283D01*
X68969295Y-56680000D01*
X68090705Y-56680000D01*
X68012351Y-56672283D01*
X67973173Y-56668424D01*
X67897772Y-56645551D01*
X67822371Y-56622679D01*
X67683392Y-56548392D01*
X67561578Y-56448422D01*
X67461608Y-56326608D01*
X67387321Y-56187629D01*
X67341576Y-56036826D01*
X67326130Y-55880000D01*
X67341576Y-55723174D01*
X67387321Y-55572371D01*
X67461608Y-55433392D01*
X67561578Y-55311578D01*
X67683392Y-55211608D01*
X67822371Y-55137321D01*
X67897773Y-55114448D01*
X67973173Y-55091576D01*
X68012351Y-55087717D01*
X68090705Y-55080000D01*
X68969295Y-55080000D01*
X69047649Y-55087717D01*
X69047649Y-55087717D01*
G37*
G36*
X61527649Y-55087717D02*
X61566827Y-55091576D01*
X61642227Y-55114448D01*
X61717629Y-55137321D01*
X61856608Y-55211608D01*
X61978422Y-55311578D01*
X62078392Y-55433392D01*
X62152679Y-55572371D01*
X62198424Y-55723174D01*
X62213870Y-55880000D01*
X62198424Y-56036826D01*
X62152679Y-56187629D01*
X62078392Y-56326608D01*
X61978422Y-56448422D01*
X61856608Y-56548392D01*
X61717629Y-56622679D01*
X61642228Y-56645551D01*
X61566827Y-56668424D01*
X61527649Y-56672283D01*
X61449295Y-56680000D01*
X60570705Y-56680000D01*
X60492351Y-56672283D01*
X60453173Y-56668424D01*
X60377772Y-56645551D01*
X60302371Y-56622679D01*
X60163392Y-56548392D01*
X60041578Y-56448422D01*
X59941608Y-56326608D01*
X59867321Y-56187629D01*
X59821576Y-56036826D01*
X59806130Y-55880000D01*
X59821576Y-55723174D01*
X59867321Y-55572371D01*
X59941608Y-55433392D01*
X60041578Y-55311578D01*
X60163392Y-55211608D01*
X60302371Y-55137321D01*
X60377773Y-55114448D01*
X60453173Y-55091576D01*
X60492351Y-55087717D01*
X60570705Y-55080000D01*
X61449295Y-55080000D01*
X61527649Y-55087717D01*
X61527649Y-55087717D01*
G37*
G36*
X30605888Y-52334470D02*
X30786274Y-52370350D01*
X30977362Y-52449502D01*
X31149336Y-52564411D01*
X31295589Y-52710664D01*
X31410498Y-52882638D01*
X31489650Y-53073726D01*
X31522043Y-53236583D01*
X31530000Y-53276583D01*
X31530000Y-53483417D01*
X31525530Y-53505888D01*
X31489650Y-53686274D01*
X31410498Y-53877362D01*
X31295589Y-54049336D01*
X31149336Y-54195589D01*
X30977362Y-54310498D01*
X30786274Y-54389650D01*
X30605888Y-54425530D01*
X30583417Y-54430000D01*
X30376583Y-54430000D01*
X30354112Y-54425530D01*
X30173726Y-54389650D01*
X29982638Y-54310498D01*
X29810664Y-54195589D01*
X29664411Y-54049336D01*
X29549502Y-53877362D01*
X29470350Y-53686274D01*
X29434470Y-53505888D01*
X29430000Y-53483417D01*
X29430000Y-53276583D01*
X29437957Y-53236583D01*
X29470350Y-53073726D01*
X29549502Y-52882638D01*
X29664411Y-52710664D01*
X29810664Y-52564411D01*
X29982638Y-52449502D01*
X30173726Y-52370350D01*
X30354112Y-52334470D01*
X30376583Y-52330000D01*
X30583417Y-52330000D01*
X30605888Y-52334470D01*
X30605888Y-52334470D01*
G37*
G36*
X56005888Y-52294470D02*
X56186274Y-52330350D01*
X56377362Y-52409502D01*
X56549336Y-52524411D01*
X56695589Y-52670664D01*
X56810498Y-52842638D01*
X56889650Y-53033726D01*
X56930000Y-53236584D01*
X56930000Y-53443416D01*
X56889650Y-53646274D01*
X56810498Y-53837362D01*
X56695589Y-54009336D01*
X56549336Y-54155589D01*
X56377362Y-54270498D01*
X56186274Y-54349650D01*
X56005888Y-54385530D01*
X55983417Y-54390000D01*
X55776583Y-54390000D01*
X55754112Y-54385530D01*
X55573726Y-54349650D01*
X55382638Y-54270498D01*
X55210664Y-54155589D01*
X55064411Y-54009336D01*
X54949502Y-53837362D01*
X54870350Y-53646274D01*
X54830000Y-53443416D01*
X54830000Y-53236584D01*
X54870350Y-53033726D01*
X54949502Y-52842638D01*
X55064411Y-52670664D01*
X55210664Y-52524411D01*
X55382638Y-52409502D01*
X55573726Y-52330350D01*
X55754112Y-52294470D01*
X55776583Y-52290000D01*
X55983417Y-52290000D01*
X56005888Y-52294470D01*
X56005888Y-52294470D01*
G37*
G36*
X61527649Y-52547717D02*
X61566827Y-52551576D01*
X61609138Y-52564411D01*
X61717629Y-52597321D01*
X61856608Y-52671608D01*
X61978422Y-52771578D01*
X62078392Y-52893392D01*
X62152679Y-53032371D01*
X62198424Y-53183174D01*
X62213870Y-53340000D01*
X62198424Y-53496826D01*
X62152679Y-53647629D01*
X62078392Y-53786608D01*
X61978422Y-53908422D01*
X61856608Y-54008392D01*
X61717629Y-54082679D01*
X61642228Y-54105551D01*
X61566827Y-54128424D01*
X61527649Y-54132283D01*
X61449295Y-54140000D01*
X60570705Y-54140000D01*
X60492351Y-54132283D01*
X60453173Y-54128424D01*
X60377772Y-54105551D01*
X60302371Y-54082679D01*
X60163392Y-54008392D01*
X60041578Y-53908422D01*
X59941608Y-53786608D01*
X59867321Y-53647629D01*
X59821576Y-53496826D01*
X59806130Y-53340000D01*
X59821576Y-53183174D01*
X59867321Y-53032371D01*
X59941608Y-52893392D01*
X60041578Y-52771578D01*
X60163392Y-52671608D01*
X60302371Y-52597321D01*
X60410862Y-52564411D01*
X60453173Y-52551576D01*
X60492351Y-52547717D01*
X60570705Y-52540000D01*
X61449295Y-52540000D01*
X61527649Y-52547717D01*
X61527649Y-52547717D01*
G37*
G36*
X69047649Y-52547717D02*
X69086827Y-52551576D01*
X69129138Y-52564411D01*
X69237629Y-52597321D01*
X69376608Y-52671608D01*
X69498422Y-52771578D01*
X69598392Y-52893392D01*
X69672679Y-53032371D01*
X69718424Y-53183174D01*
X69733870Y-53340000D01*
X69718424Y-53496826D01*
X69672679Y-53647629D01*
X69598392Y-53786608D01*
X69498422Y-53908422D01*
X69376608Y-54008392D01*
X69237629Y-54082679D01*
X69162228Y-54105551D01*
X69086827Y-54128424D01*
X69047649Y-54132283D01*
X68969295Y-54140000D01*
X68090705Y-54140000D01*
X68012351Y-54132283D01*
X67973173Y-54128424D01*
X67897772Y-54105551D01*
X67822371Y-54082679D01*
X67683392Y-54008392D01*
X67561578Y-53908422D01*
X67461608Y-53786608D01*
X67387321Y-53647629D01*
X67341576Y-53496826D01*
X67326130Y-53340000D01*
X67341576Y-53183174D01*
X67387321Y-53032371D01*
X67461608Y-52893392D01*
X67561578Y-52771578D01*
X67683392Y-52671608D01*
X67822371Y-52597321D01*
X67930862Y-52564411D01*
X67973173Y-52551576D01*
X68012351Y-52547717D01*
X68090705Y-52540000D01*
X68969295Y-52540000D01*
X69047649Y-52547717D01*
X69047649Y-52547717D01*
G37*
G36*
X61527649Y-50007717D02*
X61566827Y-50011576D01*
X61642228Y-50034449D01*
X61717629Y-50057321D01*
X61856608Y-50131608D01*
X61978422Y-50231578D01*
X62078392Y-50353392D01*
X62152679Y-50492371D01*
X62198424Y-50643174D01*
X62213870Y-50800000D01*
X62198424Y-50956826D01*
X62152679Y-51107629D01*
X62078392Y-51246608D01*
X61978422Y-51368422D01*
X61856608Y-51468392D01*
X61717629Y-51542679D01*
X61642227Y-51565552D01*
X61566827Y-51588424D01*
X61527649Y-51592283D01*
X61449295Y-51600000D01*
X60570705Y-51600000D01*
X60492351Y-51592283D01*
X60453173Y-51588424D01*
X60377773Y-51565552D01*
X60302371Y-51542679D01*
X60163392Y-51468392D01*
X60041578Y-51368422D01*
X59941608Y-51246608D01*
X59867321Y-51107629D01*
X59821576Y-50956826D01*
X59806130Y-50800000D01*
X59821576Y-50643174D01*
X59867321Y-50492371D01*
X59941608Y-50353392D01*
X60041578Y-50231578D01*
X60163392Y-50131608D01*
X60302371Y-50057321D01*
X60377772Y-50034449D01*
X60453173Y-50011576D01*
X60492351Y-50007717D01*
X60570705Y-50000000D01*
X61449295Y-50000000D01*
X61527649Y-50007717D01*
X61527649Y-50007717D01*
G37*
G36*
X69047649Y-50007717D02*
X69086827Y-50011576D01*
X69162228Y-50034449D01*
X69237629Y-50057321D01*
X69376608Y-50131608D01*
X69498422Y-50231578D01*
X69598392Y-50353392D01*
X69672679Y-50492371D01*
X69718424Y-50643174D01*
X69733870Y-50800000D01*
X69718424Y-50956826D01*
X69672679Y-51107629D01*
X69598392Y-51246608D01*
X69498422Y-51368422D01*
X69376608Y-51468392D01*
X69237629Y-51542679D01*
X69162227Y-51565552D01*
X69086827Y-51588424D01*
X69047649Y-51592283D01*
X68969295Y-51600000D01*
X68090705Y-51600000D01*
X68012351Y-51592283D01*
X67973173Y-51588424D01*
X67897773Y-51565552D01*
X67822371Y-51542679D01*
X67683392Y-51468392D01*
X67561578Y-51368422D01*
X67461608Y-51246608D01*
X67387321Y-51107629D01*
X67341576Y-50956826D01*
X67326130Y-50800000D01*
X67341576Y-50643174D01*
X67387321Y-50492371D01*
X67461608Y-50353392D01*
X67561578Y-50231578D01*
X67683392Y-50131608D01*
X67822371Y-50057321D01*
X67897772Y-50034449D01*
X67973173Y-50011576D01*
X68012351Y-50007717D01*
X68090705Y-50000000D01*
X68969295Y-50000000D01*
X69047649Y-50007717D01*
X69047649Y-50007717D01*
G37*
G36*
X38225888Y-47214470D02*
X38406274Y-47250350D01*
X38597362Y-47329502D01*
X38769336Y-47444411D01*
X38915589Y-47590664D01*
X39030498Y-47762638D01*
X39109650Y-47953726D01*
X39150000Y-48156584D01*
X39150000Y-48363416D01*
X39109650Y-48566274D01*
X39030498Y-48757362D01*
X38915589Y-48929336D01*
X38769336Y-49075589D01*
X38597362Y-49190498D01*
X38406274Y-49269650D01*
X38225888Y-49305530D01*
X38203417Y-49310000D01*
X37996583Y-49310000D01*
X37974112Y-49305530D01*
X37793726Y-49269650D01*
X37602638Y-49190498D01*
X37430664Y-49075589D01*
X37284411Y-48929336D01*
X37169502Y-48757362D01*
X37090350Y-48566274D01*
X37050000Y-48363416D01*
X37050000Y-48156584D01*
X37090350Y-47953726D01*
X37169502Y-47762638D01*
X37284411Y-47590664D01*
X37430664Y-47444411D01*
X37602638Y-47329502D01*
X37793726Y-47250350D01*
X37974112Y-47214470D01*
X37996583Y-47210000D01*
X38203417Y-47210000D01*
X38225888Y-47214470D01*
X38225888Y-47214470D01*
G37*
G36*
X35685888Y-47214470D02*
X35866274Y-47250350D01*
X36057362Y-47329502D01*
X36229336Y-47444411D01*
X36375589Y-47590664D01*
X36490498Y-47762638D01*
X36569650Y-47953726D01*
X36610000Y-48156584D01*
X36610000Y-48363416D01*
X36569650Y-48566274D01*
X36490498Y-48757362D01*
X36375589Y-48929336D01*
X36229336Y-49075589D01*
X36057362Y-49190498D01*
X35866274Y-49269650D01*
X35685888Y-49305530D01*
X35663417Y-49310000D01*
X35456583Y-49310000D01*
X35434112Y-49305530D01*
X35253726Y-49269650D01*
X35062638Y-49190498D01*
X34890664Y-49075589D01*
X34744411Y-48929336D01*
X34629502Y-48757362D01*
X34550350Y-48566274D01*
X34510000Y-48363416D01*
X34510000Y-48156584D01*
X34550350Y-47953726D01*
X34629502Y-47762638D01*
X34744411Y-47590664D01*
X34890664Y-47444411D01*
X35062638Y-47329502D01*
X35253726Y-47250350D01*
X35434112Y-47214470D01*
X35456583Y-47210000D01*
X35663417Y-47210000D01*
X35685888Y-47214470D01*
X35685888Y-47214470D01*
G37*
G36*
X53516432Y-47373022D02*
X53686081Y-47424485D01*
X53842433Y-47508056D01*
X53979475Y-47620525D01*
X54091944Y-47757567D01*
X54175515Y-47913919D01*
X54226978Y-48083568D01*
X54244354Y-48260000D01*
X54226978Y-48436432D01*
X54175515Y-48606081D01*
X54091944Y-48762433D01*
X53979475Y-48899475D01*
X53842433Y-49011944D01*
X53686081Y-49095515D01*
X53516432Y-49146978D01*
X53384211Y-49160000D01*
X53295789Y-49160000D01*
X53163568Y-49146978D01*
X52993919Y-49095515D01*
X52837567Y-49011944D01*
X52700525Y-48899475D01*
X52588056Y-48762433D01*
X52504485Y-48606081D01*
X52453022Y-48436432D01*
X52435646Y-48260000D01*
X52453022Y-48083568D01*
X52504485Y-47913919D01*
X52588056Y-47757567D01*
X52700525Y-47620525D01*
X52837567Y-47508056D01*
X52993919Y-47424485D01*
X53163568Y-47373022D01*
X53295789Y-47360000D01*
X53384211Y-47360000D01*
X53516432Y-47373022D01*
X53516432Y-47373022D01*
G37*
G36*
X48522521Y-47394586D02*
X48686309Y-47462429D01*
X48833720Y-47560926D01*
X48959074Y-47686280D01*
X49057571Y-47833691D01*
X49125414Y-47997479D01*
X49160000Y-48171356D01*
X49160000Y-48348644D01*
X49125414Y-48522521D01*
X49057571Y-48686309D01*
X48959074Y-48833720D01*
X48833720Y-48959074D01*
X48686309Y-49057571D01*
X48522521Y-49125414D01*
X48348644Y-49160000D01*
X48171356Y-49160000D01*
X47997479Y-49125414D01*
X47833691Y-49057571D01*
X47686280Y-48959074D01*
X47560926Y-48833720D01*
X47462429Y-48686309D01*
X47394586Y-48522521D01*
X47360000Y-48348644D01*
X47360000Y-48171356D01*
X47394586Y-47997479D01*
X47462429Y-47833691D01*
X47560926Y-47686280D01*
X47686280Y-47560926D01*
X47833691Y-47462429D01*
X47997479Y-47394586D01*
X48171356Y-47360000D01*
X48348644Y-47360000D01*
X48522521Y-47394586D01*
X48522521Y-47394586D01*
G37*
G36*
X61527649Y-47467717D02*
X61566827Y-47471576D01*
X61642227Y-47494448D01*
X61717629Y-47517321D01*
X61856608Y-47591608D01*
X61978422Y-47691578D01*
X62078392Y-47813392D01*
X62152679Y-47952371D01*
X62198424Y-48103174D01*
X62213870Y-48260000D01*
X62198424Y-48416826D01*
X62152679Y-48567629D01*
X62078392Y-48706608D01*
X61978422Y-48828422D01*
X61856608Y-48928392D01*
X61717629Y-49002679D01*
X61642227Y-49025552D01*
X61566827Y-49048424D01*
X61527649Y-49052283D01*
X61449295Y-49060000D01*
X60570705Y-49060000D01*
X60492351Y-49052283D01*
X60453173Y-49048424D01*
X60377773Y-49025552D01*
X60302371Y-49002679D01*
X60163392Y-48928392D01*
X60041578Y-48828422D01*
X59941608Y-48706608D01*
X59867321Y-48567629D01*
X59821576Y-48416826D01*
X59806130Y-48260000D01*
X59821576Y-48103174D01*
X59867321Y-47952371D01*
X59941608Y-47813392D01*
X60041578Y-47691578D01*
X60163392Y-47591608D01*
X60302371Y-47517321D01*
X60377773Y-47494448D01*
X60453173Y-47471576D01*
X60492351Y-47467717D01*
X60570705Y-47460000D01*
X61449295Y-47460000D01*
X61527649Y-47467717D01*
X61527649Y-47467717D01*
G37*
G36*
X69047649Y-47467717D02*
X69086827Y-47471576D01*
X69162227Y-47494448D01*
X69237629Y-47517321D01*
X69376608Y-47591608D01*
X69498422Y-47691578D01*
X69598392Y-47813392D01*
X69672679Y-47952371D01*
X69718424Y-48103174D01*
X69733870Y-48260000D01*
X69718424Y-48416826D01*
X69672679Y-48567629D01*
X69598392Y-48706608D01*
X69498422Y-48828422D01*
X69376608Y-48928392D01*
X69237629Y-49002679D01*
X69162227Y-49025552D01*
X69086827Y-49048424D01*
X69047649Y-49052283D01*
X68969295Y-49060000D01*
X68090705Y-49060000D01*
X68012351Y-49052283D01*
X67973173Y-49048424D01*
X67897773Y-49025552D01*
X67822371Y-49002679D01*
X67683392Y-48928392D01*
X67561578Y-48828422D01*
X67461608Y-48706608D01*
X67387321Y-48567629D01*
X67341576Y-48416826D01*
X67326130Y-48260000D01*
X67341576Y-48103174D01*
X67387321Y-47952371D01*
X67461608Y-47813392D01*
X67561578Y-47691578D01*
X67683392Y-47591608D01*
X67822371Y-47517321D01*
X67897773Y-47494448D01*
X67973173Y-47471576D01*
X68012351Y-47467717D01*
X68090705Y-47460000D01*
X68969295Y-47460000D01*
X69047649Y-47467717D01*
X69047649Y-47467717D01*
G37*
G36*
X48522521Y-44854586D02*
X48686309Y-44922429D01*
X48833720Y-45020926D01*
X48959074Y-45146280D01*
X49057571Y-45293691D01*
X49125414Y-45457479D01*
X49160000Y-45631356D01*
X49160000Y-45808644D01*
X49125414Y-45982521D01*
X49057571Y-46146309D01*
X48959074Y-46293720D01*
X48833720Y-46419074D01*
X48686309Y-46517571D01*
X48522521Y-46585414D01*
X48348644Y-46620000D01*
X48171356Y-46620000D01*
X47997479Y-46585414D01*
X47833691Y-46517571D01*
X47686280Y-46419074D01*
X47560926Y-46293720D01*
X47462429Y-46146309D01*
X47394586Y-45982521D01*
X47360000Y-45808644D01*
X47360000Y-45631356D01*
X47394586Y-45457479D01*
X47462429Y-45293691D01*
X47560926Y-45146280D01*
X47686280Y-45020926D01*
X47833691Y-44922429D01*
X47997479Y-44854586D01*
X48171356Y-44820000D01*
X48348644Y-44820000D01*
X48522521Y-44854586D01*
X48522521Y-44854586D01*
G37*
G36*
X53516432Y-44833022D02*
X53686081Y-44884485D01*
X53842433Y-44968056D01*
X53979475Y-45080525D01*
X54091944Y-45217567D01*
X54175515Y-45373919D01*
X54226978Y-45543568D01*
X54244354Y-45720000D01*
X54226978Y-45896432D01*
X54175515Y-46066081D01*
X54091944Y-46222433D01*
X53979475Y-46359475D01*
X53842433Y-46471944D01*
X53686081Y-46555515D01*
X53516432Y-46606978D01*
X53384211Y-46620000D01*
X53295789Y-46620000D01*
X53163568Y-46606978D01*
X52993919Y-46555515D01*
X52837567Y-46471944D01*
X52700525Y-46359475D01*
X52588056Y-46222433D01*
X52504485Y-46066081D01*
X52453022Y-45896432D01*
X52435646Y-45720000D01*
X52453022Y-45543568D01*
X52504485Y-45373919D01*
X52588056Y-45217567D01*
X52700525Y-45080525D01*
X52837567Y-44968056D01*
X52993919Y-44884485D01*
X53163568Y-44833022D01*
X53295789Y-44820000D01*
X53384211Y-44820000D01*
X53516432Y-44833022D01*
X53516432Y-44833022D01*
G37*
G36*
X69047649Y-44927717D02*
X69086827Y-44931576D01*
X69162228Y-44954449D01*
X69237629Y-44977321D01*
X69376608Y-45051608D01*
X69498422Y-45151578D01*
X69598392Y-45273392D01*
X69672679Y-45412371D01*
X69718424Y-45563174D01*
X69733870Y-45720000D01*
X69718424Y-45876826D01*
X69672679Y-46027629D01*
X69598392Y-46166608D01*
X69498422Y-46288422D01*
X69376608Y-46388392D01*
X69237629Y-46462679D01*
X69162228Y-46485551D01*
X69086827Y-46508424D01*
X69047649Y-46512283D01*
X68969295Y-46520000D01*
X68090705Y-46520000D01*
X68012351Y-46512283D01*
X67973173Y-46508424D01*
X67897772Y-46485551D01*
X67822371Y-46462679D01*
X67683392Y-46388392D01*
X67561578Y-46288422D01*
X67461608Y-46166608D01*
X67387321Y-46027629D01*
X67341576Y-45876826D01*
X67326130Y-45720000D01*
X67341576Y-45563174D01*
X67387321Y-45412371D01*
X67461608Y-45273392D01*
X67561578Y-45151578D01*
X67683392Y-45051608D01*
X67822371Y-44977321D01*
X67897772Y-44954449D01*
X67973173Y-44931576D01*
X68012351Y-44927717D01*
X68090705Y-44920000D01*
X68969295Y-44920000D01*
X69047649Y-44927717D01*
X69047649Y-44927717D01*
G37*
G36*
X61527649Y-44927717D02*
X61566827Y-44931576D01*
X61642228Y-44954449D01*
X61717629Y-44977321D01*
X61856608Y-45051608D01*
X61978422Y-45151578D01*
X62078392Y-45273392D01*
X62152679Y-45412371D01*
X62198424Y-45563174D01*
X62213870Y-45720000D01*
X62198424Y-45876826D01*
X62152679Y-46027629D01*
X62078392Y-46166608D01*
X61978422Y-46288422D01*
X61856608Y-46388392D01*
X61717629Y-46462679D01*
X61642228Y-46485551D01*
X61566827Y-46508424D01*
X61527649Y-46512283D01*
X61449295Y-46520000D01*
X60570705Y-46520000D01*
X60492351Y-46512283D01*
X60453173Y-46508424D01*
X60377772Y-46485551D01*
X60302371Y-46462679D01*
X60163392Y-46388392D01*
X60041578Y-46288422D01*
X59941608Y-46166608D01*
X59867321Y-46027629D01*
X59821576Y-45876826D01*
X59806130Y-45720000D01*
X59821576Y-45563174D01*
X59867321Y-45412371D01*
X59941608Y-45273392D01*
X60041578Y-45151578D01*
X60163392Y-45051608D01*
X60302371Y-44977321D01*
X60377772Y-44954449D01*
X60453173Y-44931576D01*
X60492351Y-44927717D01*
X60570705Y-44920000D01*
X61449295Y-44920000D01*
X61527649Y-44927717D01*
X61527649Y-44927717D01*
G37*
G36*
X31910000Y-44610000D02*
X29050000Y-44610000D01*
X29050000Y-41750000D01*
X31910000Y-41750000D01*
X31910000Y-44610000D01*
X31910000Y-44610000D01*
G37*
G36*
X40800000Y-44610000D02*
X37940000Y-44610000D01*
X37940000Y-41750000D01*
X40800000Y-41750000D01*
X40800000Y-44610000D01*
X40800000Y-44610000D01*
G37*
G36*
X69580000Y-44180000D02*
X67580000Y-44180000D01*
X67580000Y-42180000D01*
X69580000Y-42180000D01*
X69580000Y-44180000D01*
X69580000Y-44180000D01*
G37*
G36*
X61156030Y-42194469D02*
X61156033Y-42194470D01*
X61156034Y-42194470D01*
X61344535Y-42251651D01*
X61344537Y-42251652D01*
X61518260Y-42344509D01*
X61670528Y-42469472D01*
X61795491Y-42621740D01*
X61888348Y-42795463D01*
X61945531Y-42983970D01*
X61964838Y-43180000D01*
X61945531Y-43376030D01*
X61888348Y-43564537D01*
X61795491Y-43738260D01*
X61670528Y-43890528D01*
X61518260Y-44015491D01*
X61518258Y-44015492D01*
X61344535Y-44108349D01*
X61156034Y-44165530D01*
X61156033Y-44165530D01*
X61156030Y-44165531D01*
X61009124Y-44180000D01*
X60910876Y-44180000D01*
X60763970Y-44165531D01*
X60763967Y-44165530D01*
X60763966Y-44165530D01*
X60575465Y-44108349D01*
X60401742Y-44015492D01*
X60401740Y-44015491D01*
X60249472Y-43890528D01*
X60124509Y-43738260D01*
X60031652Y-43564537D01*
X59974469Y-43376030D01*
X59955162Y-43180000D01*
X59974469Y-42983970D01*
X60031652Y-42795463D01*
X60124509Y-42621740D01*
X60249472Y-42469472D01*
X60401740Y-42344509D01*
X60575463Y-42251652D01*
X60575465Y-42251651D01*
X60763966Y-42194470D01*
X60763967Y-42194470D01*
X60763970Y-42194469D01*
X60910876Y-42180000D01*
X61009124Y-42180000D01*
X61156030Y-42194469D01*
X61156030Y-42194469D01*
G37*
G36*
X94300857Y-39582272D02*
X94501042Y-39665191D01*
X94501045Y-39665193D01*
X94570576Y-39711652D01*
X94681213Y-39785578D01*
X94834422Y-39938787D01*
X94954809Y-40118958D01*
X95037728Y-40319143D01*
X95080000Y-40531658D01*
X95080000Y-40748342D01*
X95037728Y-40960857D01*
X94954809Y-41161042D01*
X94834422Y-41341213D01*
X94681213Y-41494422D01*
X94681210Y-41494424D01*
X94681209Y-41494425D01*
X94570574Y-41568349D01*
X94501042Y-41614809D01*
X94300857Y-41697728D01*
X94088342Y-41740000D01*
X93871658Y-41740000D01*
X93659143Y-41697728D01*
X93458958Y-41614809D01*
X93389426Y-41568349D01*
X93278791Y-41494425D01*
X93278790Y-41494424D01*
X93278787Y-41494422D01*
X93125578Y-41341213D01*
X93005191Y-41161042D01*
X92922272Y-40960857D01*
X92880000Y-40748342D01*
X92880000Y-40531658D01*
X92922272Y-40319143D01*
X93005191Y-40118958D01*
X93125578Y-39938787D01*
X93278787Y-39785578D01*
X93389425Y-39711652D01*
X93458955Y-39665193D01*
X93458958Y-39665191D01*
X93659143Y-39582272D01*
X93871658Y-39540000D01*
X94088342Y-39540000D01*
X94300857Y-39582272D01*
X94300857Y-39582272D01*
G37*
G36*
X81600857Y-39582272D02*
X81801042Y-39665191D01*
X81801045Y-39665193D01*
X81870576Y-39711652D01*
X81981213Y-39785578D01*
X82134422Y-39938787D01*
X82254809Y-40118958D01*
X82337728Y-40319143D01*
X82380000Y-40531658D01*
X82380000Y-40748342D01*
X82337728Y-40960857D01*
X82254809Y-41161042D01*
X82134422Y-41341213D01*
X81981213Y-41494422D01*
X81981210Y-41494424D01*
X81981209Y-41494425D01*
X81870574Y-41568349D01*
X81801042Y-41614809D01*
X81600857Y-41697728D01*
X81388342Y-41740000D01*
X81171658Y-41740000D01*
X80959143Y-41697728D01*
X80758958Y-41614809D01*
X80689426Y-41568349D01*
X80578791Y-41494425D01*
X80578790Y-41494424D01*
X80578787Y-41494422D01*
X80425578Y-41341213D01*
X80305191Y-41161042D01*
X80222272Y-40960857D01*
X80180000Y-40748342D01*
X80180000Y-40531658D01*
X80222272Y-40319143D01*
X80305191Y-40118958D01*
X80425578Y-39938787D01*
X80578787Y-39785578D01*
X80689425Y-39711652D01*
X80758955Y-39665193D01*
X80758958Y-39665191D01*
X80959143Y-39582272D01*
X81171658Y-39540000D01*
X81388342Y-39540000D01*
X81600857Y-39582272D01*
X81600857Y-39582272D01*
G37*
G36*
X84140857Y-39582272D02*
X84341042Y-39665191D01*
X84341045Y-39665193D01*
X84410576Y-39711652D01*
X84521213Y-39785578D01*
X84674422Y-39938787D01*
X84794809Y-40118958D01*
X84877728Y-40319143D01*
X84920000Y-40531658D01*
X84920000Y-40748342D01*
X84877728Y-40960857D01*
X84794809Y-41161042D01*
X84674422Y-41341213D01*
X84521213Y-41494422D01*
X84521210Y-41494424D01*
X84521209Y-41494425D01*
X84410574Y-41568349D01*
X84341042Y-41614809D01*
X84140857Y-41697728D01*
X83928342Y-41740000D01*
X83711658Y-41740000D01*
X83499143Y-41697728D01*
X83298958Y-41614809D01*
X83229426Y-41568349D01*
X83118791Y-41494425D01*
X83118790Y-41494424D01*
X83118787Y-41494422D01*
X82965578Y-41341213D01*
X82845191Y-41161042D01*
X82762272Y-40960857D01*
X82720000Y-40748342D01*
X82720000Y-40531658D01*
X82762272Y-40319143D01*
X82845191Y-40118958D01*
X82965578Y-39938787D01*
X83118787Y-39785578D01*
X83229425Y-39711652D01*
X83298955Y-39665193D01*
X83298958Y-39665191D01*
X83499143Y-39582272D01*
X83711658Y-39540000D01*
X83928342Y-39540000D01*
X84140857Y-39582272D01*
X84140857Y-39582272D01*
G37*
G36*
X86680857Y-39582272D02*
X86881042Y-39665191D01*
X86881045Y-39665193D01*
X86950576Y-39711652D01*
X87061213Y-39785578D01*
X87214422Y-39938787D01*
X87334809Y-40118958D01*
X87417728Y-40319143D01*
X87460000Y-40531658D01*
X87460000Y-40748342D01*
X87417728Y-40960857D01*
X87334809Y-41161042D01*
X87214422Y-41341213D01*
X87061213Y-41494422D01*
X87061210Y-41494424D01*
X87061209Y-41494425D01*
X86950574Y-41568349D01*
X86881042Y-41614809D01*
X86680857Y-41697728D01*
X86468342Y-41740000D01*
X86251658Y-41740000D01*
X86039143Y-41697728D01*
X85838958Y-41614809D01*
X85769426Y-41568349D01*
X85658791Y-41494425D01*
X85658790Y-41494424D01*
X85658787Y-41494422D01*
X85505578Y-41341213D01*
X85385191Y-41161042D01*
X85302272Y-40960857D01*
X85260000Y-40748342D01*
X85260000Y-40531658D01*
X85302272Y-40319143D01*
X85385191Y-40118958D01*
X85505578Y-39938787D01*
X85658787Y-39785578D01*
X85769425Y-39711652D01*
X85838955Y-39665193D01*
X85838958Y-39665191D01*
X86039143Y-39582272D01*
X86251658Y-39540000D01*
X86468342Y-39540000D01*
X86680857Y-39582272D01*
X86680857Y-39582272D01*
G37*
G36*
X89220857Y-39582272D02*
X89421042Y-39665191D01*
X89421045Y-39665193D01*
X89490576Y-39711652D01*
X89601213Y-39785578D01*
X89754422Y-39938787D01*
X89874809Y-40118958D01*
X89957728Y-40319143D01*
X90000000Y-40531658D01*
X90000000Y-40748342D01*
X89957728Y-40960857D01*
X89874809Y-41161042D01*
X89754422Y-41341213D01*
X89601213Y-41494422D01*
X89601210Y-41494424D01*
X89601209Y-41494425D01*
X89490574Y-41568349D01*
X89421042Y-41614809D01*
X89220857Y-41697728D01*
X89008342Y-41740000D01*
X88791658Y-41740000D01*
X88579143Y-41697728D01*
X88378958Y-41614809D01*
X88309426Y-41568349D01*
X88198791Y-41494425D01*
X88198790Y-41494424D01*
X88198787Y-41494422D01*
X88045578Y-41341213D01*
X87925191Y-41161042D01*
X87842272Y-40960857D01*
X87800000Y-40748342D01*
X87800000Y-40531658D01*
X87842272Y-40319143D01*
X87925191Y-40118958D01*
X88045578Y-39938787D01*
X88198787Y-39785578D01*
X88309425Y-39711652D01*
X88378955Y-39665193D01*
X88378958Y-39665191D01*
X88579143Y-39582272D01*
X88791658Y-39540000D01*
X89008342Y-39540000D01*
X89220857Y-39582272D01*
X89220857Y-39582272D01*
G37*
G36*
X96840857Y-39582272D02*
X97041042Y-39665191D01*
X97041045Y-39665193D01*
X97110576Y-39711652D01*
X97221213Y-39785578D01*
X97374422Y-39938787D01*
X97494809Y-40118958D01*
X97577728Y-40319143D01*
X97620000Y-40531658D01*
X97620000Y-40748342D01*
X97577728Y-40960857D01*
X97494809Y-41161042D01*
X97374422Y-41341213D01*
X97221213Y-41494422D01*
X97221210Y-41494424D01*
X97221209Y-41494425D01*
X97110574Y-41568349D01*
X97041042Y-41614809D01*
X96840857Y-41697728D01*
X96628342Y-41740000D01*
X96411658Y-41740000D01*
X96199143Y-41697728D01*
X95998958Y-41614809D01*
X95929426Y-41568349D01*
X95818791Y-41494425D01*
X95818790Y-41494424D01*
X95818787Y-41494422D01*
X95665578Y-41341213D01*
X95545191Y-41161042D01*
X95462272Y-40960857D01*
X95420000Y-40748342D01*
X95420000Y-40531658D01*
X95462272Y-40319143D01*
X95545191Y-40118958D01*
X95665578Y-39938787D01*
X95818787Y-39785578D01*
X95929425Y-39711652D01*
X95998955Y-39665193D01*
X95998958Y-39665191D01*
X96199143Y-39582272D01*
X96411658Y-39540000D01*
X96628342Y-39540000D01*
X96840857Y-39582272D01*
X96840857Y-39582272D01*
G37*
G36*
X99380857Y-39582272D02*
X99581042Y-39665191D01*
X99581045Y-39665193D01*
X99650576Y-39711652D01*
X99761213Y-39785578D01*
X99914422Y-39938787D01*
X100034809Y-40118958D01*
X100117728Y-40319143D01*
X100160000Y-40531658D01*
X100160000Y-40748342D01*
X100117728Y-40960857D01*
X100034809Y-41161042D01*
X99914422Y-41341213D01*
X99761213Y-41494422D01*
X99761210Y-41494424D01*
X99761209Y-41494425D01*
X99650574Y-41568349D01*
X99581042Y-41614809D01*
X99380857Y-41697728D01*
X99168342Y-41740000D01*
X98951658Y-41740000D01*
X98739143Y-41697728D01*
X98538958Y-41614809D01*
X98469426Y-41568349D01*
X98358791Y-41494425D01*
X98358790Y-41494424D01*
X98358787Y-41494422D01*
X98205578Y-41341213D01*
X98085191Y-41161042D01*
X98002272Y-40960857D01*
X97960000Y-40748342D01*
X97960000Y-40531658D01*
X98002272Y-40319143D01*
X98085191Y-40118958D01*
X98205578Y-39938787D01*
X98358787Y-39785578D01*
X98469425Y-39711652D01*
X98538955Y-39665193D01*
X98538958Y-39665191D01*
X98739143Y-39582272D01*
X98951658Y-39540000D01*
X99168342Y-39540000D01*
X99380857Y-39582272D01*
X99380857Y-39582272D01*
G37*
G36*
X91760857Y-39582272D02*
X91961042Y-39665191D01*
X91961045Y-39665193D01*
X92030576Y-39711652D01*
X92141213Y-39785578D01*
X92294422Y-39938787D01*
X92414809Y-40118958D01*
X92497728Y-40319143D01*
X92540000Y-40531658D01*
X92540000Y-40748342D01*
X92497728Y-40960857D01*
X92414809Y-41161042D01*
X92294422Y-41341213D01*
X92141213Y-41494422D01*
X92141210Y-41494424D01*
X92141209Y-41494425D01*
X92030574Y-41568349D01*
X91961042Y-41614809D01*
X91760857Y-41697728D01*
X91548342Y-41740000D01*
X91331658Y-41740000D01*
X91119143Y-41697728D01*
X90918958Y-41614809D01*
X90849426Y-41568349D01*
X90738791Y-41494425D01*
X90738790Y-41494424D01*
X90738787Y-41494422D01*
X90585578Y-41341213D01*
X90465191Y-41161042D01*
X90382272Y-40960857D01*
X90340000Y-40748342D01*
X90340000Y-40531658D01*
X90382272Y-40319143D01*
X90465191Y-40118958D01*
X90585578Y-39938787D01*
X90738787Y-39785578D01*
X90849425Y-39711652D01*
X90918955Y-39665193D01*
X90918958Y-39665191D01*
X91119143Y-39582272D01*
X91331658Y-39540000D01*
X91548342Y-39540000D01*
X91760857Y-39582272D01*
X91760857Y-39582272D01*
G37*
G36*
X61156030Y-39654469D02*
X61156033Y-39654470D01*
X61156034Y-39654470D01*
X61344535Y-39711651D01*
X61344537Y-39711652D01*
X61518260Y-39804509D01*
X61670528Y-39929472D01*
X61795491Y-40081740D01*
X61888348Y-40255463D01*
X61945531Y-40443970D01*
X61964838Y-40640000D01*
X61945531Y-40836030D01*
X61888348Y-41024537D01*
X61795491Y-41198260D01*
X61670528Y-41350528D01*
X61518260Y-41475491D01*
X61518258Y-41475492D01*
X61344535Y-41568349D01*
X61156034Y-41625530D01*
X61156033Y-41625530D01*
X61156030Y-41625531D01*
X61009124Y-41640000D01*
X60910876Y-41640000D01*
X60763970Y-41625531D01*
X60763967Y-41625530D01*
X60763966Y-41625530D01*
X60575465Y-41568349D01*
X60401742Y-41475492D01*
X60401740Y-41475491D01*
X60249472Y-41350528D01*
X60124509Y-41198260D01*
X60031652Y-41024537D01*
X59974469Y-40836030D01*
X59955162Y-40640000D01*
X59974469Y-40443970D01*
X60031652Y-40255463D01*
X60124509Y-40081740D01*
X60249472Y-39929472D01*
X60401740Y-39804509D01*
X60575463Y-39711652D01*
X60575465Y-39711651D01*
X60763966Y-39654470D01*
X60763967Y-39654470D01*
X60763970Y-39654469D01*
X60910876Y-39640000D01*
X61009124Y-39640000D01*
X61156030Y-39654469D01*
X61156030Y-39654469D01*
G37*
G36*
X68776030Y-39654469D02*
X68776033Y-39654470D01*
X68776034Y-39654470D01*
X68964535Y-39711651D01*
X68964537Y-39711652D01*
X69138260Y-39804509D01*
X69290528Y-39929472D01*
X69415491Y-40081740D01*
X69508348Y-40255463D01*
X69565531Y-40443970D01*
X69584838Y-40640000D01*
X69565531Y-40836030D01*
X69508348Y-41024537D01*
X69415491Y-41198260D01*
X69290528Y-41350528D01*
X69138260Y-41475491D01*
X69138258Y-41475492D01*
X68964535Y-41568349D01*
X68776034Y-41625530D01*
X68776033Y-41625530D01*
X68776030Y-41625531D01*
X68629124Y-41640000D01*
X68530876Y-41640000D01*
X68383970Y-41625531D01*
X68383967Y-41625530D01*
X68383966Y-41625530D01*
X68195465Y-41568349D01*
X68021742Y-41475492D01*
X68021740Y-41475491D01*
X67869472Y-41350528D01*
X67744509Y-41198260D01*
X67651652Y-41024537D01*
X67594469Y-40836030D01*
X67575162Y-40640000D01*
X67594469Y-40443970D01*
X67651652Y-40255463D01*
X67744509Y-40081740D01*
X67869472Y-39929472D01*
X68021740Y-39804509D01*
X68195463Y-39711652D01*
X68195465Y-39711651D01*
X68383966Y-39654470D01*
X68383967Y-39654470D01*
X68383970Y-39654469D01*
X68530876Y-39640000D01*
X68629124Y-39640000D01*
X68776030Y-39654469D01*
X68776030Y-39654469D01*
G37*
G36*
X66226232Y-36913746D02*
X66315770Y-36940907D01*
X66405309Y-36968068D01*
X66570347Y-37056283D01*
X66715001Y-37174999D01*
X66833717Y-37319653D01*
X66833718Y-37319655D01*
X66921932Y-37484692D01*
X66976254Y-37663768D01*
X66976254Y-37663770D01*
X66990000Y-37803335D01*
X66990000Y-38396666D01*
X66976254Y-38536231D01*
X66921932Y-38715309D01*
X66833717Y-38880347D01*
X66715001Y-39025001D01*
X66570347Y-39143717D01*
X66405308Y-39231932D01*
X66315769Y-39259093D01*
X66226231Y-39286254D01*
X66040000Y-39304596D01*
X65853768Y-39286254D01*
X65764230Y-39259093D01*
X65674691Y-39231932D01*
X65509653Y-39143717D01*
X65364999Y-39025001D01*
X65246283Y-38880347D01*
X65158068Y-38715308D01*
X65130907Y-38625769D01*
X65103746Y-38536231D01*
X65090000Y-38396664D01*
X65090000Y-37803335D01*
X65103746Y-37663768D01*
X65158068Y-37484692D01*
X65158068Y-37484691D01*
X65246284Y-37319653D01*
X65365000Y-37174999D01*
X65509654Y-37056283D01*
X65674692Y-36968068D01*
X65764231Y-36940907D01*
X65853769Y-36913746D01*
X66040000Y-36895404D01*
X66226232Y-36913746D01*
X66226232Y-36913746D01*
G37*
G36*
X63686232Y-36913746D02*
X63775770Y-36940907D01*
X63865309Y-36968068D01*
X64030347Y-37056283D01*
X64175001Y-37174999D01*
X64293717Y-37319653D01*
X64293718Y-37319655D01*
X64381932Y-37484692D01*
X64436254Y-37663768D01*
X64436254Y-37663770D01*
X64450000Y-37803335D01*
X64450000Y-38396666D01*
X64436254Y-38536231D01*
X64381932Y-38715309D01*
X64293717Y-38880347D01*
X64175001Y-39025001D01*
X64030347Y-39143717D01*
X63865308Y-39231932D01*
X63775769Y-39259093D01*
X63686231Y-39286254D01*
X63500000Y-39304596D01*
X63313768Y-39286254D01*
X63224230Y-39259093D01*
X63134691Y-39231932D01*
X62969653Y-39143717D01*
X62824999Y-39025001D01*
X62706283Y-38880347D01*
X62618068Y-38715308D01*
X62590907Y-38625769D01*
X62563746Y-38536231D01*
X62550000Y-38396664D01*
X62550000Y-37803335D01*
X62563746Y-37663768D01*
X62618068Y-37484692D01*
X62618068Y-37484691D01*
X62706284Y-37319653D01*
X62825000Y-37174999D01*
X62969654Y-37056283D01*
X63134692Y-36968068D01*
X63224231Y-36940907D01*
X63313769Y-36913746D01*
X63500000Y-36895404D01*
X63686232Y-36913746D01*
X63686232Y-36913746D01*
G37*
G36*
X61146232Y-36913746D02*
X61235770Y-36940907D01*
X61325309Y-36968068D01*
X61490347Y-37056283D01*
X61635001Y-37174999D01*
X61753717Y-37319653D01*
X61753718Y-37319655D01*
X61841932Y-37484692D01*
X61896254Y-37663768D01*
X61896254Y-37663770D01*
X61910000Y-37803335D01*
X61910000Y-38396666D01*
X61896254Y-38536231D01*
X61841932Y-38715309D01*
X61753717Y-38880347D01*
X61635001Y-39025001D01*
X61490347Y-39143717D01*
X61325308Y-39231932D01*
X61235769Y-39259093D01*
X61146231Y-39286254D01*
X60960000Y-39304596D01*
X60773768Y-39286254D01*
X60684230Y-39259093D01*
X60594691Y-39231932D01*
X60429653Y-39143717D01*
X60284999Y-39025001D01*
X60166283Y-38880347D01*
X60078068Y-38715308D01*
X60050907Y-38625769D01*
X60023746Y-38536231D01*
X60010000Y-38396664D01*
X60010000Y-37803335D01*
X60023746Y-37663768D01*
X60078068Y-37484692D01*
X60078068Y-37484691D01*
X60166284Y-37319653D01*
X60285000Y-37174999D01*
X60429654Y-37056283D01*
X60594692Y-36968068D01*
X60684231Y-36940907D01*
X60773769Y-36913746D01*
X60960000Y-36895404D01*
X61146232Y-36913746D01*
X61146232Y-36913746D01*
G37*
G36*
X81405888Y-34514470D02*
X81586274Y-34550350D01*
X81777362Y-34629502D01*
X81949336Y-34744411D01*
X82095589Y-34890664D01*
X82210498Y-35062638D01*
X82289650Y-35253726D01*
X82330000Y-35456584D01*
X82330000Y-35663416D01*
X82289650Y-35866274D01*
X82210498Y-36057362D01*
X82095589Y-36229336D01*
X81949336Y-36375589D01*
X81777362Y-36490498D01*
X81586274Y-36569650D01*
X81405888Y-36605530D01*
X81383417Y-36610000D01*
X81176583Y-36610000D01*
X81154112Y-36605530D01*
X80973726Y-36569650D01*
X80782638Y-36490498D01*
X80610664Y-36375589D01*
X80464411Y-36229336D01*
X80349502Y-36057362D01*
X80270350Y-35866274D01*
X80230000Y-35663416D01*
X80230000Y-35456584D01*
X80270350Y-35253726D01*
X80349502Y-35062638D01*
X80464411Y-34890664D01*
X80610664Y-34744411D01*
X80782638Y-34629502D01*
X80973726Y-34550350D01*
X81154112Y-34514470D01*
X81176583Y-34510000D01*
X81383417Y-34510000D01*
X81405888Y-34514470D01*
X81405888Y-34514470D01*
G37*
G36*
X81405888Y-31974470D02*
X81586274Y-32010350D01*
X81777362Y-32089502D01*
X81949336Y-32204411D01*
X82095589Y-32350664D01*
X82210498Y-32522638D01*
X82289650Y-32713726D01*
X82330000Y-32916584D01*
X82330000Y-33123416D01*
X82289650Y-33326274D01*
X82210498Y-33517362D01*
X82095589Y-33689336D01*
X81949336Y-33835589D01*
X81777362Y-33950498D01*
X81586274Y-34029650D01*
X81405888Y-34065530D01*
X81383417Y-34070000D01*
X81176583Y-34070000D01*
X81154112Y-34065530D01*
X80973726Y-34029650D01*
X80782638Y-33950498D01*
X80610664Y-33835589D01*
X80464411Y-33689336D01*
X80349502Y-33517362D01*
X80270350Y-33326274D01*
X80230000Y-33123416D01*
X80230000Y-32916584D01*
X80270350Y-32713726D01*
X80349502Y-32522638D01*
X80464411Y-32350664D01*
X80610664Y-32204411D01*
X80782638Y-32089502D01*
X80973726Y-32010350D01*
X81154112Y-31974470D01*
X81176583Y-31970000D01*
X81383417Y-31970000D01*
X81405888Y-31974470D01*
X81405888Y-31974470D01*
G37*
G36*
X81405888Y-29434470D02*
X81586274Y-29470350D01*
X81777362Y-29549502D01*
X81949336Y-29664411D01*
X82095589Y-29810664D01*
X82210498Y-29982638D01*
X82289650Y-30173726D01*
X82330000Y-30376584D01*
X82330000Y-30583416D01*
X82289650Y-30786274D01*
X82210498Y-30977362D01*
X82095589Y-31149336D01*
X81949336Y-31295589D01*
X81777362Y-31410498D01*
X81586274Y-31489650D01*
X81405888Y-31525530D01*
X81383417Y-31530000D01*
X81176583Y-31530000D01*
X81154112Y-31525530D01*
X80973726Y-31489650D01*
X80782638Y-31410498D01*
X80610664Y-31295589D01*
X80464411Y-31149336D01*
X80349502Y-30977362D01*
X80270350Y-30786274D01*
X80230000Y-30583416D01*
X80230000Y-30376584D01*
X80270350Y-30173726D01*
X80349502Y-29982638D01*
X80464411Y-29810664D01*
X80610664Y-29664411D01*
X80782638Y-29549502D01*
X80973726Y-29470350D01*
X81154112Y-29434470D01*
X81176583Y-29430000D01*
X81383417Y-29430000D01*
X81405888Y-29434470D01*
X81405888Y-29434470D01*
G37*
G36*
X73940603Y-29554968D02*
X73940606Y-29554969D01*
X73940605Y-29554969D01*
X74115678Y-29627486D01*
X74170944Y-29664414D01*
X74273241Y-29732767D01*
X74407233Y-29866759D01*
X74407234Y-29866761D01*
X74512514Y-30024322D01*
X74568603Y-30159734D01*
X74585032Y-30199397D01*
X74622000Y-30385250D01*
X74622000Y-30574750D01*
X74585032Y-30760603D01*
X74585031Y-30760605D01*
X74512514Y-30935678D01*
X74512513Y-30935679D01*
X74407233Y-31093241D01*
X74273241Y-31227233D01*
X74193923Y-31280232D01*
X74115678Y-31332514D01*
X73980266Y-31388603D01*
X73940603Y-31405032D01*
X73754750Y-31442000D01*
X73565250Y-31442000D01*
X73379397Y-31405032D01*
X73339734Y-31388603D01*
X73204322Y-31332514D01*
X73126077Y-31280232D01*
X73046759Y-31227233D01*
X72912767Y-31093241D01*
X72807487Y-30935679D01*
X72807486Y-30935678D01*
X72734969Y-30760605D01*
X72734968Y-30760603D01*
X72698000Y-30574750D01*
X72698000Y-30385250D01*
X72734968Y-30199397D01*
X72751397Y-30159734D01*
X72807486Y-30024322D01*
X72912766Y-29866761D01*
X72912767Y-29866759D01*
X73046759Y-29732767D01*
X73149056Y-29664414D01*
X73204322Y-29627486D01*
X73379395Y-29554969D01*
X73379394Y-29554969D01*
X73379397Y-29554968D01*
X73565250Y-29518000D01*
X73754750Y-29518000D01*
X73940603Y-29554968D01*
X73940603Y-29554968D01*
G37*
G36*
X71400603Y-29554968D02*
X71400606Y-29554969D01*
X71400605Y-29554969D01*
X71575678Y-29627486D01*
X71630944Y-29664414D01*
X71733241Y-29732767D01*
X71867233Y-29866759D01*
X71867234Y-29866761D01*
X71972514Y-30024322D01*
X72028603Y-30159734D01*
X72045032Y-30199397D01*
X72082000Y-30385250D01*
X72082000Y-30574750D01*
X72045032Y-30760603D01*
X72045031Y-30760605D01*
X71972514Y-30935678D01*
X71972513Y-30935679D01*
X71867233Y-31093241D01*
X71733241Y-31227233D01*
X71653923Y-31280232D01*
X71575678Y-31332514D01*
X71440266Y-31388603D01*
X71400603Y-31405032D01*
X71214750Y-31442000D01*
X71025250Y-31442000D01*
X70839397Y-31405032D01*
X70799734Y-31388603D01*
X70664322Y-31332514D01*
X70586077Y-31280232D01*
X70506759Y-31227233D01*
X70372767Y-31093241D01*
X70267487Y-30935679D01*
X70267486Y-30935678D01*
X70194969Y-30760605D01*
X70194968Y-30760603D01*
X70158000Y-30574750D01*
X70158000Y-30385250D01*
X70194968Y-30199397D01*
X70211397Y-30159734D01*
X70267486Y-30024322D01*
X70372766Y-29866761D01*
X70372767Y-29866759D01*
X70506759Y-29732767D01*
X70609056Y-29664414D01*
X70664322Y-29627486D01*
X70839395Y-29554969D01*
X70839394Y-29554969D01*
X70839397Y-29554968D01*
X71025250Y-29518000D01*
X71214750Y-29518000D01*
X71400603Y-29554968D01*
X71400603Y-29554968D01*
G37*
G36*
X76480603Y-29554968D02*
X76480606Y-29554969D01*
X76480605Y-29554969D01*
X76655678Y-29627486D01*
X76710944Y-29664414D01*
X76813241Y-29732767D01*
X76947233Y-29866759D01*
X76947234Y-29866761D01*
X77052514Y-30024322D01*
X77108603Y-30159734D01*
X77125032Y-30199397D01*
X77162000Y-30385250D01*
X77162000Y-30574750D01*
X77125032Y-30760603D01*
X77125031Y-30760605D01*
X77052514Y-30935678D01*
X77052513Y-30935679D01*
X76947233Y-31093241D01*
X76813241Y-31227233D01*
X76733923Y-31280232D01*
X76655678Y-31332514D01*
X76520266Y-31388603D01*
X76480603Y-31405032D01*
X76294750Y-31442000D01*
X76105250Y-31442000D01*
X75919397Y-31405032D01*
X75879734Y-31388603D01*
X75744322Y-31332514D01*
X75666077Y-31280232D01*
X75586759Y-31227233D01*
X75452767Y-31093241D01*
X75347487Y-30935679D01*
X75347486Y-30935678D01*
X75274969Y-30760605D01*
X75274968Y-30760603D01*
X75238000Y-30574750D01*
X75238000Y-30385250D01*
X75274968Y-30199397D01*
X75291397Y-30159734D01*
X75347486Y-30024322D01*
X75452766Y-29866761D01*
X75452767Y-29866759D01*
X75586759Y-29732767D01*
X75689056Y-29664414D01*
X75744322Y-29627486D01*
X75919395Y-29554969D01*
X75919394Y-29554969D01*
X75919397Y-29554968D01*
X76105250Y-29518000D01*
X76294750Y-29518000D01*
X76480603Y-29554968D01*
X76480603Y-29554968D01*
G37*
G36*
X81405888Y-26894470D02*
X81586274Y-26930350D01*
X81777362Y-27009502D01*
X81949336Y-27124411D01*
X82095589Y-27270664D01*
X82210498Y-27442638D01*
X82289650Y-27633726D01*
X82330000Y-27836584D01*
X82330000Y-28043416D01*
X82289650Y-28246274D01*
X82210498Y-28437362D01*
X82095589Y-28609336D01*
X81949336Y-28755589D01*
X81777362Y-28870498D01*
X81586274Y-28949650D01*
X81405888Y-28985530D01*
X81383417Y-28990000D01*
X81176583Y-28990000D01*
X81154112Y-28985530D01*
X80973726Y-28949650D01*
X80782638Y-28870498D01*
X80610664Y-28755589D01*
X80464411Y-28609336D01*
X80349502Y-28437362D01*
X80270350Y-28246274D01*
X80230000Y-28043416D01*
X80230000Y-27836584D01*
X80270350Y-27633726D01*
X80349502Y-27442638D01*
X80464411Y-27270664D01*
X80610664Y-27124411D01*
X80782638Y-27009502D01*
X80973726Y-26930350D01*
X81154112Y-26894470D01*
X81176583Y-26890000D01*
X81383417Y-26890000D01*
X81405888Y-26894470D01*
X81405888Y-26894470D01*
G37*
G36*
X81405888Y-24354470D02*
X81586274Y-24390350D01*
X81777362Y-24469502D01*
X81949336Y-24584411D01*
X82095589Y-24730664D01*
X82210498Y-24902638D01*
X82289650Y-25093726D01*
X82330000Y-25296584D01*
X82330000Y-25503416D01*
X82289650Y-25706274D01*
X82210498Y-25897362D01*
X82095589Y-26069336D01*
X81949336Y-26215589D01*
X81777362Y-26330498D01*
X81586274Y-26409650D01*
X81405888Y-26445530D01*
X81383417Y-26450000D01*
X81176583Y-26450000D01*
X81154112Y-26445530D01*
X80973726Y-26409650D01*
X80782638Y-26330498D01*
X80610664Y-26215589D01*
X80464411Y-26069336D01*
X80349502Y-25897362D01*
X80270350Y-25706274D01*
X80230000Y-25503416D01*
X80230000Y-25296584D01*
X80270350Y-25093726D01*
X80349502Y-24902638D01*
X80464411Y-24730664D01*
X80610664Y-24584411D01*
X80782638Y-24469502D01*
X80973726Y-24390350D01*
X81154112Y-24354470D01*
X81176583Y-24350000D01*
X81383417Y-24350000D01*
X81405888Y-24354470D01*
X81405888Y-24354470D01*
G37*
G36*
X71400603Y-24474968D02*
X71400606Y-24474969D01*
X71400605Y-24474969D01*
X71575678Y-24547486D01*
X71630944Y-24584414D01*
X71733241Y-24652767D01*
X71867233Y-24786759D01*
X71867234Y-24786761D01*
X71972514Y-24944322D01*
X72028603Y-25079734D01*
X72045032Y-25119397D01*
X72082000Y-25305250D01*
X72082000Y-25494750D01*
X72045032Y-25680603D01*
X72045031Y-25680605D01*
X71972514Y-25855678D01*
X71972513Y-25855679D01*
X71867233Y-26013241D01*
X71733241Y-26147233D01*
X71653923Y-26200232D01*
X71575678Y-26252514D01*
X71440266Y-26308603D01*
X71400603Y-26325032D01*
X71214750Y-26362000D01*
X71025250Y-26362000D01*
X70839397Y-26325032D01*
X70799734Y-26308603D01*
X70664322Y-26252514D01*
X70586077Y-26200232D01*
X70506759Y-26147233D01*
X70372767Y-26013241D01*
X70267487Y-25855679D01*
X70267486Y-25855678D01*
X70194969Y-25680605D01*
X70194968Y-25680603D01*
X70158000Y-25494750D01*
X70158000Y-25305250D01*
X70194968Y-25119397D01*
X70211397Y-25079734D01*
X70267486Y-24944322D01*
X70372766Y-24786761D01*
X70372767Y-24786759D01*
X70506759Y-24652767D01*
X70609056Y-24584414D01*
X70664322Y-24547486D01*
X70839395Y-24474969D01*
X70839394Y-24474969D01*
X70839397Y-24474968D01*
X71025250Y-24438000D01*
X71214750Y-24438000D01*
X71400603Y-24474968D01*
X71400603Y-24474968D01*
G37*
G36*
X73940603Y-24474968D02*
X73940606Y-24474969D01*
X73940605Y-24474969D01*
X74115678Y-24547486D01*
X74170944Y-24584414D01*
X74273241Y-24652767D01*
X74407233Y-24786759D01*
X74407234Y-24786761D01*
X74512514Y-24944322D01*
X74568603Y-25079734D01*
X74585032Y-25119397D01*
X74622000Y-25305250D01*
X74622000Y-25494750D01*
X74585032Y-25680603D01*
X74585031Y-25680605D01*
X74512514Y-25855678D01*
X74512513Y-25855679D01*
X74407233Y-26013241D01*
X74273241Y-26147233D01*
X74193923Y-26200232D01*
X74115678Y-26252514D01*
X73980266Y-26308603D01*
X73940603Y-26325032D01*
X73754750Y-26362000D01*
X73565250Y-26362000D01*
X73379397Y-26325032D01*
X73339734Y-26308603D01*
X73204322Y-26252514D01*
X73126077Y-26200232D01*
X73046759Y-26147233D01*
X72912767Y-26013241D01*
X72807487Y-25855679D01*
X72807486Y-25855678D01*
X72734969Y-25680605D01*
X72734968Y-25680603D01*
X72698000Y-25494750D01*
X72698000Y-25305250D01*
X72734968Y-25119397D01*
X72751397Y-25079734D01*
X72807486Y-24944322D01*
X72912766Y-24786761D01*
X72912767Y-24786759D01*
X73046759Y-24652767D01*
X73149056Y-24584414D01*
X73204322Y-24547486D01*
X73379395Y-24474969D01*
X73379394Y-24474969D01*
X73379397Y-24474968D01*
X73565250Y-24438000D01*
X73754750Y-24438000D01*
X73940603Y-24474968D01*
X73940603Y-24474968D01*
G37*
G36*
X76480603Y-24474968D02*
X76480606Y-24474969D01*
X76480605Y-24474969D01*
X76655678Y-24547486D01*
X76710944Y-24584414D01*
X76813241Y-24652767D01*
X76947233Y-24786759D01*
X76947234Y-24786761D01*
X77052514Y-24944322D01*
X77108603Y-25079734D01*
X77125032Y-25119397D01*
X77162000Y-25305250D01*
X77162000Y-25494750D01*
X77125032Y-25680603D01*
X77125031Y-25680605D01*
X77052514Y-25855678D01*
X77052513Y-25855679D01*
X76947233Y-26013241D01*
X76813241Y-26147233D01*
X76733923Y-26200232D01*
X76655678Y-26252514D01*
X76520266Y-26308603D01*
X76480603Y-26325032D01*
X76294750Y-26362000D01*
X76105250Y-26362000D01*
X75919397Y-26325032D01*
X75879734Y-26308603D01*
X75744322Y-26252514D01*
X75666077Y-26200232D01*
X75586759Y-26147233D01*
X75452767Y-26013241D01*
X75347487Y-25855679D01*
X75347486Y-25855678D01*
X75274969Y-25680605D01*
X75274968Y-25680603D01*
X75238000Y-25494750D01*
X75238000Y-25305250D01*
X75274968Y-25119397D01*
X75291397Y-25079734D01*
X75347486Y-24944322D01*
X75452766Y-24786761D01*
X75452767Y-24786759D01*
X75586759Y-24652767D01*
X75689056Y-24584414D01*
X75744322Y-24547486D01*
X75919395Y-24474969D01*
X75919394Y-24474969D01*
X75919397Y-24474968D01*
X76105250Y-24438000D01*
X76294750Y-24438000D01*
X76480603Y-24474968D01*
X76480603Y-24474968D01*
G37*
G36*
X50325000Y-24290000D02*
X47465000Y-24290000D01*
X47465000Y-21430000D01*
X50325000Y-21430000D01*
X50325000Y-24290000D01*
X50325000Y-24290000D01*
G37*
G36*
X43340000Y-24290000D02*
X40480000Y-24290000D01*
X40480000Y-21430000D01*
X43340000Y-21430000D01*
X43340000Y-24290000D01*
X43340000Y-24290000D01*
G37*
G36*
X57310000Y-24290000D02*
X54450000Y-24290000D01*
X54450000Y-21430000D01*
X57310000Y-21430000D01*
X57310000Y-24290000D01*
X57310000Y-24290000D01*
G37*
G36*
X28100000Y-24290000D02*
X25240000Y-24290000D01*
X25240000Y-21430000D01*
X28100000Y-21430000D01*
X28100000Y-24290000D01*
X28100000Y-24290000D01*
G37*
G36*
X81405888Y-21814470D02*
X81586274Y-21850350D01*
X81777362Y-21929502D01*
X81949336Y-22044411D01*
X82095589Y-22190664D01*
X82210498Y-22362638D01*
X82289650Y-22553726D01*
X82330000Y-22756584D01*
X82330000Y-22963416D01*
X82289650Y-23166274D01*
X82210498Y-23357362D01*
X82095589Y-23529336D01*
X81949336Y-23675589D01*
X81777362Y-23790498D01*
X81586274Y-23869650D01*
X81405888Y-23905530D01*
X81383417Y-23910000D01*
X81176583Y-23910000D01*
X81154112Y-23905530D01*
X80973726Y-23869650D01*
X80782638Y-23790498D01*
X80610664Y-23675589D01*
X80464411Y-23529336D01*
X80349502Y-23357362D01*
X80270350Y-23166274D01*
X80230000Y-22963416D01*
X80230000Y-22756584D01*
X80270350Y-22553726D01*
X80349502Y-22362638D01*
X80464411Y-22190664D01*
X80610664Y-22044411D01*
X80782638Y-21929502D01*
X80973726Y-21850350D01*
X81154112Y-21814470D01*
X81176583Y-21810000D01*
X81383417Y-21810000D01*
X81405888Y-21814470D01*
X81405888Y-21814470D01*
G37*
M02*
