G04 #@! TF.GenerationSoftware,KiCad,Pcbnew,(5.0.2)-1*
G04 #@! TF.CreationDate,2019-04-15T11:25:42+02:00*
G04 #@! TF.ProjectId,irrigation_5Vvalve_4N25_CD74HC4052E_PCB v5.2,69727269-6761-4746-996f-6e5f35567661,rev?*
G04 #@! TF.SameCoordinates,Original*
G04 #@! TF.FileFunction,Other,Fab,Top*
%FSLAX46Y46*%
G04 Gerber Fmt 4.6, Leading zero omitted, Abs format (unit mm)*
G04 Created by KiCad (PCBNEW (5.0.2)-1) date 15-04-2019 11:25:42*
%MOMM*%
%LPD*%
G01*
G04 APERTURE LIST*
%ADD10C,0.600000*%
%ADD11C,0.150000*%
%ADD12C,0.200000*%
%ADD13C,0.300000*%
%ADD14C,0.050000*%
%ADD15C,0.100000*%
%ADD16C,0.108000*%
G04 APERTURE END LIST*
D10*
X40767142Y-75144285D02*
X43052857Y-75144285D01*
X41910000Y-76287142D02*
X41910000Y-74001428D01*
X86487142Y-75144285D02*
X88772857Y-75144285D01*
D11*
X26344904Y-47569380D02*
X26344904Y-46569380D01*
X26916333Y-47569380D01*
X26916333Y-46569380D01*
X27344904Y-47283666D02*
X27821095Y-47283666D01*
X27249666Y-47569380D02*
X27583000Y-46569380D01*
X27916333Y-47569380D01*
X28535380Y-47950333D02*
X28487761Y-47902714D01*
X28392523Y-47759857D01*
X28344904Y-47664619D01*
X28297285Y-47521761D01*
X28249666Y-47283666D01*
X28249666Y-47093190D01*
X28297285Y-46855095D01*
X28344904Y-46712238D01*
X28392523Y-46617000D01*
X28487761Y-46474142D01*
X28535380Y-46426523D01*
X29344904Y-46902714D02*
X29344904Y-47712238D01*
X29297285Y-47807476D01*
X29249666Y-47855095D01*
X29154428Y-47902714D01*
X29011571Y-47902714D01*
X28916333Y-47855095D01*
X29344904Y-47521761D02*
X29249666Y-47569380D01*
X29059190Y-47569380D01*
X28963952Y-47521761D01*
X28916333Y-47474142D01*
X28868714Y-47378904D01*
X28868714Y-47093190D01*
X28916333Y-46997952D01*
X28963952Y-46950333D01*
X29059190Y-46902714D01*
X29249666Y-46902714D01*
X29344904Y-46950333D01*
X29821095Y-46902714D02*
X29821095Y-47569380D01*
X29821095Y-46997952D02*
X29868714Y-46950333D01*
X29963952Y-46902714D01*
X30106809Y-46902714D01*
X30202047Y-46950333D01*
X30249666Y-47045571D01*
X30249666Y-47569380D01*
X31154428Y-47569380D02*
X31154428Y-46569380D01*
X31154428Y-47521761D02*
X31059190Y-47569380D01*
X30868714Y-47569380D01*
X30773476Y-47521761D01*
X30725857Y-47474142D01*
X30678238Y-47378904D01*
X30678238Y-47093190D01*
X30725857Y-46997952D01*
X30773476Y-46950333D01*
X30868714Y-46902714D01*
X31059190Y-46902714D01*
X31154428Y-46950333D01*
X31535380Y-47950333D02*
X31583000Y-47902714D01*
X31678238Y-47759857D01*
X31725857Y-47664619D01*
X31773476Y-47521761D01*
X31821095Y-47283666D01*
X31821095Y-47093190D01*
X31773476Y-46855095D01*
X31725857Y-46712238D01*
X31678238Y-46617000D01*
X31583000Y-46474142D01*
X31535380Y-46426523D01*
X46156904Y-19502380D02*
X46156904Y-18502380D01*
X46728333Y-19502380D01*
X46728333Y-18502380D01*
X47156904Y-19216666D02*
X47633095Y-19216666D01*
X47061666Y-19502380D02*
X47395000Y-18502380D01*
X47728333Y-19502380D01*
X48347380Y-19883333D02*
X48299761Y-19835714D01*
X48204523Y-19692857D01*
X48156904Y-19597619D01*
X48109285Y-19454761D01*
X48061666Y-19216666D01*
X48061666Y-19026190D01*
X48109285Y-18788095D01*
X48156904Y-18645238D01*
X48204523Y-18550000D01*
X48299761Y-18407142D01*
X48347380Y-18359523D01*
X49156904Y-18835714D02*
X49156904Y-19645238D01*
X49109285Y-19740476D01*
X49061666Y-19788095D01*
X48966428Y-19835714D01*
X48823571Y-19835714D01*
X48728333Y-19788095D01*
X49156904Y-19454761D02*
X49061666Y-19502380D01*
X48871190Y-19502380D01*
X48775952Y-19454761D01*
X48728333Y-19407142D01*
X48680714Y-19311904D01*
X48680714Y-19026190D01*
X48728333Y-18930952D01*
X48775952Y-18883333D01*
X48871190Y-18835714D01*
X49061666Y-18835714D01*
X49156904Y-18883333D01*
X49633095Y-18835714D02*
X49633095Y-19502380D01*
X49633095Y-18930952D02*
X49680714Y-18883333D01*
X49775952Y-18835714D01*
X49918809Y-18835714D01*
X50014047Y-18883333D01*
X50061666Y-18978571D01*
X50061666Y-19502380D01*
X50966428Y-19502380D02*
X50966428Y-18502380D01*
X50966428Y-19454761D02*
X50871190Y-19502380D01*
X50680714Y-19502380D01*
X50585476Y-19454761D01*
X50537857Y-19407142D01*
X50490238Y-19311904D01*
X50490238Y-19026190D01*
X50537857Y-18930952D01*
X50585476Y-18883333D01*
X50680714Y-18835714D01*
X50871190Y-18835714D01*
X50966428Y-18883333D01*
X51347380Y-19883333D02*
X51395000Y-19835714D01*
X51490238Y-19692857D01*
X51537857Y-19597619D01*
X51585476Y-19454761D01*
X51633095Y-19216666D01*
X51633095Y-19026190D01*
X51585476Y-18788095D01*
X51537857Y-18645238D01*
X51490238Y-18550000D01*
X51395000Y-18407142D01*
X51347380Y-18359523D01*
D12*
X70373634Y-43180000D02*
G75*
G03X70373634Y-43180000I-523634J0D01*
G01*
D13*
X95484142Y-25971428D02*
X95484142Y-24828571D01*
X94805571Y-22713142D02*
X95948428Y-22713142D01*
X95377000Y-23284571D02*
X95377000Y-22141714D01*
D11*
G04 #@! TO.C,SW2*
X73660000Y-25400000D02*
X73660000Y-21590000D01*
X73660000Y-22352000D02*
X73660000Y-21844000D01*
X76200000Y-22860000D02*
X76200000Y-25400000D01*
X71120000Y-25400000D02*
X71120000Y-22860000D01*
X76329515Y-22860000D02*
G75*
G03X76329515Y-22860000I-129515J0D01*
G01*
X71233592Y-22834600D02*
G75*
G03X71233592Y-22834600I-113592J0D01*
G01*
X73764727Y-21590000D02*
G75*
G03X73764727Y-21590000I-104727J0D01*
G01*
X73660000Y-21590000D02*
X76200000Y-20320000D01*
D14*
X73660000Y-21590000D02*
X71120000Y-22860000D01*
D15*
G04 #@! TO.C,Opto1*
X66945000Y-44450000D02*
X61595000Y-44450000D01*
X61595000Y-44450000D02*
X61595000Y-39370000D01*
X61595000Y-39370000D02*
X67945000Y-39370000D01*
X67945000Y-39370000D02*
X67945000Y-43450000D01*
X67945000Y-43450000D02*
X66945000Y-44450000D01*
G04 #@! TO.C,R1*
X53340000Y-48260000D02*
X52600000Y-48260000D01*
X48260000Y-48260000D02*
X49000000Y-48260000D01*
X52600000Y-47460000D02*
X49000000Y-47460000D01*
X52600000Y-49060000D02*
X52600000Y-47460000D01*
X49000000Y-49060000D02*
X52600000Y-49060000D01*
X49000000Y-47460000D02*
X49000000Y-49060000D01*
G04 #@! TO.C,R2*
X49000000Y-44920000D02*
X49000000Y-46520000D01*
X49000000Y-46520000D02*
X52600000Y-46520000D01*
X52600000Y-46520000D02*
X52600000Y-44920000D01*
X52600000Y-44920000D02*
X49000000Y-44920000D01*
X48260000Y-45720000D02*
X49000000Y-45720000D01*
X53340000Y-45720000D02*
X52600000Y-45720000D01*
G04 #@! TD*
G04 #@! TO.C,U5*
D11*
X65127142Y-57205238D02*
X65174761Y-57252857D01*
X65222380Y-57395714D01*
X65222380Y-57490952D01*
X65174761Y-57633809D01*
X65079523Y-57729047D01*
X64984285Y-57776666D01*
X64793809Y-57824285D01*
X64650952Y-57824285D01*
X64460476Y-57776666D01*
X64365238Y-57729047D01*
X64270000Y-57633809D01*
X64222380Y-57490952D01*
X64222380Y-57395714D01*
X64270000Y-57252857D01*
X64317619Y-57205238D01*
X65222380Y-56776666D02*
X64222380Y-56776666D01*
X64222380Y-56538571D01*
X64270000Y-56395714D01*
X64365238Y-56300476D01*
X64460476Y-56252857D01*
X64650952Y-56205238D01*
X64793809Y-56205238D01*
X64984285Y-56252857D01*
X65079523Y-56300476D01*
X65174761Y-56395714D01*
X65222380Y-56538571D01*
X65222380Y-56776666D01*
X64555714Y-55348095D02*
X65222380Y-55348095D01*
X64174761Y-55586190D02*
X64889047Y-55824285D01*
X64889047Y-55205238D01*
X64222380Y-54633809D02*
X64222380Y-54538571D01*
X64270000Y-54443333D01*
X64317619Y-54395714D01*
X64412857Y-54348095D01*
X64603333Y-54300476D01*
X64841428Y-54300476D01*
X65031904Y-54348095D01*
X65127142Y-54395714D01*
X65174761Y-54443333D01*
X65222380Y-54538571D01*
X65222380Y-54633809D01*
X65174761Y-54729047D01*
X65127142Y-54776666D01*
X65031904Y-54824285D01*
X64841428Y-54871904D01*
X64603333Y-54871904D01*
X64412857Y-54824285D01*
X64317619Y-54776666D01*
X64270000Y-54729047D01*
X64222380Y-54633809D01*
X64222380Y-53395714D02*
X64222380Y-53871904D01*
X64698571Y-53919523D01*
X64650952Y-53871904D01*
X64603333Y-53776666D01*
X64603333Y-53538571D01*
X64650952Y-53443333D01*
X64698571Y-53395714D01*
X64793809Y-53348095D01*
X65031904Y-53348095D01*
X65127142Y-53395714D01*
X65174761Y-53443333D01*
X65222380Y-53538571D01*
X65222380Y-53776666D01*
X65174761Y-53871904D01*
X65127142Y-53919523D01*
X64317619Y-52967142D02*
X64270000Y-52919523D01*
X64222380Y-52824285D01*
X64222380Y-52586190D01*
X64270000Y-52490952D01*
X64317619Y-52443333D01*
X64412857Y-52395714D01*
X64508095Y-52395714D01*
X64650952Y-52443333D01*
X65222380Y-53014761D01*
X65222380Y-52395714D01*
X64698571Y-51633809D02*
X64746190Y-51490952D01*
X64793809Y-51443333D01*
X64889047Y-51395714D01*
X65031904Y-51395714D01*
X65127142Y-51443333D01*
X65174761Y-51490952D01*
X65222380Y-51586190D01*
X65222380Y-51967142D01*
X64222380Y-51967142D01*
X64222380Y-51633809D01*
X64270000Y-51538571D01*
X64317619Y-51490952D01*
X64412857Y-51443333D01*
X64508095Y-51443333D01*
X64603333Y-51490952D01*
X64650952Y-51538571D01*
X64698571Y-51633809D01*
X64698571Y-51967142D01*
G04 #@! TO.C,bat_18650*
X59595238Y-71328571D02*
X59738095Y-71376190D01*
X59785714Y-71423809D01*
X59833333Y-71519047D01*
X59833333Y-71661904D01*
X59785714Y-71757142D01*
X59738095Y-71804761D01*
X59642857Y-71852380D01*
X59261904Y-71852380D01*
X59261904Y-70852380D01*
X59595238Y-70852380D01*
X59690476Y-70900000D01*
X59738095Y-70947619D01*
X59785714Y-71042857D01*
X59785714Y-71138095D01*
X59738095Y-71233333D01*
X59690476Y-71280952D01*
X59595238Y-71328571D01*
X59261904Y-71328571D01*
X60690476Y-71852380D02*
X60690476Y-71328571D01*
X60642857Y-71233333D01*
X60547619Y-71185714D01*
X60357142Y-71185714D01*
X60261904Y-71233333D01*
X60690476Y-71804761D02*
X60595238Y-71852380D01*
X60357142Y-71852380D01*
X60261904Y-71804761D01*
X60214285Y-71709523D01*
X60214285Y-71614285D01*
X60261904Y-71519047D01*
X60357142Y-71471428D01*
X60595238Y-71471428D01*
X60690476Y-71423809D01*
X61023809Y-71185714D02*
X61404761Y-71185714D01*
X61166666Y-70852380D02*
X61166666Y-71709523D01*
X61214285Y-71804761D01*
X61309523Y-71852380D01*
X61404761Y-71852380D01*
X61595238Y-71185714D02*
X61976190Y-71185714D01*
X61738095Y-70852380D02*
X61738095Y-71709523D01*
X61785714Y-71804761D01*
X61880952Y-71852380D01*
X61976190Y-71852380D01*
X62690476Y-71804761D02*
X62595238Y-71852380D01*
X62404761Y-71852380D01*
X62309523Y-71804761D01*
X62261904Y-71709523D01*
X62261904Y-71328571D01*
X62309523Y-71233333D01*
X62404761Y-71185714D01*
X62595238Y-71185714D01*
X62690476Y-71233333D01*
X62738095Y-71328571D01*
X62738095Y-71423809D01*
X62261904Y-71519047D01*
X63166666Y-71852380D02*
X63166666Y-71185714D01*
X63166666Y-71376190D02*
X63214285Y-71280952D01*
X63261904Y-71233333D01*
X63357142Y-71185714D01*
X63452380Y-71185714D01*
X63690476Y-71185714D02*
X63928571Y-71852380D01*
X64166666Y-71185714D02*
X63928571Y-71852380D01*
X63833333Y-72090476D01*
X63785714Y-72138095D01*
X63690476Y-72185714D01*
X64309523Y-71947619D02*
X65071428Y-71947619D01*
X65880952Y-71757142D02*
X65833333Y-71804761D01*
X65690476Y-71852380D01*
X65595238Y-71852380D01*
X65452380Y-71804761D01*
X65357142Y-71709523D01*
X65309523Y-71614285D01*
X65261904Y-71423809D01*
X65261904Y-71280952D01*
X65309523Y-71090476D01*
X65357142Y-70995238D01*
X65452380Y-70900000D01*
X65595238Y-70852380D01*
X65690476Y-70852380D01*
X65833333Y-70900000D01*
X65880952Y-70947619D01*
X66690476Y-71804761D02*
X66595238Y-71852380D01*
X66404761Y-71852380D01*
X66309523Y-71804761D01*
X66261904Y-71709523D01*
X66261904Y-71328571D01*
X66309523Y-71233333D01*
X66404761Y-71185714D01*
X66595238Y-71185714D01*
X66690476Y-71233333D01*
X66738095Y-71328571D01*
X66738095Y-71423809D01*
X66261904Y-71519047D01*
X67309523Y-71852380D02*
X67214285Y-71804761D01*
X67166666Y-71709523D01*
X67166666Y-70852380D01*
X67833333Y-71852380D02*
X67738095Y-71804761D01*
X67690476Y-71709523D01*
X67690476Y-70852380D01*
G04 #@! TO.C,SW2*
X68873714Y-29701904D02*
X68873714Y-29320952D01*
X69540380Y-29559047D02*
X68683238Y-29559047D01*
X68588000Y-29511428D01*
X68540380Y-29416190D01*
X68540380Y-29320952D01*
X69540380Y-28844761D02*
X69492761Y-28940000D01*
X69397523Y-28987619D01*
X68540380Y-28987619D01*
X69540380Y-28035238D02*
X69016571Y-28035238D01*
X68921333Y-28082857D01*
X68873714Y-28178095D01*
X68873714Y-28368571D01*
X68921333Y-28463809D01*
X69492761Y-28035238D02*
X69540380Y-28130476D01*
X69540380Y-28368571D01*
X69492761Y-28463809D01*
X69397523Y-28511428D01*
X69302285Y-28511428D01*
X69207047Y-28463809D01*
X69159428Y-28368571D01*
X69159428Y-28130476D01*
X69111809Y-28035238D01*
X69492761Y-27606666D02*
X69540380Y-27511428D01*
X69540380Y-27320952D01*
X69492761Y-27225714D01*
X69397523Y-27178095D01*
X69349904Y-27178095D01*
X69254666Y-27225714D01*
X69207047Y-27320952D01*
X69207047Y-27463809D01*
X69159428Y-27559047D01*
X69064190Y-27606666D01*
X69016571Y-27606666D01*
X68921333Y-27559047D01*
X68873714Y-27463809D01*
X68873714Y-27320952D01*
X68921333Y-27225714D01*
X69540380Y-26749523D02*
X68540380Y-26749523D01*
X69540380Y-26320952D02*
X69016571Y-26320952D01*
X68921333Y-26368571D01*
X68873714Y-26463809D01*
X68873714Y-26606666D01*
X68921333Y-26701904D01*
X68968952Y-26749523D01*
X75906857Y-21264571D02*
X75573523Y-21264571D01*
X75573523Y-21788380D02*
X75573523Y-20788380D01*
X76049714Y-20788380D01*
X76573523Y-21788380D02*
X76478285Y-21740761D01*
X76430666Y-21645523D01*
X76430666Y-20788380D01*
X77383047Y-21788380D02*
X77383047Y-21264571D01*
X77335428Y-21169333D01*
X77240190Y-21121714D01*
X77049714Y-21121714D01*
X76954476Y-21169333D01*
X77383047Y-21740761D02*
X77287809Y-21788380D01*
X77049714Y-21788380D01*
X76954476Y-21740761D01*
X76906857Y-21645523D01*
X76906857Y-21550285D01*
X76954476Y-21455047D01*
X77049714Y-21407428D01*
X77287809Y-21407428D01*
X77383047Y-21359809D01*
X77811619Y-21740761D02*
X77906857Y-21788380D01*
X78097333Y-21788380D01*
X78192571Y-21740761D01*
X78240190Y-21645523D01*
X78240190Y-21597904D01*
X78192571Y-21502666D01*
X78097333Y-21455047D01*
X77954476Y-21455047D01*
X77859238Y-21407428D01*
X77811619Y-21312190D01*
X77811619Y-21264571D01*
X77859238Y-21169333D01*
X77954476Y-21121714D01*
X78097333Y-21121714D01*
X78192571Y-21169333D01*
X78668761Y-21788380D02*
X78668761Y-20788380D01*
X79097333Y-21788380D02*
X79097333Y-21264571D01*
X79049714Y-21169333D01*
X78954476Y-21121714D01*
X78811619Y-21121714D01*
X78716380Y-21169333D01*
X78668761Y-21216952D01*
X80621142Y-22169333D02*
X80573523Y-22121714D01*
X80478285Y-21978857D01*
X80430666Y-21883619D01*
X80383047Y-21740761D01*
X80335428Y-21502666D01*
X80335428Y-21312190D01*
X80383047Y-21074095D01*
X80430666Y-20931238D01*
X80478285Y-20836000D01*
X80573523Y-20693142D01*
X80621142Y-20645523D01*
X81430666Y-21788380D02*
X81430666Y-20788380D01*
X81430666Y-21740761D02*
X81335428Y-21788380D01*
X81144952Y-21788380D01*
X81049714Y-21740761D01*
X81002095Y-21693142D01*
X80954476Y-21597904D01*
X80954476Y-21312190D01*
X81002095Y-21216952D01*
X81049714Y-21169333D01*
X81144952Y-21121714D01*
X81335428Y-21121714D01*
X81430666Y-21169333D01*
X82049714Y-21788380D02*
X81954476Y-21740761D01*
X81906857Y-21693142D01*
X81859238Y-21597904D01*
X81859238Y-21312190D01*
X81906857Y-21216952D01*
X81954476Y-21169333D01*
X82049714Y-21121714D01*
X82192571Y-21121714D01*
X82287809Y-21169333D01*
X82335428Y-21216952D01*
X82383047Y-21312190D01*
X82383047Y-21597904D01*
X82335428Y-21693142D01*
X82287809Y-21740761D01*
X82192571Y-21788380D01*
X82049714Y-21788380D01*
X82716380Y-21121714D02*
X82906857Y-21788380D01*
X83097333Y-21312190D01*
X83287809Y-21788380D01*
X83478285Y-21121714D01*
X83859238Y-21121714D02*
X83859238Y-21788380D01*
X83859238Y-21216952D02*
X83906857Y-21169333D01*
X84002095Y-21121714D01*
X84144952Y-21121714D01*
X84240190Y-21169333D01*
X84287809Y-21264571D01*
X84287809Y-21788380D01*
X84668761Y-22169333D02*
X84716380Y-22121714D01*
X84811619Y-21978857D01*
X84859238Y-21883619D01*
X84906857Y-21740761D01*
X84954476Y-21502666D01*
X84954476Y-21312190D01*
X84906857Y-21074095D01*
X84859238Y-20931238D01*
X84811619Y-20836000D01*
X84716380Y-20693142D01*
X84668761Y-20645523D01*
X63183047Y-21788380D02*
X63183047Y-20788380D01*
X63754476Y-21788380D01*
X63754476Y-20788380D01*
X64373523Y-21788380D02*
X64278285Y-21740761D01*
X64230666Y-21693142D01*
X64183047Y-21597904D01*
X64183047Y-21312190D01*
X64230666Y-21216952D01*
X64278285Y-21169333D01*
X64373523Y-21121714D01*
X64516380Y-21121714D01*
X64611619Y-21169333D01*
X64659238Y-21216952D01*
X64706857Y-21312190D01*
X64706857Y-21597904D01*
X64659238Y-21693142D01*
X64611619Y-21740761D01*
X64516380Y-21788380D01*
X64373523Y-21788380D01*
X65135428Y-21788380D02*
X65135428Y-21121714D01*
X65135428Y-21312190D02*
X65183047Y-21216952D01*
X65230666Y-21169333D01*
X65325904Y-21121714D01*
X65421142Y-21121714D01*
X65754476Y-21788380D02*
X65754476Y-21121714D01*
X65754476Y-21216952D02*
X65802095Y-21169333D01*
X65897333Y-21121714D01*
X66040190Y-21121714D01*
X66135428Y-21169333D01*
X66183047Y-21264571D01*
X66183047Y-21788380D01*
X66183047Y-21264571D02*
X66230666Y-21169333D01*
X66325904Y-21121714D01*
X66468761Y-21121714D01*
X66564000Y-21169333D01*
X66611619Y-21264571D01*
X66611619Y-21788380D01*
X67516380Y-21788380D02*
X67516380Y-21264571D01*
X67468761Y-21169333D01*
X67373523Y-21121714D01*
X67183047Y-21121714D01*
X67087809Y-21169333D01*
X67516380Y-21740761D02*
X67421142Y-21788380D01*
X67183047Y-21788380D01*
X67087809Y-21740761D01*
X67040190Y-21645523D01*
X67040190Y-21550285D01*
X67087809Y-21455047D01*
X67183047Y-21407428D01*
X67421142Y-21407428D01*
X67516380Y-21359809D01*
X68135428Y-21788380D02*
X68040190Y-21740761D01*
X67992571Y-21645523D01*
X67992571Y-20788380D01*
X69564000Y-22169333D02*
X69516380Y-22121714D01*
X69421142Y-21978857D01*
X69373523Y-21883619D01*
X69325904Y-21740761D01*
X69278285Y-21502666D01*
X69278285Y-21312190D01*
X69325904Y-21074095D01*
X69373523Y-20931238D01*
X69421142Y-20836000D01*
X69516380Y-20693142D01*
X69564000Y-20645523D01*
X70373523Y-21121714D02*
X70373523Y-21788380D01*
X69944952Y-21121714D02*
X69944952Y-21645523D01*
X69992571Y-21740761D01*
X70087809Y-21788380D01*
X70230666Y-21788380D01*
X70325904Y-21740761D01*
X70373523Y-21693142D01*
X70849714Y-21121714D02*
X70849714Y-22121714D01*
X70849714Y-21169333D02*
X70944952Y-21121714D01*
X71135428Y-21121714D01*
X71230666Y-21169333D01*
X71278285Y-21216952D01*
X71325904Y-21312190D01*
X71325904Y-21597904D01*
X71278285Y-21693142D01*
X71230666Y-21740761D01*
X71135428Y-21788380D01*
X70944952Y-21788380D01*
X70849714Y-21740761D01*
X71659238Y-22169333D02*
X71706857Y-22121714D01*
X71802095Y-21978857D01*
X71849714Y-21883619D01*
X71897333Y-21740761D01*
X71944952Y-21502666D01*
X71944952Y-21312190D01*
X71897333Y-21074095D01*
X71849714Y-20931238D01*
X71802095Y-20836000D01*
X71706857Y-20693142D01*
X71659238Y-20645523D01*
G04 #@! TO.C,J1*
X98060000Y-24534761D02*
X98202857Y-24582380D01*
X98440952Y-24582380D01*
X98536190Y-24534761D01*
X98583809Y-24487142D01*
X98631428Y-24391904D01*
X98631428Y-24296666D01*
X98583809Y-24201428D01*
X98536190Y-24153809D01*
X98440952Y-24106190D01*
X98250476Y-24058571D01*
X98155238Y-24010952D01*
X98107619Y-23963333D01*
X98060000Y-23868095D01*
X98060000Y-23772857D01*
X98107619Y-23677619D01*
X98155238Y-23630000D01*
X98250476Y-23582380D01*
X98488571Y-23582380D01*
X98631428Y-23630000D01*
X99202857Y-24582380D02*
X99107619Y-24534761D01*
X99060000Y-24487142D01*
X99012380Y-24391904D01*
X99012380Y-24106190D01*
X99060000Y-24010952D01*
X99107619Y-23963333D01*
X99202857Y-23915714D01*
X99345714Y-23915714D01*
X99440952Y-23963333D01*
X99488571Y-24010952D01*
X99536190Y-24106190D01*
X99536190Y-24391904D01*
X99488571Y-24487142D01*
X99440952Y-24534761D01*
X99345714Y-24582380D01*
X99202857Y-24582380D01*
X100107619Y-24582380D02*
X100012380Y-24534761D01*
X99964761Y-24439523D01*
X99964761Y-23582380D01*
G04 #@! TO.C,U2*
X81478380Y-68284561D02*
X81002190Y-68617894D01*
X81478380Y-68855989D02*
X80478380Y-68855989D01*
X80478380Y-68475037D01*
X80526000Y-68379799D01*
X80573619Y-68332180D01*
X80668857Y-68284561D01*
X80811714Y-68284561D01*
X80906952Y-68332180D01*
X80954571Y-68379799D01*
X81002190Y-68475037D01*
X81002190Y-68855989D01*
X81430761Y-67903608D02*
X81478380Y-67760751D01*
X81478380Y-67522656D01*
X81430761Y-67427418D01*
X81383142Y-67379799D01*
X81287904Y-67332180D01*
X81192666Y-67332180D01*
X81097428Y-67379799D01*
X81049809Y-67427418D01*
X81002190Y-67522656D01*
X80954571Y-67713132D01*
X80906952Y-67808370D01*
X80859333Y-67855989D01*
X80764095Y-67903608D01*
X80668857Y-67903608D01*
X80573619Y-67855989D01*
X80526000Y-67808370D01*
X80478380Y-67713132D01*
X80478380Y-67475037D01*
X80526000Y-67332180D01*
X80478380Y-67046465D02*
X80478380Y-66475037D01*
X81478380Y-66760751D02*
X80478380Y-66760751D01*
X98258380Y-68975037D02*
X98258380Y-68355989D01*
X98639333Y-68689322D01*
X98639333Y-68546465D01*
X98686952Y-68451227D01*
X98734571Y-68403608D01*
X98829809Y-68355989D01*
X99067904Y-68355989D01*
X99163142Y-68403608D01*
X99210761Y-68451227D01*
X99258380Y-68546465D01*
X99258380Y-68832180D01*
X99210761Y-68927418D01*
X99163142Y-68975037D01*
X98258380Y-68070275D02*
X99258380Y-67736942D01*
X98258380Y-67403608D01*
X98258380Y-67165513D02*
X98258380Y-66546465D01*
X98639333Y-66879799D01*
X98639333Y-66736942D01*
X98686952Y-66641703D01*
X98734571Y-66594084D01*
X98829809Y-66546465D01*
X99067904Y-66546465D01*
X99163142Y-66594084D01*
X99210761Y-66641703D01*
X99258380Y-66736942D01*
X99258380Y-67022656D01*
X99210761Y-67117894D01*
X99163142Y-67165513D01*
X98258380Y-37447418D02*
X98258380Y-37923608D01*
X98734571Y-37971227D01*
X98686952Y-37923608D01*
X98639333Y-37828370D01*
X98639333Y-37590275D01*
X98686952Y-37495037D01*
X98734571Y-37447418D01*
X98829809Y-37399799D01*
X99067904Y-37399799D01*
X99163142Y-37447418D01*
X99210761Y-37495037D01*
X99258380Y-37590275D01*
X99258380Y-37828370D01*
X99210761Y-37923608D01*
X99163142Y-37971227D01*
X98258380Y-37114084D02*
X99258380Y-36780751D01*
X98258380Y-36447418D01*
X95766000Y-38018846D02*
X95718380Y-38114084D01*
X95718380Y-38256942D01*
X95766000Y-38399799D01*
X95861238Y-38495037D01*
X95956476Y-38542656D01*
X96146952Y-38590275D01*
X96289809Y-38590275D01*
X96480285Y-38542656D01*
X96575523Y-38495037D01*
X96670761Y-38399799D01*
X96718380Y-38256942D01*
X96718380Y-38161703D01*
X96670761Y-38018846D01*
X96623142Y-37971227D01*
X96289809Y-37971227D01*
X96289809Y-38161703D01*
X96718380Y-37542656D02*
X95718380Y-37542656D01*
X96718380Y-36971227D01*
X95718380Y-36971227D01*
X96718380Y-36495037D02*
X95718380Y-36495037D01*
X95718380Y-36256942D01*
X95766000Y-36114084D01*
X95861238Y-36018846D01*
X95956476Y-35971227D01*
X96146952Y-35923608D01*
X96289809Y-35923608D01*
X96480285Y-35971227D01*
X96575523Y-36018846D01*
X96670761Y-36114084D01*
X96718380Y-36256942D01*
X96718380Y-36495037D01*
X83732666Y-68451227D02*
X83732666Y-67975037D01*
X84018380Y-68546465D02*
X83018380Y-68213132D01*
X84018380Y-67879799D01*
X83018380Y-67355989D02*
X83018380Y-67260751D01*
X83066000Y-67165513D01*
X83113619Y-67117894D01*
X83208857Y-67070275D01*
X83399333Y-67022656D01*
X83637428Y-67022656D01*
X83827904Y-67070275D01*
X83923142Y-67117894D01*
X83970761Y-67165513D01*
X84018380Y-67260751D01*
X84018380Y-67355989D01*
X83970761Y-67451227D01*
X83923142Y-67498846D01*
X83827904Y-67546465D01*
X83637428Y-67594084D01*
X83399333Y-67594084D01*
X83208857Y-67546465D01*
X83113619Y-67498846D01*
X83066000Y-67451227D01*
X83018380Y-67355989D01*
X86558380Y-68556095D02*
X85558380Y-68556095D01*
X85558380Y-68318000D01*
X85606000Y-68175142D01*
X85701238Y-68079904D01*
X85796476Y-68032285D01*
X85986952Y-67984666D01*
X86129809Y-67984666D01*
X86320285Y-68032285D01*
X86415523Y-68079904D01*
X86510761Y-68175142D01*
X86558380Y-68318000D01*
X86558380Y-68556095D01*
X85558380Y-67365619D02*
X85558380Y-67270380D01*
X85606000Y-67175142D01*
X85653619Y-67127523D01*
X85748857Y-67079904D01*
X85939333Y-67032285D01*
X86177428Y-67032285D01*
X86367904Y-67079904D01*
X86463142Y-67127523D01*
X86510761Y-67175142D01*
X86558380Y-67270380D01*
X86558380Y-67365619D01*
X86510761Y-67460857D01*
X86463142Y-67508476D01*
X86367904Y-67556095D01*
X86177428Y-67603714D01*
X85939333Y-67603714D01*
X85748857Y-67556095D01*
X85653619Y-67508476D01*
X85606000Y-67460857D01*
X85558380Y-67365619D01*
X89098380Y-68475037D02*
X88098380Y-68475037D01*
X88098380Y-68236942D01*
X88146000Y-68094084D01*
X88241238Y-67998846D01*
X88336476Y-67951227D01*
X88526952Y-67903608D01*
X88669809Y-67903608D01*
X88860285Y-67951227D01*
X88955523Y-67998846D01*
X89050761Y-68094084D01*
X89098380Y-68236942D01*
X89098380Y-68475037D01*
X88098380Y-66998846D02*
X88098380Y-67475037D01*
X88574571Y-67522656D01*
X88526952Y-67475037D01*
X88479333Y-67379799D01*
X88479333Y-67141703D01*
X88526952Y-67046465D01*
X88574571Y-66998846D01*
X88669809Y-66951227D01*
X88907904Y-66951227D01*
X89003142Y-66998846D01*
X89050761Y-67046465D01*
X89098380Y-67141703D01*
X89098380Y-67379799D01*
X89050761Y-67475037D01*
X89003142Y-67522656D01*
X91638380Y-68475037D02*
X90638380Y-68475037D01*
X90638380Y-68236942D01*
X90686000Y-68094084D01*
X90781238Y-67998846D01*
X90876476Y-67951227D01*
X91066952Y-67903608D01*
X91209809Y-67903608D01*
X91400285Y-67951227D01*
X91495523Y-67998846D01*
X91590761Y-68094084D01*
X91638380Y-68236942D01*
X91638380Y-68475037D01*
X90638380Y-67046465D02*
X90638380Y-67236942D01*
X90686000Y-67332180D01*
X90733619Y-67379799D01*
X90876476Y-67475037D01*
X91066952Y-67522656D01*
X91447904Y-67522656D01*
X91543142Y-67475037D01*
X91590761Y-67427418D01*
X91638380Y-67332180D01*
X91638380Y-67141703D01*
X91590761Y-67046465D01*
X91543142Y-66998846D01*
X91447904Y-66951227D01*
X91209809Y-66951227D01*
X91114571Y-66998846D01*
X91066952Y-67046465D01*
X91019333Y-67141703D01*
X91019333Y-67332180D01*
X91066952Y-67427418D01*
X91114571Y-67475037D01*
X91209809Y-67522656D01*
X94178380Y-68475037D02*
X93178380Y-68475037D01*
X93178380Y-68236942D01*
X93226000Y-68094084D01*
X93321238Y-67998846D01*
X93416476Y-67951227D01*
X93606952Y-67903608D01*
X93749809Y-67903608D01*
X93940285Y-67951227D01*
X94035523Y-67998846D01*
X94130761Y-68094084D01*
X94178380Y-68236942D01*
X94178380Y-68475037D01*
X93178380Y-67570275D02*
X93178380Y-66903608D01*
X94178380Y-67332180D01*
X96718380Y-68475037D02*
X95718380Y-68475037D01*
X95718380Y-68236942D01*
X95766000Y-68094084D01*
X95861238Y-67998846D01*
X95956476Y-67951227D01*
X96146952Y-67903608D01*
X96289809Y-67903608D01*
X96480285Y-67951227D01*
X96575523Y-67998846D01*
X96670761Y-68094084D01*
X96718380Y-68236942D01*
X96718380Y-68475037D01*
X96146952Y-67332180D02*
X96099333Y-67427418D01*
X96051714Y-67475037D01*
X95956476Y-67522656D01*
X95908857Y-67522656D01*
X95813619Y-67475037D01*
X95766000Y-67427418D01*
X95718380Y-67332180D01*
X95718380Y-67141703D01*
X95766000Y-67046465D01*
X95813619Y-66998846D01*
X95908857Y-66951227D01*
X95956476Y-66951227D01*
X96051714Y-66998846D01*
X96099333Y-67046465D01*
X96146952Y-67141703D01*
X96146952Y-67332180D01*
X96194571Y-67427418D01*
X96242190Y-67475037D01*
X96337428Y-67522656D01*
X96527904Y-67522656D01*
X96623142Y-67475037D01*
X96670761Y-67427418D01*
X96718380Y-67332180D01*
X96718380Y-67141703D01*
X96670761Y-67046465D01*
X96623142Y-66998846D01*
X96527904Y-66951227D01*
X96337428Y-66951227D01*
X96242190Y-66998846D01*
X96194571Y-67046465D01*
X96146952Y-67141703D01*
X80478380Y-38734904D02*
X80478380Y-38163476D01*
X81478380Y-38449190D02*
X80478380Y-38449190D01*
X80478380Y-37925380D02*
X81478380Y-37258714D01*
X80478380Y-37258714D02*
X81478380Y-37925380D01*
X84145380Y-38012666D02*
X83669190Y-38346000D01*
X84145380Y-38584095D02*
X83145380Y-38584095D01*
X83145380Y-38203142D01*
X83193000Y-38107904D01*
X83240619Y-38060285D01*
X83335857Y-38012666D01*
X83478714Y-38012666D01*
X83573952Y-38060285D01*
X83621571Y-38107904D01*
X83669190Y-38203142D01*
X83669190Y-38584095D01*
X83145380Y-37679333D02*
X84145380Y-37012666D01*
X83145380Y-37012666D02*
X84145380Y-37679333D01*
X86812380Y-37995037D02*
X85812380Y-37995037D01*
X85812380Y-37756942D01*
X85860000Y-37614084D01*
X85955238Y-37518846D01*
X86050476Y-37471227D01*
X86240952Y-37423608D01*
X86383809Y-37423608D01*
X86574285Y-37471227D01*
X86669523Y-37518846D01*
X86764761Y-37614084D01*
X86812380Y-37756942D01*
X86812380Y-37995037D01*
X86812380Y-36471227D02*
X86812380Y-37042656D01*
X86812380Y-36756942D02*
X85812380Y-36756942D01*
X85955238Y-36852180D01*
X86050476Y-36947418D01*
X86098095Y-37042656D01*
X89098380Y-37995037D02*
X88098380Y-37995037D01*
X88098380Y-37756942D01*
X88146000Y-37614084D01*
X88241238Y-37518846D01*
X88336476Y-37471227D01*
X88526952Y-37423608D01*
X88669809Y-37423608D01*
X88860285Y-37471227D01*
X88955523Y-37518846D01*
X89050761Y-37614084D01*
X89098380Y-37756942D01*
X89098380Y-37995037D01*
X88193619Y-37042656D02*
X88146000Y-36995037D01*
X88098380Y-36899799D01*
X88098380Y-36661703D01*
X88146000Y-36566465D01*
X88193619Y-36518846D01*
X88288857Y-36471227D01*
X88384095Y-36471227D01*
X88526952Y-36518846D01*
X89098380Y-37090275D01*
X89098380Y-36471227D01*
X91638380Y-37995037D02*
X90638380Y-37995037D01*
X90638380Y-37756942D01*
X90686000Y-37614084D01*
X90781238Y-37518846D01*
X90876476Y-37471227D01*
X91066952Y-37423608D01*
X91209809Y-37423608D01*
X91400285Y-37471227D01*
X91495523Y-37518846D01*
X91590761Y-37614084D01*
X91638380Y-37756942D01*
X91638380Y-37995037D01*
X90638380Y-37090275D02*
X90638380Y-36471227D01*
X91019333Y-36804561D01*
X91019333Y-36661703D01*
X91066952Y-36566465D01*
X91114571Y-36518846D01*
X91209809Y-36471227D01*
X91447904Y-36471227D01*
X91543142Y-36518846D01*
X91590761Y-36566465D01*
X91638380Y-36661703D01*
X91638380Y-36947418D01*
X91590761Y-37042656D01*
X91543142Y-37090275D01*
X94178380Y-37995037D02*
X93178380Y-37995037D01*
X93178380Y-37756942D01*
X93226000Y-37614084D01*
X93321238Y-37518846D01*
X93416476Y-37471227D01*
X93606952Y-37423608D01*
X93749809Y-37423608D01*
X93940285Y-37471227D01*
X94035523Y-37518846D01*
X94130761Y-37614084D01*
X94178380Y-37756942D01*
X94178380Y-37995037D01*
X93511714Y-36566465D02*
X94178380Y-36566465D01*
X93130761Y-36804561D02*
X93845047Y-37042656D01*
X93845047Y-36423608D01*
G04 #@! TO.C,J3*
X97075857Y-28408380D02*
X97409190Y-29408380D01*
X97742523Y-28408380D01*
X98504428Y-29408380D02*
X98504428Y-28884571D01*
X98456809Y-28789333D01*
X98361571Y-28741714D01*
X98171095Y-28741714D01*
X98075857Y-28789333D01*
X98504428Y-29360761D02*
X98409190Y-29408380D01*
X98171095Y-29408380D01*
X98075857Y-29360761D01*
X98028238Y-29265523D01*
X98028238Y-29170285D01*
X98075857Y-29075047D01*
X98171095Y-29027428D01*
X98409190Y-29027428D01*
X98504428Y-28979809D01*
X99123476Y-29408380D02*
X99028238Y-29360761D01*
X98980619Y-29265523D01*
X98980619Y-28408380D01*
X99409190Y-28741714D02*
X99647285Y-29408380D01*
X99885380Y-28741714D01*
X100647285Y-29360761D02*
X100552047Y-29408380D01*
X100361571Y-29408380D01*
X100266333Y-29360761D01*
X100218714Y-29265523D01*
X100218714Y-28884571D01*
X100266333Y-28789333D01*
X100361571Y-28741714D01*
X100552047Y-28741714D01*
X100647285Y-28789333D01*
X100694904Y-28884571D01*
X100694904Y-28979809D01*
X100218714Y-29075047D01*
G04 #@! TO.C,Opto1*
X63008095Y-41362380D02*
X63198571Y-41362380D01*
X63293809Y-41410000D01*
X63389047Y-41505238D01*
X63436666Y-41695714D01*
X63436666Y-42029047D01*
X63389047Y-42219523D01*
X63293809Y-42314761D01*
X63198571Y-42362380D01*
X63008095Y-42362380D01*
X62912857Y-42314761D01*
X62817619Y-42219523D01*
X62770000Y-42029047D01*
X62770000Y-41695714D01*
X62817619Y-41505238D01*
X62912857Y-41410000D01*
X63008095Y-41362380D01*
X63865238Y-41695714D02*
X63865238Y-42695714D01*
X63865238Y-41743333D02*
X63960476Y-41695714D01*
X64150952Y-41695714D01*
X64246190Y-41743333D01*
X64293809Y-41790952D01*
X64341428Y-41886190D01*
X64341428Y-42171904D01*
X64293809Y-42267142D01*
X64246190Y-42314761D01*
X64150952Y-42362380D01*
X63960476Y-42362380D01*
X63865238Y-42314761D01*
X64627142Y-41695714D02*
X65008095Y-41695714D01*
X64769999Y-41362380D02*
X64769999Y-42219523D01*
X64817619Y-42314761D01*
X64912857Y-42362380D01*
X65008095Y-42362380D01*
X65484285Y-42362380D02*
X65389047Y-42314761D01*
X65341428Y-42267142D01*
X65293809Y-42171904D01*
X65293809Y-41886190D01*
X65341428Y-41790952D01*
X65389047Y-41743333D01*
X65484285Y-41695714D01*
X65627142Y-41695714D01*
X65722380Y-41743333D01*
X65769999Y-41790952D01*
X65817619Y-41886190D01*
X65817619Y-42171904D01*
X65769999Y-42267142D01*
X65722380Y-42314761D01*
X65627142Y-42362380D01*
X65484285Y-42362380D01*
X66770000Y-42362380D02*
X66198571Y-42362380D01*
X66484285Y-42362380D02*
X66484285Y-41362380D01*
X66389047Y-41505238D01*
X66293809Y-41600476D01*
X66198571Y-41648095D01*
G04 #@! TO.C,R1*
X43886571Y-48712380D02*
X43315142Y-48712380D01*
X43600857Y-48712380D02*
X43600857Y-47712380D01*
X43505619Y-47855238D01*
X43410380Y-47950476D01*
X43315142Y-47998095D01*
X44505619Y-47712380D02*
X44600857Y-47712380D01*
X44696095Y-47760000D01*
X44743714Y-47807619D01*
X44791333Y-47902857D01*
X44838952Y-48093333D01*
X44838952Y-48331428D01*
X44791333Y-48521904D01*
X44743714Y-48617142D01*
X44696095Y-48664761D01*
X44600857Y-48712380D01*
X44505619Y-48712380D01*
X44410380Y-48664761D01*
X44362761Y-48617142D01*
X44315142Y-48521904D01*
X44267523Y-48331428D01*
X44267523Y-48093333D01*
X44315142Y-47902857D01*
X44362761Y-47807619D01*
X44410380Y-47760000D01*
X44505619Y-47712380D01*
X45458000Y-47712380D02*
X45553238Y-47712380D01*
X45648476Y-47760000D01*
X45696095Y-47807619D01*
X45743714Y-47902857D01*
X45791333Y-48093333D01*
X45791333Y-48331428D01*
X45743714Y-48521904D01*
X45696095Y-48617142D01*
X45648476Y-48664761D01*
X45553238Y-48712380D01*
X45458000Y-48712380D01*
X45362761Y-48664761D01*
X45315142Y-48617142D01*
X45267523Y-48521904D01*
X45219904Y-48331428D01*
X45219904Y-48093333D01*
X45267523Y-47902857D01*
X45315142Y-47807619D01*
X45362761Y-47760000D01*
X45458000Y-47712380D01*
X46219904Y-48712380D02*
X46219904Y-47712380D01*
X46315142Y-48331428D02*
X46600857Y-48712380D01*
X46600857Y-48045714D02*
X46219904Y-48426666D01*
D16*
X50680000Y-48585714D02*
X50440000Y-48242857D01*
X50268571Y-48585714D02*
X50268571Y-47865714D01*
X50542857Y-47865714D01*
X50611428Y-47900000D01*
X50645714Y-47934285D01*
X50680000Y-48002857D01*
X50680000Y-48105714D01*
X50645714Y-48174285D01*
X50611428Y-48208571D01*
X50542857Y-48242857D01*
X50268571Y-48242857D01*
X51365714Y-48585714D02*
X50954285Y-48585714D01*
X51160000Y-48585714D02*
X51160000Y-47865714D01*
X51091428Y-47968571D01*
X51022857Y-48037142D01*
X50954285Y-48071428D01*
G04 #@! TO.C,R2*
D11*
X45807333Y-46061380D02*
X45331142Y-46061380D01*
X45283523Y-46537571D01*
X45331142Y-46489952D01*
X45426380Y-46442333D01*
X45664476Y-46442333D01*
X45759714Y-46489952D01*
X45807333Y-46537571D01*
X45854952Y-46632809D01*
X45854952Y-46870904D01*
X45807333Y-46966142D01*
X45759714Y-47013761D01*
X45664476Y-47061380D01*
X45426380Y-47061380D01*
X45331142Y-47013761D01*
X45283523Y-46966142D01*
X46283523Y-47061380D02*
X46283523Y-46061380D01*
X46378761Y-46680428D02*
X46664476Y-47061380D01*
X46664476Y-46394714D02*
X46283523Y-46775666D01*
D16*
X50680000Y-46045714D02*
X50440000Y-45702857D01*
X50268571Y-46045714D02*
X50268571Y-45325714D01*
X50542857Y-45325714D01*
X50611428Y-45360000D01*
X50645714Y-45394285D01*
X50680000Y-45462857D01*
X50680000Y-45565714D01*
X50645714Y-45634285D01*
X50611428Y-45668571D01*
X50542857Y-45702857D01*
X50268571Y-45702857D01*
X50954285Y-45394285D02*
X50988571Y-45360000D01*
X51057142Y-45325714D01*
X51228571Y-45325714D01*
X51297142Y-45360000D01*
X51331428Y-45394285D01*
X51365714Y-45462857D01*
X51365714Y-45531428D01*
X51331428Y-45634285D01*
X50920000Y-46045714D01*
X51365714Y-46045714D01*
G04 #@! TO.C,SS1*
D11*
X47394761Y-61935714D02*
X47442380Y-61792857D01*
X47442380Y-61554761D01*
X47394761Y-61459523D01*
X47347142Y-61411904D01*
X47251904Y-61364285D01*
X47156666Y-61364285D01*
X47061428Y-61411904D01*
X47013809Y-61459523D01*
X46966190Y-61554761D01*
X46918571Y-61745238D01*
X46870952Y-61840476D01*
X46823333Y-61888095D01*
X46728095Y-61935714D01*
X46632857Y-61935714D01*
X46537619Y-61888095D01*
X46490000Y-61840476D01*
X46442380Y-61745238D01*
X46442380Y-61507142D01*
X46490000Y-61364285D01*
X46442380Y-60745238D02*
X46442380Y-60554761D01*
X46490000Y-60459523D01*
X46585238Y-60364285D01*
X46775714Y-60316666D01*
X47109047Y-60316666D01*
X47299523Y-60364285D01*
X47394761Y-60459523D01*
X47442380Y-60554761D01*
X47442380Y-60745238D01*
X47394761Y-60840476D01*
X47299523Y-60935714D01*
X47109047Y-60983333D01*
X46775714Y-60983333D01*
X46585238Y-60935714D01*
X46490000Y-60840476D01*
X46442380Y-60745238D01*
X47442380Y-59888095D02*
X46442380Y-59888095D01*
X47442380Y-58935714D02*
X47442380Y-59411904D01*
X46442380Y-59411904D01*
X47537619Y-58840476D02*
X47537619Y-58078571D01*
X47394761Y-57888095D02*
X47442380Y-57745238D01*
X47442380Y-57507142D01*
X47394761Y-57411904D01*
X47347142Y-57364285D01*
X47251904Y-57316666D01*
X47156666Y-57316666D01*
X47061428Y-57364285D01*
X47013809Y-57411904D01*
X46966190Y-57507142D01*
X46918571Y-57697619D01*
X46870952Y-57792857D01*
X46823333Y-57840476D01*
X46728095Y-57888095D01*
X46632857Y-57888095D01*
X46537619Y-57840476D01*
X46490000Y-57792857D01*
X46442380Y-57697619D01*
X46442380Y-57459523D01*
X46490000Y-57316666D01*
X46918571Y-56888095D02*
X46918571Y-56554761D01*
X47442380Y-56411904D02*
X47442380Y-56888095D01*
X46442380Y-56888095D01*
X46442380Y-56411904D01*
X47442380Y-55983333D02*
X46442380Y-55983333D01*
X47442380Y-55411904D01*
X46442380Y-55411904D01*
X47394761Y-54983333D02*
X47442380Y-54840476D01*
X47442380Y-54602380D01*
X47394761Y-54507142D01*
X47347142Y-54459523D01*
X47251904Y-54411904D01*
X47156666Y-54411904D01*
X47061428Y-54459523D01*
X47013809Y-54507142D01*
X46966190Y-54602380D01*
X46918571Y-54792857D01*
X46870952Y-54888095D01*
X46823333Y-54935714D01*
X46728095Y-54983333D01*
X46632857Y-54983333D01*
X46537619Y-54935714D01*
X46490000Y-54888095D01*
X46442380Y-54792857D01*
X46442380Y-54554761D01*
X46490000Y-54411904D01*
X46442380Y-53792857D02*
X46442380Y-53602380D01*
X46490000Y-53507142D01*
X46585238Y-53411904D01*
X46775714Y-53364285D01*
X47109047Y-53364285D01*
X47299523Y-53411904D01*
X47394761Y-53507142D01*
X47442380Y-53602380D01*
X47442380Y-53792857D01*
X47394761Y-53888095D01*
X47299523Y-53983333D01*
X47109047Y-54030952D01*
X46775714Y-54030952D01*
X46585238Y-53983333D01*
X46490000Y-53888095D01*
X46442380Y-53792857D01*
X47442380Y-52364285D02*
X46966190Y-52697619D01*
X47442380Y-52935714D02*
X46442380Y-52935714D01*
X46442380Y-52554761D01*
X46490000Y-52459523D01*
X46537619Y-52411904D01*
X46632857Y-52364285D01*
X46775714Y-52364285D01*
X46870952Y-52411904D01*
X46918571Y-52459523D01*
X46966190Y-52554761D01*
X46966190Y-52935714D01*
G04 #@! TO.C,SW1*
X96663190Y-33107380D02*
X96853666Y-33107380D01*
X96948904Y-33155000D01*
X97044142Y-33250238D01*
X97091761Y-33440714D01*
X97091761Y-33774047D01*
X97044142Y-33964523D01*
X96948904Y-34059761D01*
X96853666Y-34107380D01*
X96663190Y-34107380D01*
X96567952Y-34059761D01*
X96472714Y-33964523D01*
X96425095Y-33774047D01*
X96425095Y-33440714D01*
X96472714Y-33250238D01*
X96567952Y-33155000D01*
X96663190Y-33107380D01*
X97520333Y-34107380D02*
X97520333Y-33107380D01*
X98091761Y-34107380D01*
X98091761Y-33107380D01*
X99282238Y-33059761D02*
X98425095Y-34345476D01*
X99806047Y-33107380D02*
X99996523Y-33107380D01*
X100091761Y-33155000D01*
X100187000Y-33250238D01*
X100234619Y-33440714D01*
X100234619Y-33774047D01*
X100187000Y-33964523D01*
X100091761Y-34059761D01*
X99996523Y-34107380D01*
X99806047Y-34107380D01*
X99710809Y-34059761D01*
X99615571Y-33964523D01*
X99567952Y-33774047D01*
X99567952Y-33440714D01*
X99615571Y-33250238D01*
X99710809Y-33155000D01*
X99806047Y-33107380D01*
X100996523Y-33583571D02*
X100663190Y-33583571D01*
X100663190Y-34107380D02*
X100663190Y-33107380D01*
X101139380Y-33107380D01*
X101853666Y-33583571D02*
X101520333Y-33583571D01*
X101520333Y-34107380D02*
X101520333Y-33107380D01*
X101996523Y-33107380D01*
G04 #@! TO.C,J4*
X35877619Y-50728571D02*
X36020476Y-50776190D01*
X36068095Y-50823809D01*
X36115714Y-50919047D01*
X36115714Y-51061904D01*
X36068095Y-51157142D01*
X36020476Y-51204761D01*
X35925238Y-51252380D01*
X35544285Y-51252380D01*
X35544285Y-50252380D01*
X35877619Y-50252380D01*
X35972857Y-50300000D01*
X36020476Y-50347619D01*
X36068095Y-50442857D01*
X36068095Y-50538095D01*
X36020476Y-50633333D01*
X35972857Y-50680952D01*
X35877619Y-50728571D01*
X35544285Y-50728571D01*
X36972857Y-51252380D02*
X36972857Y-50728571D01*
X36925238Y-50633333D01*
X36830000Y-50585714D01*
X36639523Y-50585714D01*
X36544285Y-50633333D01*
X36972857Y-51204761D02*
X36877619Y-51252380D01*
X36639523Y-51252380D01*
X36544285Y-51204761D01*
X36496666Y-51109523D01*
X36496666Y-51014285D01*
X36544285Y-50919047D01*
X36639523Y-50871428D01*
X36877619Y-50871428D01*
X36972857Y-50823809D01*
X37306190Y-50585714D02*
X37687142Y-50585714D01*
X37449047Y-50252380D02*
X37449047Y-51109523D01*
X37496666Y-51204761D01*
X37591904Y-51252380D01*
X37687142Y-51252380D01*
X37877619Y-50585714D02*
X38258571Y-50585714D01*
X38020476Y-50252380D02*
X38020476Y-51109523D01*
X38068095Y-51204761D01*
X38163333Y-51252380D01*
X38258571Y-51252380D01*
G04 #@! TO.C,J5*
X33424761Y-63530952D02*
X33472380Y-63388095D01*
X33472380Y-63150000D01*
X33424761Y-63054761D01*
X33377142Y-63007142D01*
X33281904Y-62959523D01*
X33186666Y-62959523D01*
X33091428Y-63007142D01*
X33043809Y-63054761D01*
X32996190Y-63150000D01*
X32948571Y-63340476D01*
X32900952Y-63435714D01*
X32853333Y-63483333D01*
X32758095Y-63530952D01*
X32662857Y-63530952D01*
X32567619Y-63483333D01*
X32520000Y-63435714D01*
X32472380Y-63340476D01*
X32472380Y-63102380D01*
X32520000Y-62959523D01*
X32805714Y-62530952D02*
X33805714Y-62530952D01*
X32853333Y-62530952D02*
X32805714Y-62435714D01*
X32805714Y-62245238D01*
X32853333Y-62150000D01*
X32900952Y-62102380D01*
X32996190Y-62054761D01*
X33281904Y-62054761D01*
X33377142Y-62102380D01*
X33424761Y-62150000D01*
X33472380Y-62245238D01*
X33472380Y-62435714D01*
X33424761Y-62530952D01*
X33472380Y-61197619D02*
X32948571Y-61197619D01*
X32853333Y-61245238D01*
X32805714Y-61340476D01*
X32805714Y-61530952D01*
X32853333Y-61626190D01*
X33424761Y-61197619D02*
X33472380Y-61292857D01*
X33472380Y-61530952D01*
X33424761Y-61626190D01*
X33329523Y-61673809D01*
X33234285Y-61673809D01*
X33139047Y-61626190D01*
X33091428Y-61530952D01*
X33091428Y-61292857D01*
X33043809Y-61197619D01*
X33472380Y-60721428D02*
X32805714Y-60721428D01*
X32996190Y-60721428D02*
X32900952Y-60673809D01*
X32853333Y-60626190D01*
X32805714Y-60530952D01*
X32805714Y-60435714D01*
X33424761Y-59721428D02*
X33472380Y-59816666D01*
X33472380Y-60007142D01*
X33424761Y-60102380D01*
X33329523Y-60150000D01*
X32948571Y-60150000D01*
X32853333Y-60102380D01*
X32805714Y-60007142D01*
X32805714Y-59816666D01*
X32853333Y-59721428D01*
X32948571Y-59673809D01*
X33043809Y-59673809D01*
X33139047Y-60150000D01*
X33424761Y-58054761D02*
X33472380Y-58150000D01*
X33472380Y-58340476D01*
X33424761Y-58435714D01*
X33377142Y-58483333D01*
X33281904Y-58530952D01*
X32996190Y-58530952D01*
X32900952Y-58483333D01*
X32853333Y-58435714D01*
X32805714Y-58340476D01*
X32805714Y-58150000D01*
X32853333Y-58054761D01*
X33472380Y-57483333D02*
X33424761Y-57578571D01*
X33377142Y-57626190D01*
X33281904Y-57673809D01*
X32996190Y-57673809D01*
X32900952Y-57626190D01*
X32853333Y-57578571D01*
X32805714Y-57483333D01*
X32805714Y-57340476D01*
X32853333Y-57245238D01*
X32900952Y-57197619D01*
X32996190Y-57150000D01*
X33281904Y-57150000D01*
X33377142Y-57197619D01*
X33424761Y-57245238D01*
X33472380Y-57340476D01*
X33472380Y-57483333D01*
X32805714Y-56721428D02*
X33472380Y-56721428D01*
X32900952Y-56721428D02*
X32853333Y-56673809D01*
X32805714Y-56578571D01*
X32805714Y-56435714D01*
X32853333Y-56340476D01*
X32948571Y-56292857D01*
X33472380Y-56292857D01*
X32805714Y-55816666D02*
X33472380Y-55816666D01*
X32900952Y-55816666D02*
X32853333Y-55769047D01*
X32805714Y-55673809D01*
X32805714Y-55530952D01*
X32853333Y-55435714D01*
X32948571Y-55388095D01*
X33472380Y-55388095D01*
X33424761Y-54530952D02*
X33472380Y-54626190D01*
X33472380Y-54816666D01*
X33424761Y-54911904D01*
X33329523Y-54959523D01*
X32948571Y-54959523D01*
X32853333Y-54911904D01*
X32805714Y-54816666D01*
X32805714Y-54626190D01*
X32853333Y-54530952D01*
X32948571Y-54483333D01*
X33043809Y-54483333D01*
X33139047Y-54959523D01*
X33424761Y-53626190D02*
X33472380Y-53721428D01*
X33472380Y-53911904D01*
X33424761Y-54007142D01*
X33377142Y-54054761D01*
X33281904Y-54102380D01*
X32996190Y-54102380D01*
X32900952Y-54054761D01*
X32853333Y-54007142D01*
X32805714Y-53911904D01*
X32805714Y-53721428D01*
X32853333Y-53626190D01*
X32805714Y-53340476D02*
X32805714Y-52959523D01*
X32472380Y-53197619D02*
X33329523Y-53197619D01*
X33424761Y-53150000D01*
X33472380Y-53054761D01*
X33472380Y-52959523D01*
X33472380Y-52626190D02*
X32805714Y-52626190D01*
X32472380Y-52626190D02*
X32520000Y-52673809D01*
X32567619Y-52626190D01*
X32520000Y-52578571D01*
X32472380Y-52626190D01*
X32567619Y-52626190D01*
X33472380Y-52007142D02*
X33424761Y-52102380D01*
X33377142Y-52150000D01*
X33281904Y-52197619D01*
X32996190Y-52197619D01*
X32900952Y-52150000D01*
X32853333Y-52102380D01*
X32805714Y-52007142D01*
X32805714Y-51864285D01*
X32853333Y-51769047D01*
X32900952Y-51721428D01*
X32996190Y-51673809D01*
X33281904Y-51673809D01*
X33377142Y-51721428D01*
X33424761Y-51769047D01*
X33472380Y-51864285D01*
X33472380Y-52007142D01*
X32805714Y-51245238D02*
X33472380Y-51245238D01*
X32900952Y-51245238D02*
X32853333Y-51197619D01*
X32805714Y-51102380D01*
X32805714Y-50959523D01*
X32853333Y-50864285D01*
X32948571Y-50816666D01*
X33472380Y-50816666D01*
G04 #@! TO.C,U4*
X51522380Y-37829904D02*
X52236666Y-37829904D01*
X52379523Y-37877523D01*
X52474761Y-37972761D01*
X52522380Y-38115619D01*
X52522380Y-38210857D01*
X51522380Y-36877523D02*
X51522380Y-37353714D01*
X51998571Y-37401333D01*
X51950952Y-37353714D01*
X51903333Y-37258476D01*
X51903333Y-37020380D01*
X51950952Y-36925142D01*
X51998571Y-36877523D01*
X52093809Y-36829904D01*
X52331904Y-36829904D01*
X52427142Y-36877523D01*
X52474761Y-36925142D01*
X52522380Y-37020380D01*
X52522380Y-37258476D01*
X52474761Y-37353714D01*
X52427142Y-37401333D01*
X51522380Y-36210857D02*
X51522380Y-36115619D01*
X51570000Y-36020380D01*
X51617619Y-35972761D01*
X51712857Y-35925142D01*
X51903333Y-35877523D01*
X52141428Y-35877523D01*
X52331904Y-35925142D01*
X52427142Y-35972761D01*
X52474761Y-36020380D01*
X52522380Y-36115619D01*
X52522380Y-36210857D01*
X52474761Y-36306095D01*
X52427142Y-36353714D01*
X52331904Y-36401333D01*
X52141428Y-36448952D01*
X51903333Y-36448952D01*
X51712857Y-36401333D01*
X51617619Y-36353714D01*
X51570000Y-36306095D01*
X51522380Y-36210857D01*
X52522380Y-34925142D02*
X52522380Y-35496571D01*
X52522380Y-35210857D02*
X51522380Y-35210857D01*
X51665238Y-35306095D01*
X51760476Y-35401333D01*
X51808095Y-35496571D01*
X52522380Y-34448952D02*
X52522380Y-34258476D01*
X52474761Y-34163238D01*
X52427142Y-34115619D01*
X52284285Y-34020380D01*
X52093809Y-33972761D01*
X51712857Y-33972761D01*
X51617619Y-34020380D01*
X51570000Y-34068000D01*
X51522380Y-34163238D01*
X51522380Y-34353714D01*
X51570000Y-34448952D01*
X51617619Y-34496571D01*
X51712857Y-34544190D01*
X51950952Y-34544190D01*
X52046190Y-34496571D01*
X52093809Y-34448952D01*
X52141428Y-34353714D01*
X52141428Y-34163238D01*
X52093809Y-34068000D01*
X52046190Y-34020380D01*
X51950952Y-33972761D01*
G04 #@! TO.C,Q1*
X61047619Y-40092380D02*
X61619047Y-40092380D01*
X61333333Y-41092380D02*
X61333333Y-40092380D01*
X61952380Y-41092380D02*
X61952380Y-40092380D01*
X62428571Y-41092380D02*
X62428571Y-40092380D01*
X62809523Y-40092380D01*
X62904761Y-40140000D01*
X62952380Y-40187619D01*
X63000000Y-40282857D01*
X63000000Y-40425714D01*
X62952380Y-40520952D01*
X62904761Y-40568571D01*
X62809523Y-40616190D01*
X62428571Y-40616190D01*
X63952380Y-41092380D02*
X63380952Y-41092380D01*
X63666666Y-41092380D02*
X63666666Y-40092380D01*
X63571428Y-40235238D01*
X63476190Y-40330476D01*
X63380952Y-40378095D01*
X64333333Y-40187619D02*
X64380952Y-40140000D01*
X64476190Y-40092380D01*
X64714285Y-40092380D01*
X64809523Y-40140000D01*
X64857142Y-40187619D01*
X64904761Y-40282857D01*
X64904761Y-40378095D01*
X64857142Y-40520952D01*
X64285714Y-41092380D01*
X64904761Y-41092380D01*
X65523809Y-40092380D02*
X65619047Y-40092380D01*
X65714285Y-40140000D01*
X65761904Y-40187619D01*
X65809523Y-40282857D01*
X65857142Y-40473333D01*
X65857142Y-40711428D01*
X65809523Y-40901904D01*
X65761904Y-40997142D01*
X65714285Y-41044761D01*
X65619047Y-41092380D01*
X65523809Y-41092380D01*
X65428571Y-41044761D01*
X65380952Y-40997142D01*
X65333333Y-40901904D01*
X65285714Y-40711428D01*
X65285714Y-40473333D01*
X65333333Y-40282857D01*
X65380952Y-40187619D01*
X65428571Y-40140000D01*
X65523809Y-40092380D01*
X63404761Y-42917619D02*
X63309523Y-42870000D01*
X63214285Y-42774761D01*
X63071428Y-42631904D01*
X62976190Y-42584285D01*
X62880952Y-42584285D01*
X62928571Y-42822380D02*
X62833333Y-42774761D01*
X62738095Y-42679523D01*
X62690476Y-42489047D01*
X62690476Y-42155714D01*
X62738095Y-41965238D01*
X62833333Y-41870000D01*
X62928571Y-41822380D01*
X63119047Y-41822380D01*
X63214285Y-41870000D01*
X63309523Y-41965238D01*
X63357142Y-42155714D01*
X63357142Y-42489047D01*
X63309523Y-42679523D01*
X63214285Y-42774761D01*
X63119047Y-42822380D01*
X62928571Y-42822380D01*
X64309523Y-42822380D02*
X63738095Y-42822380D01*
X64023809Y-42822380D02*
X64023809Y-41822380D01*
X63928571Y-41965238D01*
X63833333Y-42060476D01*
X63738095Y-42108095D01*
X59507428Y-33456571D02*
X59650285Y-33504190D01*
X59697904Y-33551809D01*
X59745523Y-33647047D01*
X59745523Y-33789904D01*
X59697904Y-33885142D01*
X59650285Y-33932761D01*
X59555047Y-33980380D01*
X59174095Y-33980380D01*
X59174095Y-32980380D01*
X59507428Y-32980380D01*
X59602666Y-33028000D01*
X59650285Y-33075619D01*
X59697904Y-33170857D01*
X59697904Y-33266095D01*
X59650285Y-33361333D01*
X59602666Y-33408952D01*
X59507428Y-33456571D01*
X59174095Y-33456571D01*
X67349714Y-33456571D02*
X67683047Y-33456571D01*
X67825904Y-33980380D02*
X67349714Y-33980380D01*
X67349714Y-32980380D01*
X67825904Y-32980380D01*
G04 #@! TD*
M02*
